<svg xmlns="http://www.w3.org/2000/svg" xmlns:xlink="http://www.w3.org/1999/xlink" fill="none" version="1.1" width="60" height="60" viewBox="0 0 60 60"><defs><clipPath id="master_svg0_18_95"><rect x="0" y="0" width="60" height="60" rx="0"/></clipPath><clipPath id="master_svg1_18_009"><rect x="6" y="6" width="3" height="3" rx="1.5"/></clipPath><clipPath id="master_svg2_18_010"><rect x="11" y="6" width="43" height="3" rx="1.5"/></clipPath><clipPath id="master_svg3_18_000"><rect x="13" y="13.5" width="3" height="3" rx="1.5"/></clipPath><clipPath id="master_svg4_18_001"><rect x="18" y="13.5" width="36" height="3" rx="1.5"/></clipPath><clipPath id="master_svg5_18_022"><rect x="20" y="21" width="3" height="3" rx="1.5"/></clipPath><clipPath id="master_svg6_18_021"><rect x="25" y="21" width="29" height="3" rx="1.5"/></clipPath><clipPath id="master_svg7_18_016"><rect x="13" y="28.5" width="3" height="3" rx="1.5"/></clipPath><clipPath id="master_svg8_18_015"><rect x="18" y="28.5" width="36" height="3" rx="1.5"/></clipPath><clipPath id="master_svg9_18_98"><rect x="6" y="36" width="3" height="3" rx="1.5"/></clipPath><clipPath id="master_svga_18_97"><rect x="11" y="36" width="43" height="3" rx="1.5"/></clipPath><clipPath id="master_svgb_18_003"><rect x="13" y="43.5" width="3" height="3" rx="1.5"/></clipPath><clipPath id="master_svgc_18_004"><rect x="18" y="43.5" width="36" height="3" rx="1.5"/></clipPath><clipPath id="master_svgd_18_019"><rect x="20" y="51" width="3" height="3" rx="1.5"/></clipPath><clipPath id="master_svge_18_018"><rect x="25" y="51" width="29" height="3" rx="1.5"/></clipPath></defs><g clip-path="url(#master_svg0_18_95)"><rect x="0" y="0" width="60" height="60" rx="0" fill="#242424" fill-opacity="1"/><g><g clip-path="url(#master_svg1_18_009)"><rect x="6" y="6" width="3" height="3" rx="1.5" fill="#383838" fill-opacity="1"/></g><g clip-path="url(#master_svg2_18_010)"><rect x="11" y="6" width="43" height="3" rx="1.5" fill="#383838" fill-opacity="1"/></g></g><g><g clip-path="url(#master_svg3_18_000)"><rect x="13" y="13.5" width="3" height="3" rx="1.5" fill="#383838" fill-opacity="1"/></g><g clip-path="url(#master_svg4_18_001)"><rect x="18" y="13.5" width="36" height="3" rx="1.5" fill="#383838" fill-opacity="1"/></g></g><g><g clip-path="url(#master_svg5_18_022)"><rect x="20" y="21" width="3" height="3" rx="1.5" fill="#383838" fill-opacity="1"/></g><g clip-path="url(#master_svg6_18_021)"><rect x="25" y="21" width="29" height="3" rx="1.5" fill="#383838" fill-opacity="1"/></g></g><g><g clip-path="url(#master_svg7_18_016)"><rect x="13" y="28.5" width="3" height="3" rx="1.5" fill="#383838" fill-opacity="1"/></g><g clip-path="url(#master_svg8_18_015)"><rect x="18" y="28.5" width="36" height="3" rx="1.5" fill="#383838" fill-opacity="1"/></g></g><g><g clip-path="url(#master_svg9_18_98)"><rect x="6" y="36" width="3" height="3" rx="1.5" fill="#383838" fill-opacity="1"/></g><g clip-path="url(#master_svga_18_97)"><rect x="11" y="36" width="43" height="3" rx="1.5" fill="#383838" fill-opacity="1"/></g></g><g><g clip-path="url(#master_svgb_18_003)"><rect x="13" y="43.5" width="3" height="3" rx="1.5" fill="#383838" fill-opacity="1"/></g><g clip-path="url(#master_svgc_18_004)"><rect x="18" y="43.5" width="36" height="3" rx="1.5" fill="#383838" fill-opacity="1"/></g></g><g><g clip-path="url(#master_svgd_18_019)"><rect x="20" y="51" width="3" height="3" rx="1.5" fill="#383838" fill-opacity="1"/></g><g clip-path="url(#master_svge_18_018)"><rect x="25" y="51" width="29" height="3" rx="1.5" fill="#383838" fill-opacity="1"/></g></g></g></svg>