<svg xmlns="http://www.w3.org/2000/svg" xmlns:xlink="http://www.w3.org/1999/xlink" fill="none" version="1.1" width="60" height="60" viewBox="0 0 60 60"><defs><clipPath id="master_svg0_18_027"><rect x="0" y="0" width="60" height="60" rx="0"/></clipPath><clipPath id="master_svg1_18_035"><rect x="6" y="6" width="3" height="3" rx="1.5"/></clipPath><clipPath id="master_svg2_18_036"><rect x="11" y="6" width="43" height="3" rx="1.5"/></clipPath><clipPath id="master_svg3_18_033"><rect x="6" y="13.5" width="3" height="3" rx="1.5"/></clipPath><clipPath id="master_svg4_18_032"><rect x="11" y="13.5" width="43" height="3" rx="1.5"/></clipPath><clipPath id="master_svg5_18_039"><rect x="6" y="21" width="3" height="3" rx="1.5"/></clipPath><clipPath id="master_svg6_18_038"><rect x="11" y="21" width="43" height="3" rx="1.5"/></clipPath><clipPath id="master_svg7_18_047"><rect x="6" y="28.5" width="3" height="3" rx="1.5"/></clipPath><clipPath id="master_svg8_18_048"><rect x="11" y="28.5" width="43" height="3" rx="1.5"/></clipPath><clipPath id="master_svg9_18_045"><rect x="6" y="36" width="3" height="3" rx="1.5"/></clipPath><clipPath id="master_svga_18_044"><rect x="11" y="36" width="43" height="3" rx="1.5"/></clipPath><clipPath id="master_svgb_18_030"><rect x="6" y="43.5" width="3" height="3" rx="1.5"/></clipPath><clipPath id="master_svgc_18_029"><rect x="11" y="43.5" width="43" height="3" rx="1.5"/></clipPath><clipPath id="master_svgd_18_042"><rect x="6" y="51" width="3" height="3" rx="1.5"/></clipPath><clipPath id="master_svge_18_041"><rect x="11" y="51" width="43" height="3" rx="1.5"/></clipPath></defs><g clip-path="url(#master_svg0_18_027)"><rect x="0" y="0" width="60" height="60" rx="0" fill="#FFFFFF" fill-opacity="1"/><g><g clip-path="url(#master_svg1_18_035)"><rect x="6" y="6" width="3" height="3" rx="1.5" fill="#EEEEEE" fill-opacity="1"/></g><g clip-path="url(#master_svg2_18_036)"><rect x="11" y="6" width="43" height="3" rx="1.5" fill="#EEEEEE" fill-opacity="1"/></g></g><g><g clip-path="url(#master_svg3_18_033)"><rect x="6" y="13.5" width="3" height="3" rx="1.5" fill="#EEEEEE" fill-opacity="1"/></g><g clip-path="url(#master_svg4_18_032)"><rect x="11" y="13.5" width="43" height="3" rx="1.5" fill="#EEEEEE" fill-opacity="1"/></g></g><g><g clip-path="url(#master_svg5_18_039)"><rect x="6" y="21" width="3" height="3" rx="1.5" fill="#EEEEEE" fill-opacity="1"/></g><g clip-path="url(#master_svg6_18_038)"><rect x="11" y="21" width="43" height="3" rx="1.5" fill="#EEEEEE" fill-opacity="1"/></g></g><g><g clip-path="url(#master_svg7_18_047)"><rect x="6" y="28.5" width="3" height="3" rx="1.5" fill="#EEEEEE" fill-opacity="1"/></g><g clip-path="url(#master_svg8_18_048)"><rect x="11" y="28.5" width="43" height="3" rx="1.5" fill="#EEEEEE" fill-opacity="1"/></g></g><g><g clip-path="url(#master_svg9_18_045)"><rect x="6" y="36" width="3" height="3" rx="1.5" fill="#EEEEEE" fill-opacity="1"/></g><g clip-path="url(#master_svga_18_044)"><rect x="11" y="36" width="43" height="3" rx="1.5" fill="#EEEEEE" fill-opacity="1"/></g></g><g><g clip-path="url(#master_svgb_18_030)"><rect x="6" y="43.5" width="3" height="3" rx="1.5" fill="#EEEEEE" fill-opacity="1"/></g><g clip-path="url(#master_svgc_18_029)"><rect x="11" y="43.5" width="43" height="3" rx="1.5" fill="#EEEEEE" fill-opacity="1"/></g></g><g><g clip-path="url(#master_svgd_18_042)"><rect x="6" y="51" width="3" height="3" rx="1.5" fill="#EEEEEE" fill-opacity="1"/></g><g clip-path="url(#master_svge_18_041)"><rect x="11" y="51" width="43" height="3" rx="1.5" fill="#EEEEEE" fill-opacity="1"/></g></g></g></svg>