<svg xmlns="http://www.w3.org/2000/svg" xmlns:xlink="http://www.w3.org/1999/xlink" fill="none" version="1.1" width="128" height="80" viewBox="0 0 128 80"><defs><clipPath id="master_svg0_1_0"><rect x="0" y="0" width="128" height="80" rx="0"/></clipPath><clipPath id="master_svg1_1_5"><rect x="0" y="0" width="16" height="80" rx="0"/></clipPath><clipPath id="master_svg2_1_18"><rect x="3" y="3" width="10" height="10" rx="4"/></clipPath><clipPath id="master_svg3_1_27"><rect x="3" y="16" width="10" height="10" rx="4"/></clipPath><clipPath id="master_svg4_1_30"><rect x="3" y="29" width="10" height="10" rx="4"/></clipPath><clipPath id="master_svg5_1_6"><rect x="16" y="0" width="44" height="80" rx="0"/></clipPath><clipPath id="master_svg6_1_43"><rect x="19" y="3" width="30" height="5" rx="2.5"/></clipPath><clipPath id="master_svg7_1_71"><rect x="52" y="3" width="5" height="5" rx="2.5"/></clipPath><clipPath id="master_svg8_1_46"><rect x="19" y="11" width="17" height="3" rx="1.5"/></clipPath><clipPath id="master_svg9_1_52"><rect x="19" y="16" width="38" height="3" rx="1.5"/></clipPath><clipPath id="master_svga_1_58"><rect x="19" y="22" width="17" height="3" rx="1.5"/></clipPath><clipPath id="master_svgb_1_57"><rect x="19" y="27" width="38" height="3" rx="1.5"/></clipPath><clipPath id="master_svgc_1_63"><rect x="19" y="33" width="17" height="3" rx="1.5"/></clipPath><clipPath id="master_svgd_1_62"><rect x="19" y="38" width="38" height="3" rx="1.5"/></clipPath><clipPath id="master_svge_1_68"><rect x="19" y="44" width="17" height="3" rx="1.5"/></clipPath><clipPath id="master_svgf_1_67"><rect x="19" y="49" width="38" height="3" rx="1.5"/></clipPath><clipPath id="master_svgg_1_7"><rect x="60" y="0" width="68" height="80" rx="0"/></clipPath><clipPath id="master_svgh_1_77"><rect x="63" y="3" width="30" height="5" rx="2.5"/></clipPath><clipPath id="master_svgi_1_84"><rect x="63" y="11" width="62" height="66" rx="4"/></clipPath></defs><g clip-path="url(#master_svg0_1_0)"><rect x="0" y="0" width="128" height="80" rx="0" fill="#FFFFFF" fill-opacity="1"/><g clip-path="url(#master_svg1_1_5)"><rect x="0" y="0" width="16" height="80" rx="0" fill="#F3F3F3" fill-opacity="1"/><g clip-path="url(#master_svg2_1_18)"><rect x="3" y="3" width="10" height="10" rx="4" fill="#DCDCDC" fill-opacity="1"/></g><g clip-path="url(#master_svg3_1_27)"><rect x="3" y="16" width="10" height="10" rx="4" fill="#DCDCDC" fill-opacity="1"/></g><g clip-path="url(#master_svg4_1_30)"><rect x="3" y="29" width="10" height="10" rx="4" fill="#DCDCDC" fill-opacity="1"/></g></g><g clip-path="url(#master_svg5_1_6)"><g><g clip-path="url(#master_svg6_1_43)"><rect x="19" y="3" width="30" height="5" rx="2.5" fill="#EEEEEE" fill-opacity="1"/></g><g clip-path="url(#master_svg7_1_71)"><rect x="52" y="3" width="5" height="5" rx="2.5" fill="#EEEEEE" fill-opacity="1"/></g></g><g><g clip-path="url(#master_svg8_1_46)"><rect x="19" y="11" width="17" height="3" rx="1.5" fill="#EEEEEE" fill-opacity="1"/></g><g clip-path="url(#master_svg9_1_52)"><rect x="19" y="16" width="38" height="3" rx="1.5" fill="#EEEEEE" fill-opacity="1"/></g></g><g><g clip-path="url(#master_svga_1_58)"><rect x="19" y="22" width="17" height="3" rx="1.5" fill="#EEEEEE" fill-opacity="1"/></g><g clip-path="url(#master_svgb_1_57)"><rect x="19" y="27" width="38" height="3" rx="1.5" fill="#EEEEEE" fill-opacity="1"/></g></g><g><g clip-path="url(#master_svgc_1_63)"><rect x="19" y="33" width="17" height="3" rx="1.5" fill="#EEEEEE" fill-opacity="1"/></g><g clip-path="url(#master_svgd_1_62)"><rect x="19" y="38" width="38" height="3" rx="1.5" fill="#EEEEEE" fill-opacity="1"/></g></g><g><g clip-path="url(#master_svge_1_68)"><rect x="19" y="44" width="17" height="3" rx="1.5" fill="#EEEEEE" fill-opacity="1"/></g><g clip-path="url(#master_svgf_1_67)"><rect x="19" y="49" width="38" height="3" rx="1.5" fill="#EEEEEE" fill-opacity="1"/></g></g></g><g clip-path="url(#master_svgg_1_7)"><rect x="60" y="0" width="68" height="80" rx="0" fill="#EEEEEE" fill-opacity="1"/><g clip-path="url(#master_svgh_1_77)"><rect x="63" y="3" width="30" height="5" rx="2.5" fill="#DCDCDC" fill-opacity="1"/></g><g clip-path="url(#master_svgi_1_84)"><rect x="63" y="11" width="62" height="66" rx="4" fill="#DCDCDC" fill-opacity="1"/></g></g></g></svg>