<svg xmlns="http://www.w3.org/2000/svg" xmlns:xlink="http://www.w3.org/1999/xlink" fill="none" version="1.1" width="24" height="24" viewBox="0 0 24 24"><defs><clipPath id="master_svg0_8_99"><rect x="0" y="0" width="24" height="24" rx="0"/></clipPath></defs><g clip-path="url(#master_svg0_8_99)"><g><path d="M22.83761669921875,17.456296348571776C21.58131669921875,18.112546348571776,15.07511669921875,20.775046348571777,13.68761669921875,21.506296348571777C12.30011669921875,22.237596348571778,11.53131669921875,22.21879634857178,10.44381669921875,21.693796348571777C9.35633669921875,21.168796348571778,2.43758669921875,18.393796348571776,1.18133569921875,17.793796348571778C0.56258569921875,17.493796348571777,0.24383549921875,17.25004634857178,0.24383549921875,17.006296348571777L0.23211669921875,14.683616348571778L10.70631669921875,12.150046248571778L13.89381669921875,12.056296348571777L23.76021669921875,14.357866348571777L23.75631669921875,16.631296348571777C23.75631669921875,16.87504634857178,23.47511669921875,17.137546348571778,22.83761669921875,17.456296348571776Z" fill="#A41E11" fill-opacity="1"/></g><g><path d="M22.83755048828125,15.2197991015625C21.58135048828125,15.8760491015625,15.07505048828125,18.5385391015625,13.68755048828125,19.269799101562498C12.30005048828125,20.0010291015625,11.53135048828125,19.9823291015625,10.44385048828125,19.457299101562498C9.35631048828125,18.9322991015625,2.43755048828125,16.1385391015625,1.18130448828125,15.5385491015625C-0.05619551171874998,14.9385491015625,-0.09369551171875001,14.5260491015625,1.12505448828125,14.0572991015625C2.34380048828125,13.5697991015625,9.22506048828125,10.8697981015625,10.68755048828125,10.3635471015625C12.15005048828125,9.8385471015625,12.63755048828125,9.8197971015625,13.87505048828125,10.2697971015625C15.11255048828125,10.7197981015625,21.58135048828125,13.2885491015625,22.80005048828125,13.7385491015625C24.05635048828125,14.1885491015625,24.09385048828125,14.5635491015625,22.83755048828125,15.2197991015625Z" fill="#D82C20" fill-opacity="1"/></g><g><path d="M22.83759169921875,13.439829063415527C21.58129169921875,14.096079063415527,15.07509169921875,16.758579063415528,13.68759169921875,17.489829063415527C12.30009169921875,18.202379063415528,11.53129169921875,18.202379063415528,10.44379169921875,17.677329063415527C9.35634169921875,17.15232906341553,2.43758169921875,14.358579063415528,1.18133569921875,13.758579063415528C0.56258569921875,13.458579063415527,0.24383549921875,13.214829063415527,0.24383549921875,12.971079063415527L0.22039794921875,10.675739063415527L10.70629169921875,8.114828963415528L13.89379169921875,8.021079063415527Q22.54149169921875,9.872649063415528,23.76029169921875,10.322649063415527L23.75629169921875,12.596079063415527C23.75629169921875,12.839829063415527,23.47509169921875,13.102329063415528,22.83759169921875,13.439829063415527Z" fill="#A41E11" fill-opacity="1"/></g><g><path d="M22.837553515625,11.191112578125C21.581353515625,11.847362578125,15.075053515625,14.509862578125,13.687553515625,15.241112578125C12.300053515625,15.953642578125,11.531353515625,15.953642578125,10.443853515625,15.428612578125C9.356313515625,14.903612578125,2.437563515625,12.109862578125,1.1813165156249998,11.509862578125C-0.07493348437500003,10.909862578125,-0.09368348437500001,10.497362578125,1.125066515625,10.028612578125C2.343813515625,9.541112578125,9.225073515625,6.841110578125,10.687553515625,6.334860578125C12.150053515625,5.809860578125,12.637553515625,5.791110578125,13.875053515625,6.241110578125C15.112553515625,6.691110578125,21.581353515625,9.259862578125,22.800053515625,9.709862578125C24.056353515625,10.159862578125,24.093853515625,10.534862578125,22.837553515625,11.191112578125Z" fill="#D82C20" fill-opacity="1"/></g><g><path d="M22.83741455078125,9.41112985610962C21.58121455078125,10.06737985610962,15.07491455078125,12.729889856109619,13.68741455078125,13.461129856109618C12.29991455078125,14.173629856109619,11.53121455078125,14.173629856109619,10.44361455078125,13.648629856109618C9.35616455078125,13.142389856109618,2.43741455078125,10.34862985610962,1.18116455078125,9.74862985610962C0.56241455078125,9.44862985610962,0.22491455078125,9.204879856109619,0.22491455078125,8.961129856109618L0.22491455078125,6.712709856109619L7.34053455078125,4.976754856109619L10.68741455078125,4.104879956109619L13.87491455078125,4.011129856109619Q15.11241455078125,4.461129856109619,23.76481455078125,6.355669856109619L23.73741455078125,8.586129856109618C23.75611455078125,8.829879856109619,23.47491455078125,9.07362985610962,22.83741455078125,9.41112985610962Z" fill="#A41E11" fill-opacity="1"/></g><g><path d="M22.837553515625,7.181151640625C21.581353515625,7.837401640625,15.075053515625,10.499901640625,13.687553515625,11.231151640625C12.300053515625,11.943631640625,11.531353515625,11.943631640625,10.443853515625,11.418651640625C9.356313515625,10.893651640625,2.437563515625,8.118651640625,1.1813165156249998,7.518651640625C-0.07493348437500003,6.918651640625,-0.09368348437500001,6.506151640625,1.125066515625,6.037401640625C2.343813515625,5.549901640625,9.225073515625,2.849899640625,10.687553515625,2.343649640625C12.150053515625,1.818649640625,12.637553515625,1.799899640625,13.875053515625,2.249899640625C15.112553515625,2.699899640625,21.581353515625,5.268651640625,22.800053515625,5.718651640625C24.056353515625,6.168651640625,24.093853515625,6.543651640625,22.837553515625,7.181151640625Z" fill="#D82C20" fill-opacity="1"/></g><g><path d="M14.2421875,7.03125Q14.3046875,6.773438,14.3515675,6.65625Q14.3984375,6.539062,14.5546875,6.5L16.5781275,6.023438Q16.6718775,5.9921875,16.7812475,5.9921875Q16.8828075,5.9921875,16.9296875,6.0625Q16.9765675,6.132812,16.9765675,6.328125Q16.9296875,6.515625,16.8984375,6.902344Q16.8671875,7.28906,16.8515675,7.75Q16.8359375,8.21094,16.8281275,8.67578Q16.8203075,9.14063,16.8203075,9.48437L16.8203075,9.91406Q16.8203075,10.39844,16.8124975,10.96875Q16.8046875,11.53906,16.7929675,12.125Q16.7812475,12.71094,16.7656275,13.28125Q16.7499975,13.85156,16.7343775,14.35156L16.6874975,15.6875Q16.6796875,15.72656,16.6796875,15.75781Q16.6796875,15.78906,16.6796875,15.82031L16.6796875,15.93745Q16.6796875,16.070349999999998,16.683597499999998,16.16015Q16.6874975,16.25005,16.6874975,16.320349999999998Q16.6874975,16.39845,16.675777500000002,16.46095Q16.6640675,16.52345,16.6171875,16.582050000000002Q16.5703075,16.64065,16.488277500000002,16.70315Q16.4062475,16.76565,16.2656275,16.85935Q16.1874975,16.91405,16.0078075,17.019550000000002Q15.8281275,17.12505,15.6093775,17.257849999999998Q15.3906275,17.39065,15.1562475,17.53125Q14.9218775,17.67185,14.7265675,17.78515Q14.5312475,17.89845,14.4101575,17.96875Q14.2890675,18.03905,14.2890675,18.03905L10.6640675,12.46094L10.3359375,17.03125Q10.3281275,17.09375,10.3085975,17.16405Q10.2890675,17.23435,10.2031275,17.27345Q10.1328075,17.304650000000002,9.9609375,17.37105Q9.7890675,17.43745,9.5585975,17.52345Q9.3281275,17.60935,9.0742175,17.69925Q8.8203075,17.78905,8.5937495,17.86325Q8.3671875,17.93745,8.1914065,17.98435Q8.0156255,18.03125,7.9531255,18.03125Q7.8359375,18.03125,7.7578125,17.96875Q7.6796875,17.90625,7.6796875,17.742150000000002Q7.7578125,16.76565,7.8593755,15.61328Q7.9609375,14.46094,8.0546875,13.25Q8.1484375,12.03906,8.2304685,10.83203Q8.3124995,9.625,8.3671875,8.53906Q8.3671875,8.50781,8.2695315,8.33203Q8.1718755,8.15625,8.0507815,7.94922Q7.9296875,7.74219,7.8320315,7.55859Q7.734375,7.375,7.734375,7.32813Q7.734375,7.27344,7.7929685,7.22656Q7.8515625,7.17969,7.9843755,7.10156L10.0703075,5.921875Q10.0937475,5.921875,10.1367175,5.9140625Q10.1796875,5.90625,10.2109375,5.90625Q10.2968775,5.90625,10.3476575,5.9257812Q10.3984375,5.9453125,10.4531275,6.046875L14.2421875,12.88281L14.2421875,7.03125Z" fill="#FFFFFF" fill-opacity="1"/></g></g></svg>