<svg xmlns="http://www.w3.org/2000/svg" xmlns:xlink="http://www.w3.org/1999/xlink" fill="none" version="1.1" width="24" height="24" viewBox="0 0 24 24"><defs><clipPath id="master_svg0_44_869"><rect x="0" y="0" width="24" height="24" rx="0"/></clipPath></defs><g clip-path="url(#master_svg0_44_869)"><g><path d="M22.83761669921875,17.456296348571776C21.58131669921875,18.112546348571776,15.07511669921875,20.775046348571777,13.68761669921875,21.506296348571777C12.30011669921875,22.237596348571778,11.53131669921875,22.21879634857178,10.44381669921875,21.693796348571777C9.35633669921875,21.168796348571778,2.43758669921875,18.393796348571776,1.18133569921875,17.793796348571778C0.56258569921875,17.493796348571777,0.24383549921875,17.25004634857178,0.24383549921875,17.006296348571777L0.23211669921875,14.683616348571778L10.70631669921875,12.150046248571778L13.89381669921875,12.056296348571777L23.76021669921875,14.357866348571777L23.75631669921875,16.631296348571777C23.75631669921875,16.87504634857178,23.47511669921875,17.137546348571778,22.83761669921875,17.456296348571776Z" fill="#18181C" fill-opacity="1"/><path d="M13.89381669921875,12.056296348571777L23.76021669921875,14.357866348571777L23.75631669921875,16.631296348571777C23.75631669921875,16.87504634857178,23.47511669921875,17.137546348571778,22.83761669921875,17.456296348571776C21.58131669921875,18.112546348571776,15.07511669921875,20.775046348571777,13.68761669921875,21.506296348571777C12.30011669921875,22.237596348571778,11.53131669921875,22.21879634857178,10.44381669921875,21.693796348571777C9.35633669921875,21.168796348571778,2.43758669921875,18.393796348571776,1.18133569921875,17.793796348571778C0.56258569921875,17.493796348571777,0.24383549921875,17.25004634857178,0.24383549921875,17.006296348571777L0.23211669921875,14.683616348571778L10.70631669921875,12.150046248571778L13.89381669921875,12.056296348571777ZM22.70341669921875,17.187966348571777Q23.45631669921875,16.811506348571776,23.45631669921875,16.63077634857178L23.45981669921875,14.595846348571778L13.86361669921875,12.357313348571777L10.74641669921875,12.448996348571777L0.53330969921875,14.919416348571778L0.5438356992187501,17.006296348571777Q0.5438356992187501,17.15130634857178,1.31062669921875,17.523086348571777Q1.94205669921875,17.82466634857178,6.09347669921875,19.537166348571777Q10.03186669921875,21.161786348571777,10.57421669921875,21.42362634857178Q11.34641669921875,21.796396348571776,11.94061669921875,21.771406348571777Q12.59321669921875,21.74395634857178,13.54771669921875,21.240896348571777Q14.27761669921875,20.85619634857178,18.41011669921875,19.08460634857178Q22.10391669921875,17.501066348571776,22.69871669921875,17.190396348571777L22.70341669921875,17.187966348571777Z" fill-rule="evenodd" fill="#2D2D30" fill-opacity="1"/></g><g><path d="M22.83755048828125,15.2197991015625C21.58135048828125,15.8760491015625,15.07505048828125,18.5385391015625,13.68755048828125,19.269799101562498C12.30005048828125,20.0010291015625,11.53135048828125,19.9823291015625,10.44385048828125,19.457299101562498C9.35631048828125,18.9322991015625,2.43755048828125,16.1385391015625,1.18130448828125,15.5385491015625C-0.05619551171874998,14.9385491015625,-0.09369551171875001,14.5260491015625,1.12505448828125,14.0572991015625C2.34380048828125,13.5697991015625,9.22506048828125,10.8697981015625,10.68755048828125,10.3635471015625C12.15005048828125,9.8385471015625,12.63755048828125,9.8197971015625,13.87505048828125,10.2697971015625C15.11255048828125,10.7197981015625,21.58135048828125,13.2885491015625,22.80005048828125,13.7385491015625C24.05635048828125,14.1885491015625,24.09385048828125,14.5635491015625,22.83755048828125,15.2197991015625Z" fill="#18181C" fill-opacity="1"/><path d="M22.83755048828125,15.2197991015625C21.58135048828125,15.8760491015625,15.07505048828125,18.5385391015625,13.68755048828125,19.269799101562498C12.30005048828125,20.0010291015625,11.53135048828125,19.9823291015625,10.44385048828125,19.457299101562498C9.35631048828125,18.9322991015625,2.43755048828125,16.1385391015625,1.18130448828125,15.5385491015625C-0.05619551171874998,14.9385491015625,-0.09369551171875001,14.5260491015625,1.12505448828125,14.0572991015625C2.34380048828125,13.5697991015625,9.22506048828125,10.8697981015625,10.68755048828125,10.3635471015625C12.15005048828125,9.8385471015625,12.63755048828125,9.8197971015625,13.87505048828125,10.2697971015625C15.11255048828125,10.7197981015625,21.58135048828125,13.2885491015625,22.80005048828125,13.7385491015625C24.05635048828125,14.1885491015625,24.09385048828125,14.5635491015625,22.83755048828125,15.2197991015625ZM22.69865048828125,14.953889101562499Q23.46685048828125,14.5525991015625,23.46125048828125,14.4139391015625Q23.45635048828125,14.292299101562499,22.69615048828125,14.0199791015625Q22.11955048828125,13.8070791015625,18.57055048828125,12.4150691015625Q14.42365048828125,10.7884911015625,13.77255048828125,10.5517361015625Q12.90095048828125,10.2348021015625,12.37485048828125,10.2509071015625Q11.84395048828125,10.2671581015625,10.78565048828125,10.6470431015625Q8.35451048828125,11.4886191015625,1.23275048828125,14.3372991015625Q0.52555248828125,14.609299101562499,0.5317194882812499,14.733869101562501Q0.53964848828125,14.8940391015625,1.31060048828125,15.267839101562501Q1.94190048828125,15.5693491015625,6.08998048828125,17.2900891015625Q10.03174048828125,18.9252391015625,10.57425048828125,19.187129101562498Q11.34635048828125,19.5598991015625,11.94055048828125,19.534909101562498Q12.59315048828125,19.5074591015625,13.54765048828125,19.0043991015625Q14.27765048828125,18.6197091015625,18.41015048828125,16.8480891015625Q22.10395048828125,15.2645591015625,22.69865048828125,14.953889101562499Z" fill-rule="evenodd" fill="#2D2D30" fill-opacity="1"/></g><g><path d="M22.83759169921875,13.439829063415527C21.58129169921875,14.096079063415527,15.07509169921875,16.758579063415528,13.68759169921875,17.489829063415527C12.30009169921875,18.202379063415528,11.53129169921875,18.202379063415528,10.44379169921875,17.677329063415527C9.35634169921875,17.15232906341553,2.43758169921875,14.358579063415528,1.18133569921875,13.758579063415528C0.56258569921875,13.458579063415527,0.24383549921875,13.214829063415527,0.24383549921875,12.971079063415527L0.22039794921875,10.675739063415527L10.70629169921875,8.114828963415528L13.89379169921875,8.021079063415527Q22.54149169921875,9.872649063415528,23.76029169921875,10.322649063415527L23.75629169921875,12.596079063415527C23.75629169921875,12.839829063415527,23.47509169921875,13.102329063415528,22.83759169921875,13.439829063415527Z" fill="#18181C" fill-opacity="1"/><path d="M13.89379169921875,8.021079063415527Q22.54149169921875,9.872649063415528,23.76029169921875,10.322649063415527L23.75629169921875,12.596079063415527C23.75629169921875,12.839829063415527,23.47509169921875,13.102329063415528,22.83759169921875,13.439829063415527C21.58129169921875,14.096079063415527,15.07509169921875,16.758579063415528,13.68759169921875,17.489829063415527C12.30009169921875,18.202379063415528,11.53129169921875,18.202379063415528,10.44379169921875,17.677329063415527C9.35634169921875,17.15232906341553,2.43758169921875,14.358579063415528,1.18133569921875,13.758579063415528C0.56258569921875,13.458579063415527,0.24383549921875,13.214829063415527,0.24383549921875,12.971079063415527L0.22039794921875,10.675739063415527L10.70629169921875,8.114828963415528L13.89379169921875,8.021079063415527ZM22.69719169921875,13.174689063415528L22.69869169921875,13.173919063415529Q23.45629169921875,12.772639063415527,23.45629169921875,12.595559063415529L23.45989169921875,10.537679063415528Q21.87689169921875,10.037509063415527,13.86639169921875,8.322014063415528L10.74679169921875,8.413769063415527L0.52281069921875,10.910699063415528L0.5438356992187501,12.971079063415527Q0.5438356992187501,13.116089063415528,1.31063169921875,13.487869063415527Q1.94195169921875,13.789399063415527,6.09005169921875,15.510139063415528Q10.03175169921875,17.145269063415526,10.57429169921875,17.407169063415527Q11.33839169921875,17.776049063415527,11.93919169921875,17.747969063415525Q12.58709169921875,17.717699063415527,13.54769169921875,17.224439063415527Q14.27769169921875,16.839729063415525,18.41029169921875,15.068089063415528Q22.09939169921875,13.486549063415527,22.69719169921875,13.174689063415528Z" fill-rule="evenodd" fill="#2D2D30" fill-opacity="1"/></g><g><path d="M22.837553515625,11.191112578125C21.581353515625,11.847362578125,15.075053515625,14.509862578125,13.687553515625,15.241112578125C12.300053515625,15.953642578125,11.531353515625,15.953642578125,10.443853515625,15.428612578125C9.356313515625,14.903612578125,2.437563515625,12.109862578125,1.1813165156249998,11.509862578125C-0.07493348437500003,10.909862578125,-0.09368348437500001,10.497362578125,1.125066515625,10.028612578125C2.343813515625,9.541112578125,9.225073515625,6.841110578125,10.687553515625,6.334860578125C12.150053515625,5.809860578125,12.637553515625,5.791110578125,13.875053515625,6.241110578125C15.112553515625,6.691110578125,21.581353515625,9.259862578125,22.800053515625,9.709862578125C24.056353515625,10.159862578125,24.093853515625,10.534862578125,22.837553515625,11.191112578125Z" fill="#18181C" fill-opacity="1"/><path d="M22.837553515625,11.191112578125C21.581353515625,11.847362578125,15.075053515625,14.509862578125,13.687553515625,15.241112578125C12.300053515625,15.953642578125,11.531353515625,15.953642578125,10.443853515625,15.428612578125C9.356313515625,14.903612578125,2.437563515625,12.109862578125,1.1813165156249998,11.509862578125C-0.07493348437500003,10.909862578125,-0.09368348437500001,10.497362578125,1.125066515625,10.028612578125C2.343813515625,9.541112578125,9.225073515625,6.841110578125,10.687553515625,6.334860578125C12.150053515625,5.809860578125,12.637553515625,5.791110578125,13.875053515625,6.241110578125C15.112553515625,6.691110578125,21.581353515625,9.259862578125,22.800053515625,9.709862578125C24.056353515625,10.159862578125,24.093853515625,10.534862578125,22.837553515625,11.191112578125ZM22.698653515625,10.925212578124999Q23.466853515625,10.523912578125,23.461253515625,10.385252578125Q23.456353515625,10.263612578124999,22.696153515625,9.991292578125Q22.119653515625,9.778412578125,18.570553515625,8.386362578125Q14.423553515625,6.759791578125,13.772553515625,6.523048578125Q12.900953515625,6.206114578125,12.374853515625,6.222220578125Q11.844053515625,6.238470578125,10.785753515625,6.618356578125Q8.354913515625,7.459782578125,1.232763515625,10.308612578125Q0.519867515625,10.582802578125001,0.5248315156250001,10.708152578125Q0.531116515625,10.866862578125,1.310603515625,11.239152578125001Q1.941913515625,11.540682578125,6.089983515625,13.261402578125Q10.031773515625,14.896562578125,10.574253515625,15.158452578125Q11.338353515625,15.527332578125,11.939153515625,15.499252578125Q12.587053515625,15.468982578125,13.547653515625,14.975712578125Q14.277553515625,14.591022578125,18.410153515625,12.819402578125Q22.103953515625,11.235872578125,22.698653515625,10.925212578124999Z" fill-rule="evenodd" fill="#2D2D30" fill-opacity="1"/></g><g><path d="M22.83741455078125,9.41112985610962C21.58121455078125,10.06737985610962,15.07491455078125,12.729889856109619,13.68741455078125,13.461129856109618C12.29991455078125,14.173629856109619,11.53121455078125,14.173629856109619,10.44361455078125,13.648629856109618C9.35616455078125,13.142389856109618,2.43741455078125,10.34862985610962,1.18116455078125,9.74862985610962C0.56241455078125,9.44862985610962,0.22491455078125,9.204879856109619,0.22491455078125,8.961129856109618L0.22491455078125,6.712709856109619L7.34053455078125,4.976754856109619L10.68741455078125,4.104879956109619L13.87491455078125,4.011129856109619Q15.11241455078125,4.461129856109619,23.76481455078125,6.355669856109619L23.73741455078125,8.586129856109618C23.75611455078125,8.829879856109619,23.47491455078125,9.07362985610962,22.83741455078125,9.41112985610962Z" fill="#18181C" fill-opacity="1"/><path d="M23.76481455078125,6.355669856109619L23.73741455078125,8.586129856109618C23.75611455078125,8.829879856109619,23.47491455078125,9.07362985610962,22.83741455078125,9.41112985610962C21.58121455078125,10.06737985610962,15.07491455078125,12.729889856109619,13.68741455078125,13.461129856109618C12.29991455078125,14.173629856109619,11.53121455078125,14.173629856109619,10.44361455078125,13.648629856109618C9.35616455078125,13.142389856109618,2.43741455078125,10.34862985610962,1.18116455078125,9.74862985610962C0.56241455078125,9.44862985610962,0.22491455078125,9.204879856109619,0.22491455078125,8.961129856109618L0.22491455078125,6.712709856109619L7.34053455078125,4.976754856109619L10.68741455078125,4.104879956109619L13.87491455078125,4.011129856109619Q15.11241455078125,4.461129856109619,23.76481455078125,6.355669856109619ZM0.52491455078125,8.961129856109618L0.52491455078125,6.948319856109619L7.41164455078125,5.268209856109619L10.73021455078125,4.403751856109619L13.82771455078125,4.312647856109619Q15.18911455078125,4.7825588561096195,23.46181455078125,6.596409856109619L23.43731455078125,8.595809856109618L23.43831455078125,8.609129856109618Q23.44901455078125,8.74777985610962,22.69851455078125,9.14521985610962L22.69701455078125,9.145989856109619Q22.09921455078125,9.457849856109618,18.40991455078125,11.03946985610962Q14.27741455078125,12.811059856109619,13.54751455078125,13.195729856109619Q12.58691455078125,13.68899985610962,11.93901455078125,13.71926985610962Q11.33821455078125,13.747349856109619,10.57411455078125,13.37846985610962Q10.06858455078125,13.14310985610962,6.52383455078125,11.67719985610962Q1.98670455078125,9.80089985610962,1.31046455078125,9.477919856109619Q0.52491455078125,9.097049856109619,0.52491455078125,8.961129856109618Z" fill-rule="evenodd" fill="#2D2D30" fill-opacity="1"/></g><g><path d="M22.837553515625,7.181151640625C21.581353515625,7.837401640625,15.075053515625,10.499901640625,13.687553515625,11.231151640625C12.300053515625,11.943631640625,11.531353515625,11.943631640625,10.443853515625,11.418651640625C9.356313515625,10.893651640625,2.437563515625,8.118651640625,1.1813165156249998,7.518651640625C-0.07493348437500003,6.918651640625,-0.09368348437500001,6.506151640625,1.125066515625,6.037401640625C2.343813515625,5.549901640625,9.225073515625,2.849899640625,10.687553515625,2.343649640625C12.150053515625,1.818649640625,12.637553515625,1.799899640625,13.875053515625,2.249899640625C15.112553515625,2.699899640625,21.581353515625,5.268651640625,22.800053515625,5.718651640625C24.056353515625,6.168651640625,24.093853515625,6.543651640625,22.837553515625,7.181151640625Z" fill="#18181C" fill-opacity="1"/><path d="M22.837553515625,7.181151640625C21.581353515625,7.837401640625,15.075053515625,10.499901640625,13.687553515625,11.231151640625C12.300053515625,11.943631640625,11.531353515625,11.943631640625,10.443853515625,11.418651640625C9.356313515625,10.893651640625,2.437563515625,8.118651640625,1.1813165156249998,7.518651640625C-0.07493348437500003,6.918651640625,-0.09368348437500001,6.506151640625,1.125066515625,6.037401640625C2.343813515625,5.549901640625,9.225073515625,2.849899640625,10.687553515625,2.343649640625C12.150053515625,1.818649640625,12.637553515625,1.799899640625,13.875053515625,2.249899640625C15.112553515625,2.699899640625,21.581353515625,5.268651640625,22.800053515625,5.718651640625C24.056353515625,6.168651640625,24.093853515625,6.543651640625,22.837553515625,7.181151640625ZM22.701853515625,6.913631640625Q23.466753515625,6.525471640625,23.461253515625,6.391821640625Q23.456353515625,6.272411640625,22.696153515625,6.000081640625Q22.119553515625,5.787191640625,18.570553515625,4.395141640625Q14.423653515625,2.768606640625,13.772553515625,2.531837640625Q12.900953515625,2.214903640625,12.374853515625,2.231008640625Q11.844053515625,2.247259640625,10.785753515625,2.627145640625Q8.354653515625,3.468661640625,1.232763515625,6.317401640625Q0.519867515625,6.591591640625,0.5248315156250001,6.716931640625Q0.531117515625,6.875641640625,1.310603515625,7.247941640625Q1.942073515625,7.549541640625,6.093553515625,9.262061640625Q10.031863515625,10.886641640625,10.574253515625,11.148481640625Q11.338353515625,11.517371640625,11.939153515625,11.489291640625Q12.587053515625,11.459021640625,13.547653515625,10.965751640625Q14.277553515625,10.581071640625,18.410053515625,8.809481640625Q22.103953515625,7.225921640625,22.698653515625,6.915251640625L22.701853515625,6.913631640625Z" fill-rule="evenodd" fill="#2D2D30" fill-opacity="1"/></g><g><path d="M14.2421875,7.03125Q14.3046875,6.773438,14.3515675,6.65625Q14.3984375,6.539062,14.5546875,6.5L16.5781275,6.023438Q16.6718775,5.9921875,16.7812475,5.9921875Q16.8828075,5.9921875,16.9296875,6.0625Q16.9765675,6.132812,16.9765675,6.328125Q16.9296875,6.515625,16.8984375,6.902344Q16.8671875,7.28906,16.8515675,7.75Q16.8359375,8.21094,16.8281275,8.67578Q16.8203075,9.14063,16.8203075,9.48437L16.8203075,9.91406Q16.8203075,10.39844,16.8124975,10.96875Q16.8046875,11.53906,16.7929675,12.125Q16.7812475,12.71094,16.7656275,13.28125Q16.7499975,13.85156,16.7343775,14.35156L16.6874975,15.6875Q16.6796875,15.72656,16.6796875,15.75781Q16.6796875,15.78906,16.6796875,15.82031L16.6796875,15.93745Q16.6796875,16.070349999999998,16.683597499999998,16.16015Q16.6874975,16.25005,16.6874975,16.320349999999998Q16.6874975,16.39845,16.675777500000002,16.46095Q16.6640675,16.52345,16.6171875,16.582050000000002Q16.5703075,16.64065,16.488277500000002,16.70315Q16.4062475,16.76565,16.2656275,16.85935Q16.1874975,16.91405,16.0078075,17.019550000000002Q15.8281275,17.12505,15.6093775,17.257849999999998Q15.3906275,17.39065,15.1562475,17.53125Q14.9218775,17.67185,14.7265675,17.78515Q14.5312475,17.89845,14.4101575,17.96875Q14.2890675,18.03905,14.2890675,18.03905L10.6640675,12.46094L10.3359375,17.03125Q10.3281275,17.09375,10.3085975,17.16405Q10.2890675,17.23435,10.2031275,17.27345Q10.1328075,17.304650000000002,9.9609375,17.37105Q9.7890675,17.43745,9.5585975,17.52345Q9.3281275,17.60935,9.0742175,17.69925Q8.8203075,17.78905,8.5937495,17.86325Q8.3671875,17.93745,8.1914065,17.98435Q8.0156255,18.03125,7.9531255,18.03125Q7.8359375,18.03125,7.7578125,17.96875Q7.6796875,17.90625,7.6796875,17.742150000000002Q7.7578125,16.76565,7.8593755,15.61328Q7.9609375,14.46094,8.0546875,13.25Q8.1484375,12.03906,8.2304685,10.83203Q8.3124995,9.625,8.3671875,8.53906Q8.3671875,8.50781,8.2695315,8.33203Q8.1718755,8.15625,8.0507815,7.94922Q7.9296875,7.74219,7.8320315,7.55859Q7.734375,7.375,7.734375,7.32813Q7.734375,7.27344,7.7929685,7.22656Q7.8515625,7.17969,7.9843755,7.10156L10.0703075,5.921875Q10.0937475,5.921875,10.1367175,5.9140625Q10.1796875,5.90625,10.2109375,5.90625Q10.2968775,5.90625,10.3476575,5.9257812Q10.3984375,5.9453125,10.4531275,6.046875L14.2421875,12.88281L14.2421875,7.03125Z" fill="#101014" fill-opacity="1"/><path d="M14.5546875,6.5L16.5781275,6.023438Q16.6718775,5.9921875,16.7812475,5.9921875Q16.8828075,5.9921875,16.9296875,6.0625Q16.9765675,6.132812,16.9765675,6.328125Q16.9296875,6.515625,16.8984375,6.902344Q16.8671875,7.28906,16.8515675,7.75Q16.8359375,8.21094,16.8281275,8.67578Q16.8203075,9.14063,16.8203075,9.48437L16.8203075,9.91406Q16.8203075,10.39844,16.8124975,10.96875Q16.8046875,11.53906,16.7929675,12.125Q16.7812475,12.71094,16.7656275,13.28125Q16.7499975,13.85156,16.7343775,14.35156L16.6874975,15.6875Q16.6796875,15.72656,16.6796875,15.75781L16.6796875,15.93745Q16.6796875,16.070349999999998,16.683597499999998,16.16015Q16.6874975,16.25005,16.6874975,16.320349999999998Q16.6874975,16.39845,16.675777500000002,16.46095Q16.6640675,16.52345,16.6171875,16.582050000000002Q16.5703075,16.64065,16.488277500000002,16.70315Q16.4062475,16.76565,16.2656275,16.85935Q16.1874975,16.91405,16.0078075,17.019550000000002Q15.8281275,17.12505,15.6093775,17.257849999999998Q15.3906275,17.39065,15.1562475,17.53125Q14.9218775,17.67185,14.7265675,17.78515Q14.5312475,17.89845,14.4101575,17.96875L14.2890675,18.03905L10.9349075,12.87772L10.6640675,12.46094L10.6284675,12.95672L10.3359375,17.03125Q10.3281275,17.09375,10.3085975,17.16405Q10.2890675,17.23435,10.2031275,17.27345Q10.1328075,17.304650000000002,9.9609375,17.37105Q9.7890675,17.43745,9.5585975,17.52345Q9.3281275,17.60935,9.0742175,17.69925Q8.8203075,17.78905,8.5937495,17.86325Q8.3671875,17.93745,8.1914065,17.98435Q8.0156255,18.03125,7.9531255,18.03125Q7.8359375,18.03125,7.7578125,17.96875Q7.6796875,17.90625,7.6796875,17.742150000000002Q7.7578125,16.76565,7.8593755,15.61328Q7.9609375,14.46094,8.0546875,13.25Q8.1484375,12.03906,8.2304685,10.83203Q8.3124995,9.625,8.3671875,8.53906Q8.3671875,8.50781,8.2695315,8.33203Q8.1718755,8.15625,8.0507815,7.94922Q7.9296875,7.74219,7.8320315,7.55859Q7.734375,7.375,7.734375,7.32813Q7.734375,7.27344,7.7929685,7.22656Q7.8515625,7.17969,7.9843755,7.10156L10.0703075,5.921875Q10.0937475,5.921875,10.1367175,5.9140625Q10.1796875,5.90625,10.2109375,5.90625Q10.2968775,5.90625,10.3476575,5.9257812Q10.3984375,5.9453125,10.4531275,6.046875L13.9421875,12.34158L14.2421875,12.88281L14.2421875,7.03125Q14.3046875,6.773438,14.3515675,6.65625Q14.3984375,6.539062,14.5546875,6.5ZM16.6729975,6.308042L16.6733475,6.307926Q16.6287375,6.515267,16.599407499999998,6.87818Q16.567597499999998,7.2719000000000005,16.5517375,7.73984Q16.5360175,8.20337,16.528167500000002,8.67074Q16.5203075,9.13815,16.5203075,9.48437L16.5203075,9.91406Q16.5203075,10.39644,16.512527499999997,10.96464L16.493007499999997,12.11993L16.4657075,13.27416L16.434507500000002,14.34281L16.388437500000002,15.65552Q16.3796875,15.70899,16.3796875,15.75781L16.3796875,15.93745Q16.3796875,16.07685,16.3838775,16.17315Q16.387497500000002,16.25655,16.387497500000002,16.320349999999998Q16.387497500000002,16.36305,16.3827275,16.394849999999998Q16.3589075,16.42455,16.3064675,16.46445Q16.2319675,16.521250000000002,16.0992175,16.60975L16.0963775,16.611649999999997L16.093587499999998,16.61365Q16.0252975,16.661450000000002,15.8559475,16.760849999999998Q15.674367499999999,16.867350000000002,15.453677500000001,17.001350000000002L15.0012475,17.27435Q14.7693975,17.41355,14.5760475,17.52565L14.3851675,17.63645L10.4288075,11.54838L10.0373475,17.00085Q10.036077500000001,17.00995,10.0344075,17.01935Q9.9696275,17.04615,9.8528175,17.091250000000002Q9.6825475,17.157049999999998,9.4537775,17.242350000000002Q9.2257075,17.32735,8.9741475,17.416449999999998Q8.7235475,17.50505,8.5003575,17.57815Q8.2817795,17.649749999999997,8.1141075,17.69455Q8.0230455,17.71875,7.9820345,17.72705L8.1583125,15.63851Q8.2599185,14.4857,8.3537925,13.27316Q8.4476515,12.06081,8.5297785,10.85237Q8.6119885,9.642710000000001,8.6668075,8.55415L8.6671875,8.54661L8.6671875,8.53906Q8.6671875,8.43007,8.5317785,8.18634Q8.4325075,8.00765,8.3097375,7.79775Q8.1917035,7.59595,8.0968925,7.41771Q8.0897905,7.4043600000000005,8.0833375,7.39197Q8.1075955,7.37713,8.1364815,7.3601399999999995L10.1636875,6.213721Q10.176657500000001,6.211718,10.1903875,6.209223Q10.1954075,6.208311,10.1992775,6.207678L14.5421875,14.04287L14.5421875,7.0674399999999995Q14.5940875,6.857713,14.630107500000001,6.767667L14.627447499999999,6.791043L16.6601175,6.312336L16.6729975,6.308042Z" fill-rule="evenodd" fill="#2D2D30" fill-opacity="1"/></g></g></svg>