<svg xmlns="http://www.w3.org/2000/svg" xmlns:xlink="http://www.w3.org/1999/xlink" fill="none" version="1.1" width="133.0999755859375" height="120" viewBox="0 0 133.0999755859375 120"><g><g><path d="M130.51800041198732,60Q130.51800041198732,61.4484,130.4460004119873,62.895Q130.3750004119873,64.3416,130.23200041198731,65.783Q130.08900041198729,67.2244,129.8750004119873,68.6571Q129.6610004119873,70.0898,129.3770004119873,71.5103Q129.0920004119873,72.9309,128.7380004119873,74.3358Q128.3840004119873,75.7408,127.96000041198731,77.1268Q127.53700041198731,78.5128,127.04600041198731,79.8765Q126.5540004119873,81.2402,125.99600041198731,82.5783Q125.4380004119873,83.9164,124.8150004119873,85.2257Q124.1910004119873,86.535,123.5040004119873,87.8124Q122.81700041198731,89.0897,122.06700041198731,90.332Q121.31700041198731,91.5744,120.5070004119873,92.7786Q119.6970004119873,93.9829,118.82900041198731,95.1463Q117.96000041198731,96.3096,117.0350004119873,97.4292Q116.1100004119873,98.5488,115.13000041198731,99.622Q114.15100041198731,100.6951,113.1200004119873,101.719Q112.0890004119873,102.743,111.0086004119873,103.716Q109.9282004119873,104.689,108.8010004119873,105.608Q107.6738004119873,106.526,106.5025004119873,107.389Q105.3313004119873,108.252,104.1189004119873,109.057Q102.9064004119873,109.861,101.65570041198731,110.606Q100.4050004119873,111.351,99.1190004119873,112.033Q97.8330004119873,112.716,96.51480041198731,113.335Q95.1966004119873,113.955,93.8494004119873,114.509Q92.5022004119873,115.063,91.1292004119873,115.551Q89.75630041198731,116.039,88.3609004119873,116.459Q86.9655004119873,116.88,85.5510004119873,117.232Q84.1365004119873,117.584,82.7064004119873,117.866Q81.2762004119873,118.149,79.8338004119873,118.361Q78.3914004119873,118.574,76.9402004119873,118.716Q75.4891004119873,118.858,74.0326004119873,118.929Q72.5762004119873,119,71.11800041198731,119Q69.6598004119873,119,68.2034004119873,118.929Q66.7469004119873,118.858,65.2958004119873,118.716Q63.84460041198731,118.574,62.4022004119873,118.361Q60.9598004119873,118.149,59.5296004119873,117.866Q58.09950041198731,117.584,56.6850004119873,117.232Q55.27050041198731,116.88,53.875100411987304,116.459Q52.4797004119873,116.039,51.106700411987305,115.551Q49.7338004119873,115.063,48.3866004119873,114.509Q47.0394004119873,113.955,45.721200411987304,113.335Q44.40300041198731,112.716,43.117000411987306,112.033Q41.831000411987304,111.351,40.58030041198731,110.606Q39.3296004119873,109.861,38.11710041198731,109.057Q36.90470041198731,108.252,35.73350041198731,107.389Q34.562200411987305,106.526,33.4350004119873,105.608Q32.3078004119873,104.689,31.227400411987304,103.716Q30.147000411987303,102.743,29.115900411987305,101.719Q28.084800411987306,100.6951,27.105500411987304,99.622Q26.126200411987305,98.5488,25.201200411987305,97.4292Q24.276100411987304,96.3096,23.407500411987307,95.1463Q22.538800411987303,93.9829,21.728700411987305,92.7786Q20.918580411987307,91.5744,20.168920411987305,90.332Q19.419260411987306,89.0897,18.731880411987305,87.8124Q18.044490411987304,86.535,17.421030411987303,85.2257Q16.797580411987305,83.9164,16.239550411987306,82.5783Q15.681530411987305,81.2402,15.190280411987304,79.8765Q14.699030411987305,78.5128,14.275740411987304,77.1268Q13.852450411987306,75.7408,13.498140411987304,74.3358Q13.143830411987304,72.9309,12.859350411987304,71.5103Q12.574876411987304,70.0898,12.360915411987305,68.6571Q12.146955411987305,67.2244,12.004027411987305,65.783Q11.861100411987305,64.3416,11.789550311987306,62.895Q11.718000411987305,61.4484,11.718000411987305,60Q11.718000411987305,58.5516,11.789550311987306,57.105Q11.861100411987305,55.6584,12.004027411987305,54.217Q12.146955411987305,52.7756,12.360915411987305,51.3429Q12.574876411987304,49.9102,12.859350411987304,48.4897Q13.143830411987304,47.0691,13.498140411987304,45.6642Q13.852450411987306,44.2592,14.275740411987304,42.8732Q14.699030411987305,41.4872,15.190280411987304,40.1235Q15.681530411987305,38.7598,16.239550411987306,37.4217Q16.797580411987305,36.0836,17.421030411987303,34.7742Q18.044490411987304,33.4649,18.731880411987305,32.1876Q19.419260411987306,30.9102,20.168920411987305,29.6679Q20.918580411987307,28.4256,21.728700411987305,27.2214Q22.538800411987303,26.0171,23.407500411987307,24.8537Q24.276100411987304,23.6904,25.201200411987305,22.5708Q26.126200411987305,21.4512,27.105500411987304,20.378Q28.084800411987306,19.3048,29.115900411987305,18.2807Q30.147000411987303,17.2565,31.227400411987304,16.2839Q32.3078004119873,15.3112,33.4350004119873,14.3924Q34.562200411987305,13.4735,35.73350041198731,12.6108Q36.90470041198731,11.748,38.11710041198731,10.94329Q39.3296004119873,10.13862,40.58030041198731,9.39401Q41.831000411987304,8.6494,43.117000411987306,7.96665Q44.40300041198731,7.28389,45.721200411987304,6.66463Q47.0394004119873,6.04537,48.3866004119873,5.49111Q49.7338004119873,4.93684,51.106700411987305,4.4489Q52.4797004119873,3.96096,53.875100411987304,3.54052Q55.27050041198731,3.12008,56.6850004119873,2.76816Q58.09950041198731,2.41623,59.5296004119873,2.13367Q60.9598004119873,1.8511060000000001,62.4022004119873,1.638586Q63.84460041198731,1.426066,65.2958004119873,1.284101Q66.7469004119873,1.142136,68.2034004119873,1.0710681Q69.6598004119873,1,71.11800041198731,1Q72.5762004119873,1,74.0326004119873,1.0710681Q75.4891004119873,1.142136,76.9402004119873,1.284101Q78.3914004119873,1.426066,79.8338004119873,1.638586Q81.2762004119873,1.8511060000000001,82.7064004119873,2.13367Q84.1365004119873,2.41623,85.5510004119873,2.76816Q86.9655004119873,3.12008,88.3609004119873,3.54052Q89.75630041198731,3.96096,91.1292004119873,4.4489Q92.5022004119873,4.93684,93.8494004119873,5.49111Q95.1966004119873,6.04537,96.51480041198731,6.66463Q97.8330004119873,7.28389,99.1190004119873,7.96664Q100.4050004119873,8.6494,101.65570041198731,9.39401Q102.9064004119873,10.13862,104.1189004119873,10.94329Q105.3313004119873,11.748,106.5025004119873,12.6108Q107.6737004119873,13.4735,108.8010004119873,14.3924Q109.9281004119873,15.3112,111.0086004119873,16.2839Q112.0890004119873,17.2565,113.1200004119873,18.2807Q114.15100041198731,19.3048,115.13000041198731,20.378Q116.1100004119873,21.4512,117.0350004119873,22.5708Q117.96000041198731,23.6904,118.82900041198731,24.8537Q119.6970004119873,26.0171,120.5070004119873,27.2214Q121.31700041198731,28.4256,122.06700041198731,29.6679Q122.81700041198731,30.9102,123.5040004119873,32.1876Q124.1910004119873,33.4649,124.8150004119873,34.7742Q125.4380004119873,36.0836,125.99600041198731,37.4217Q126.5540004119873,38.7598,127.04600041198731,40.1235Q127.53700041198731,41.4872,127.96000041198731,42.8732Q128.3840004119873,44.2592,128.7380004119873,45.6642Q129.0920004119873,47.0691,129.3770004119873,48.4897Q129.6610004119873,49.9102,129.8750004119873,51.3429Q130.08900041198729,52.7756,130.23200041198731,54.217Q130.3750004119873,55.6584,130.4460004119873,57.105Q130.51800041198732,58.5516,130.51800041198732,60Z" fill="#EEEEEE" fill-opacity="1"/><path d="M126.7690004119873,83.3637Q131.51800041198732,72.2127,131.51800041198732,60Q131.51800041198732,47.7873,126.7690004119873,36.6363Q122.18300041198731,25.868,113.82300041198731,17.5654Q105.46340041198731,9.26457,94.62400041198731,4.71238Q83.40310041198731,0.000004000000000004,71.11800041198731,0.000004000000000004Q58.8329004119873,0,47.6120004119873,4.71238Q36.77250041198731,9.26461,28.413400411987304,17.5654Q20.052370411987305,25.8681,15.466700411987304,36.6363Q10.718000411987305,47.7874,10.718000411987305,60Q10.718000411987305,72.2126,15.466700411987304,83.3637Q20.052340411987302,94.1318,28.413400411987304,102.435Q36.77250041198731,110.735,47.6120004119873,115.288Q58.83280041198731,120,71.11800041198731,120Q83.40310041198731,120,94.62400041198731,115.288Q105.46350041198731,110.735,113.82300041198731,102.435Q122.1840004119873,94.132,126.7690004119873,83.3637ZM124.9290004119873,37.4199Q129.51800041198732,48.1954,129.51800041198732,60Q129.51800041198732,71.8046,124.9290004119873,82.5801Q120.4970004119873,92.9885,112.4130004119873,101.015Q104.33030041198731,109.042,93.84950041198731,113.444Q83.00020041198731,118,71.11800041198731,118Q59.235800411987306,118,48.386500411987306,113.444Q37.90560041198731,109.042,29.822600411987306,101.015Q21.739200411987305,92.9883,17.306800411987304,82.5801Q12.718000411987305,71.8044,12.717996411987304,60Q12.717996411987304,48.1955,17.306800411987304,37.4199Q21.739200411987305,27.0116,29.822600411987306,18.9846Q37.905700411987304,10.95794,48.386500411987306,6.55637Q59.235800411987306,2,71.11800041198731,2Q83.0001004119873,2,93.84950041198731,6.55637Q104.33030041198731,10.95789,112.4130004119873,18.9846Q120.4970004119873,27.0115,124.9290004119873,37.4199Z" fill-rule="evenodd" fill="#DDDDDD" fill-opacity="1"/></g><g><path d="M116.61800079345703,52.29999980926514L116.61800079345703,88.39999980926514C116.61800079345703,95.89999980926514,110.51800079345703,101.99999980926513,102.91800079345703,101.99999980926513L39.518000793457034,101.99999980926513C32.018000793457034,101.99999980926513,25.918000793457033,95.99999980926513,25.81800079345703,88.49999980926513C25.81800079345703,88.39999980926514,25.81800079345703,88.39999980926514,25.81800079345703,88.29999980926513L25.81800079345703,52.29999980926514C25.81800079345703,52.19999980926514,25.81800079345703,52.19999980926514,25.81800079345703,52.099999809265135C25.81800079345703,51.89999980926514,25.81800079345703,51.69999980926514,25.918000793457033,51.499999809265134C26.01800079345703,51.19999980926514,26.118000793457032,50.999999809265134,26.21800079345703,50.69999980926514L43.21800079345703,18.199999809265137C43.81800079345703,16.899999809265136,45.11800079345703,16.199999809265137,46.518000793457034,16.199999809265137L95.81800079345703,16.199999809265137C97.21800079345704,16.199999809265137,98.41800079345703,16.899999809265136,99.11800079345703,18.199999809265137L116.11800079345703,50.69999980926514C116.21800079345704,50.89999980926514,116.31800079345703,51.19999980926514,116.41800079345703,51.499999809265134C116.61800079345703,51.69999980926514,116.61800079345703,51.999999809265134,116.61800079345703,52.29999980926514Z" fill="#E8E8E8" fill-opacity="1"/><path d="M116.46660079345703,94.07989980926514Q117.61800079345703,91.36809980926513,117.61800079345703,88.39999980926514L117.61800079345703,52.29999980926514Q117.61800079345703,51.50419980926514,117.31450079345703,51.029399809265136Q117.12740079345703,50.48279980926514,117.00410079345703,50.23649980926513L99.99850079345703,17.725899809265137Q99.34710079345703,16.516296809265135,98.24500079345704,15.855006809265136Q97.15330079345703,15.199999809265137,95.81800079345703,15.199999809265137L46.518000793457034,15.199999809265137Q45.169300793457026,15.199999809265137,44.06180079345703,15.850083809265136Q42.89280079345703,16.536226809265138,42.321100793457035,17.757139809265137L25.29469979345703,50.307599809265135L25.26931779345703,50.383799809265135Q25.22861979345703,50.50589980926514,25.13952379345703,50.728599809265134Q25.04471579345703,50.965599809265136,24.98761779345703,51.129999809265136Q24.81800079345703,51.52219980926514,24.81800079345703,52.099999809265135L24.81800079345703,88.39999980926514L24.81809079345703,88.51329980926513Q24.85761779345703,91.47789980926514,26.029055793457033,94.17219980926514Q27.16084079345703,96.77529980926514,29.19131079345703,98.77499980926514Q31.220920793457033,100.77389980926513,33.84213079345703,101.86809980926513Q36.55340079345703,102.99999980926513,39.518000793457034,102.99999980926513L102.91800079345703,102.99999980926513Q105.91800079345703,102.99999980926513,108.65210079345704,101.85169980926514Q111.29120079345704,100.74329980926514,113.32330079345704,98.72139980926514Q115.35350079345703,96.70149980926513,116.46660079345703,94.07989980926514ZM115.61800079345703,52.29999980926514L115.61800079345703,88.39999980926514Q115.61800079345703,90.96109980926514,114.62570079345703,93.29819980926514Q113.66550079345703,95.55969980926514,111.91270079345703,97.30359980926514Q110.15710079345703,99.05029980926514,107.87760079345703,100.00769980926513Q105.51500079345703,100.99999980926513,102.91800079345703,100.99999980926513L39.518000793457034,100.99999980926513Q36.95410079345703,100.99999980926513,34.61262079345703,100.02249980926514Q32.34858079345703,99.07729980926514,30.594690793457033,97.34999980926514Q28.84042079345703,95.62229980926514,27.863200793457032,93.37469980926514Q26.85208079345703,91.04909980926514,26.81791279345703,88.48669980926513L26.81800079345703,88.39999980926514L26.81800079345703,52.099999809265135Q26.81800079345703,51.96779980926514,26.82240079345703,51.927299809265136L26.84421079345703,51.883599809265135L26.866680793457032,51.816199809265136Q26.907390793457033,51.69409980926514,26.99648079345703,51.47139980926514Q27.08368079345703,51.25339980926514,27.13897079345703,51.096799809265136L44.115600793457034,18.641549809265136L44.12600079345703,18.61905980926514Q44.43460079345703,17.950329809265135,45.07420079345703,17.574919809265136Q45.71290079345703,17.199999809265137,46.518000793457034,17.199999809265137L95.81800079345703,17.199999809265137Q97.44380079345703,17.199999809265137,98.23750079345703,18.674099809265137L115.23190079345703,51.16349980926514Q115.29180079345703,51.28369980926514,115.46930079345704,51.816199809265136L115.54400079345703,52.04019980926514L115.61500079345703,52.111299809265134Q115.61800079345703,52.178799809265136,115.61800079345703,52.29999980926514Z" fill-rule="evenodd" fill="#DDDDDD" fill-opacity="1"/></g><g><path d="M84.21800155639649,52.6L58.518001556396484,52.6C57.41800155639648,52.6,56.518001556396484,51.8,56.518001556396484,50.6L56.518001556396484,15.5C56.518001556396484,14.4,57.31800155639648,13.5,58.518001556396484,13.5L84.11800155639648,13.5C85.21800155639649,13.5,86.11800155639648,14.3,86.11800155639648,15.5L86.11800155639648,50.6C86.11800155639648,51.7,85.31800155639648,52.6,84.21800155639649,52.6Z" fill="#FFFFFF" fill-opacity="1"/><path d="M86.31240155639648,52.6939Q87.11800155639648,51.8286,87.11800155639648,50.6L87.11800155639648,15.5Q87.11800155639648,14.192712,86.22510155639648,13.330599Q85.36480155639649,12.5,84.11800155639648,12.5L58.518001556396484,12.5Q57.21071555639649,12.5,56.348600556396484,13.392905Q55.518001556396484,14.253168,55.518001556396484,15.5L55.518001556396484,50.6Q55.518001556396484,51.9073,56.41090655639648,52.7694Q57.271167556396485,53.6,58.518001556396484,53.6L84.21800155639649,53.6Q85.46880155639649,53.6,86.31240155639648,52.6939ZM85.11800155639648,15.5L85.11800155639648,50.6Q85.11800155639648,51.0417,84.84860155639649,51.3311Q84.59820155639649,51.6,84.21800155639649,51.6L58.518001556396484,51.6Q58.07912155639649,51.6,57.80009155639648,51.3306Q57.518001556396484,51.0582,57.518001556396484,50.6L57.518001556396484,15.5Q57.518001556396484,15.06112,57.78740155639648,14.78209Q58.059771556396484,14.5,58.518001556396484,14.5L84.11800155639648,14.5Q84.55690155639648,14.5,84.8359015563965,14.769400000000001Q85.11800155639648,15.04177,85.11800155639648,15.5Z" fill-rule="evenodd" fill="#DDDDDD" fill-opacity="1"/></g><g><path d="M92.71800155639649,60.89999923706055L50.018001556396484,60.89999923706055C48.618001556396486,60.89999923706055,47.518001556396484,59.699999237060545,47.518001556396484,58.39999923706055L47.518001556396484,24.299999237060547C47.518001556396484,22.89999923706055,48.71800155639649,21.799999237060547,50.018001556396484,21.799999237060547L92.71800155639649,21.799999237060547C94.11800155639648,21.799999237060547,95.21800155639649,22.999999237060546,95.21800155639649,24.299999237060547L95.21800155639649,58.39999923706055C95.11800155639648,59.79999923706055,94.11800155639648,60.89999923706055,92.71800155639649,60.89999923706055Z" fill="#FFFFFF" fill-opacity="1"/><path d="M95.17250155639648,60.872099237060546Q96.11310155639649,59.904599237060545,96.21550155639648,58.471199237060546L96.21800155639649,58.43569923706055L96.21800155639649,24.299999237060547Q96.21800155639649,22.901429237060547,95.20970155639648,21.865144037060546Q94.17340155639648,20.799999237060547,92.71800155639649,20.799999237060547L50.018001556396484,20.799999237060547Q48.619431556396485,20.799999237060547,47.58314665639649,21.808273437060546Q46.518001556396484,22.84462923706055,46.518001556396484,24.299999237060547L46.518001556396484,58.39999923706055Q46.518001556396484,59.79859923706055,47.52627605639648,60.83489923706055Q48.56263155639648,61.89999923706055,50.018001556396484,61.89999923706055L92.71800155639649,61.89999923706055Q94.17310155639649,61.89999923706055,95.17250155639648,60.872099237060546ZM94.21800155639649,58.36129923706055L94.21800155639649,24.299999237060547Q94.21800155639649,23.713849237060547,93.77630155639648,23.259859237060546Q93.32880155639648,22.799999237060547,92.71800155639649,22.799999237060547L50.018001556396484,22.799999237060547Q49.43185155639648,22.799999237060547,48.97786155639648,23.241729237060547Q48.518001556396484,23.689149237060548,48.518001556396484,24.299999237060547L48.518001556396484,58.39999923706055Q48.518001556396484,58.98609923706055,48.959731556396484,59.440099237060544Q49.407151556396485,59.89999923706055,50.018001556396484,59.89999923706055L92.71800155639649,59.89999923706055Q93.3282015563965,59.89999923706055,93.73850155639649,59.47789923706055Q94.16020155639649,59.044199237060546,94.21800155639649,58.36129923706055Z" fill-rule="evenodd" fill="#DDDDDD" fill-opacity="1"/></g><g><path d="M97.61799926757813,70.60000038146973L45.21799926757812,70.60000038146973C43.71799926757812,70.60000038146973,42.417999267578125,69.30000038146973,42.417999267578125,67.90000038146972L42.417999267578125,34.30000038146973C42.417999267578125,32.80000038146973,43.71799926757812,31.600000381469727,45.21799926757812,31.600000381469727L97.61799926757813,31.600000381469727C99.11799926757813,31.600000381469727,100.41799926757812,32.900000381469724,100.41799926757812,34.30000038146973L100.41799926757812,67.80000038146973C100.31799926757813,69.40000038146972,99.11799926757813,70.60000038146973,97.61799926757813,70.60000038146973Z" fill="#FFFFFF" fill-opacity="1"/><path d="M100.25009926757812,70.50710038146973Q101.31749926757813,69.43970038146972,101.41609926757812,67.86240038146973L101.41799926757812,67.83120038146973L101.41799926757812,34.30000038146973Q101.41799926757812,32.82061038146973,100.27879926757812,31.709218381469725Q99.14189926757813,30.600000381469727,97.61799926757813,30.600000381469727L45.21799926757812,30.600000381469727Q43.683739267578126,30.600000381469727,42.566285267578124,31.662942381469726Q41.417999267578125,32.75521038146972,41.417999267578125,34.30000038146973L41.417999267578125,67.90000038146972Q41.417999267578125,69.37940038146974,42.557175267578124,70.49080038146973Q43.69412926757813,71.60000038146973,45.21799926757812,71.60000038146973L97.61799926757813,71.60000038146973Q99.15719926757812,71.60000038146973,100.25009926757812,70.50710038146973ZM99.41799926757812,67.76630038146973L99.41799926757812,34.30000038146973Q99.41799926757812,33.66354038146973,98.88219926757813,33.140780381469725Q98.32789926757812,32.60000038146973,97.61799926757813,32.60000038146973L45.21799926757812,32.60000038146973Q44.483029267578125,32.60000038146973,43.944709267578126,33.112060381469725Q43.417999267578125,33.61308038146973,43.417999267578125,34.30000038146973L43.417999267578125,67.90000038146972Q43.417999267578125,68.53650038146972,43.953819267578126,69.05920038146974Q44.50812926757813,69.60000038146973,45.21799926757812,69.60000038146973L97.61799926757813,69.60000038146973Q98.32879926757812,69.60000038146973,98.83589926757813,69.09290038146972Q99.35919926757813,68.56960038146973,99.41799926757812,67.76630038146973Z" fill-rule="evenodd" fill="#DDDDDD" fill-opacity="1"/></g><g><path d="M102.91799926757812,79.9999984741211L39.917999267578125,79.9999984741211C38.21799926757812,79.9999984741211,36.917999267578125,78.5999984741211,36.917999267578125,77.0999984741211L36.917999267578125,43.99999847412109C36.917999267578125,42.2999984741211,38.317999267578124,41.099998474121094,39.917999267578125,41.099998474121094L102.91799926757812,41.099998474121094C104.61799926757813,41.099998474121094,105.91799926757812,42.49999847412109,105.91799926757812,43.99999847412109L105.91799926757812,76.9999984741211C105.81799926757813,78.69999847412109,104.61799926757813,79.9999984741211,102.91799926757812,79.9999984741211Z" fill="#FFFFFF" fill-opacity="1"/><path d="M105.73339926757812,79.83619847412109Q106.81819926757812,78.72559847412109,106.91629926757813,77.05869847412109L106.91799926757812,77.0293984741211L106.91799926757812,43.99999847412109Q106.91799926757812,42.4357884741211,105.76259926757812,41.280391474121096Q104.58219926757812,40.099998474121094,102.91799926757812,40.099998474121094L39.917999267578125,40.099998474121094Q38.29625926757812,40.099998474121094,37.136273267578126,41.18089057412109Q35.917999267578125,42.31609847412109,35.917999267578125,43.99999847412109L35.917999267578125,77.0999984741211Q35.917999267578125,78.6641984741211,37.07339226757812,79.8195984741211Q38.253779267578125,80.9999984741211,39.917999267578125,80.9999984741211L102.91799926757812,80.9999984741211Q104.59669926757813,80.9999984741211,105.73339926757812,79.83619847412109ZM104.91799926757812,76.9685984741211L104.91799926757812,43.99999847412109Q104.91799926757812,43.264218474121094,104.34839926757813,42.6946084741211Q103.75379926757813,42.099998474121094,102.91799926757812,42.099998474121094L39.917999267578125,42.099998474121094Q39.083649267578124,42.099998474121094,38.499729267578125,42.6441084741211Q37.917999267578125,43.1861684741211,37.917999267578125,43.99999847412109L37.917999267578125,77.0999984741211Q37.917999267578125,77.83579847412109,38.48760926757812,78.40539847412109Q39.08220926757812,78.9999984741211,39.917999267578125,78.9999984741211L102.91799926757812,78.9999984741211Q103.75439926757812,78.9999984741211,104.30259926757813,78.43879847412109Q104.85719926757812,77.8709984741211,104.91799926757812,76.9685984741211Z" fill-rule="evenodd" fill="#DDDDDD" fill-opacity="1"/></g><g><path d="M84.01800003051758,54.199999237060545L60.31800003051758,54.199999237060545C59.71800003051758,54.199999237060545,59.11800003051758,53.699999237060545,59.11800003051758,52.99999923706055C59.11800003051758,52.39999923706055,59.61800003051758,51.79999923706055,60.31800003051758,51.79999923706055L84.01800003051758,51.79999923706055C84.61800003051758,51.79999923706055,85.21800003051757,52.29999923706055,85.21800003051757,52.99999923706055C85.21800003051757,53.699999237060545,84.71800003051757,54.199999237060545,84.01800003051758,54.199999237060545Z" fill="#E8E8E8" fill-opacity="1"/></g><g><path d="M77.11799926757813,61.199999237060545L47.11799926757813,61.199999237060545C46.71799926757812,61.199999237060545,46.417999267578125,60.89999923706055,46.417999267578125,60.49999923706055C46.417999267578125,60.099999237060544,46.71799926757812,59.79999923706055,47.11799926757813,59.79999923706055L77.01799926757812,59.79999923706055C77.41799926757812,59.79999923706055,77.71799926757812,60.099999237060544,77.71799926757812,60.49999923706055C77.91799926757812,60.699999237060545,77.61799926757813,61.199999237060545,77.11799926757813,61.199999237060545Z" fill="#E8E8E8" fill-opacity="1"/></g><g><path d="M96.81799774169922,61.199999237060545L81.71799774169922,61.199999237060545C81.31799774169922,61.199999237060545,81.01799774169922,60.89999923706055,81.01799774169922,60.49999923706055C81.01799774169922,60.099999237060544,81.31799774169922,59.79999923706055,81.71799774169922,59.79999923706055L96.71799774169922,59.79999923706055C97.11799774169921,59.79999923706055,97.41799774169922,60.099999237060544,97.41799774169922,60.49999923706055C97.61799774169921,60.699999237060545,97.31799774169922,61.199999237060545,96.81799774169922,61.199999237060545Z" fill="#E8E8E8" fill-opacity="1"/></g><g><path d="M116.61800079345703,52.3L116.61800079345703,92.1C116.61800079345703,97.6,112.21800079345704,102,106.61800079345703,102L35.81800079345703,102C30.31800079345703,102,25.81800079345703,97.6,25.81800079345703,92.1L25.81800079345703,52.1C25.81800079345703,51.9,25.81800079345703,51.7,25.918000793457033,51.5L48.71800079345703,51.5C52.11800079345703,51.5,54.91800079345703,54.2,54.91800079345703,57.7C54.91800079345703,59.4,55.61800079345703,61,56.71800079345703,62.1C57.91800079345703,63.3,59.31800079345703,63.9,61.11800079345703,63.9L81.41800079345703,63.9C84.81800079345703,63.9,87.61800079345703,61.2,87.61800079345703,57.7C87.61800079345703,56,88.31800079345703,54.4,89.41800079345703,53.3C90.61800079345703,52.1,92.01800079345703,51.5,93.71800079345704,51.5L116.41800079345703,51.5C116.61800079345703,51.7,116.61800079345703,52,116.61800079345703,52.3Z" fill="#FFFFFF" fill-opacity="1"/><path d="M116.76450079345703,96.3557Q117.61800079345703,94.3312,117.61800079345703,92.1L117.61800079345703,52.3Q117.61800079345703,51.285778,117.12510079345704,50.792885L116.83220079345703,50.5L93.71800079345704,50.5Q90.80380079345703,50.5,88.71090079345703,52.59289Q87.73170079345704,53.57206,87.18240079345703,54.89038Q86.61800079345703,56.24499,86.61800079345703,57.7Q86.61800079345703,59.890280000000004,85.08990079345703,61.40145Q83.57450079345703,62.9,81.41800079345703,62.9L61.11800079345703,62.9Q58.93220079345703,62.9,57.425100793457034,61.39289Q55.91800079345703,59.88578,55.91800079345703,57.7Q55.91800079345703,54.67473,53.79610079345703,52.57645Q51.69640079345703,50.5,48.71800079345703,50.5L25.29996679345703,50.5L25.023573793457032,51.052786Q24.81800079345703,51.4639322,24.81800079345703,52.1L24.81800079345703,92.1Q24.81800079345703,94.3295,25.68779279345703,96.3608Q26.52592579345703,98.31819999999999,28.053320793457033,99.8245Q29.576140793457032,101.3263,31.550320793457033,102.1495Q33.58984079345703,103,35.81800079345703,103L106.61800079345703,103Q108.88040079345703,103,110.92660079345703,102.15010000000001Q112.90650079345703,101.3277,114.42260079345704,99.8221Q115.93710079345703,98.3181,116.76450079345703,96.3557ZM115.61800079345703,52.5L115.61800079345703,92.1Q115.61800079345703,95.8164,113.01340079345704,98.4029Q110.39820079345704,101,106.61800079345703,101L35.81800079345703,101Q33.99013079345703,101,32.32006079345703,100.3036Q30.704140793457032,99.6298,29.45768079345703,98.4005Q28.20988079345703,97.1699,27.52633079345703,95.5736Q26.81800079345703,93.91929999999999,26.81800079345703,92.1L26.81800079345703,52.5L48.71800079345703,52.5Q50.87450079345703,52.5,52.38990079345703,53.99855Q53.91800079345703,55.50971,53.91800079345703,57.7Q53.91800079345703,59.155,54.48240079345703,60.50961Q55.031700793457034,61.8279,56.01090079345703,62.8071Q58.10380079345703,64.9,61.11800079345703,64.9L81.41800079345703,64.9Q84.39640079345703,64.9,86.49610079345703,62.823499999999996Q88.61800079345703,60.72526,88.61800079345703,57.7Q88.61800079345703,55.51421,90.12510079345704,54.00711Q91.63220079345703,52.5,93.71800079345704,52.5L115.61800079345703,52.5Z" fill-rule="evenodd" fill="#DDDDDD" fill-opacity="1"/></g><g><path d="M106.61800231933594,87.6L86.01800231933593,87.6C85.31800231933593,87.6,84.71800231933594,87.1,84.71800231933594,86.3C84.71800231933594,85.6,85.21800231933594,85,86.01800231933593,85L106.41800231933594,85C107.11800231933594,85,107.71800231933594,85.5,107.71800231933594,86.3C107.81800231933593,86.9,107.21800231933594,87.6,106.61800231933594,87.6Z" fill="#E8E8E8" fill-opacity="1"/></g><g><path d="M97.41800231933594,93.9000030517578L86.01800231933593,93.9000030517578C85.31800231933593,93.9000030517578,84.71800231933594,93.4000030517578,84.71800231933594,92.60000305175781C84.71800231933594,91.9000030517578,85.21800231933594,91.30000305175781,86.01800231933593,91.30000305175781L97.31800231933593,91.30000305175781C98.01800231933593,91.30000305175781,98.61800231933594,91.80000305175781,98.61800231933594,92.60000305175781C98.71800231933594,93.20000305175782,98.11800231933594,93.9000030517578,97.41800231933594,93.9000030517578Z" fill="#E8E8E8" fill-opacity="1"/></g><g><path d="M90.32503319091796,98.09995931396485C89.92503319091797,99.79995931396485,89.32503319091796,101.59995931396485,88.62503319091797,103.09995931396485C86.72503319091797,106.79995931396485,83.72503319091797,109.69995931396485,80.02503319091797,111.59995931396485C76.22503319091797,113.49995931396484,71.72503319091797,114.29995931396485,67.22503319091797,113.29995931396485C56.52499319091797,110.99995931396484,49.72500319091797,100.69995931396484,51.92499819091797,90.09995931396485C54.12499319091797,79.49999931396485,64.42503319091797,72.59999931396484,75.02503319091797,74.90000331396485C78.82503319091796,75.69999931396484,82.12503319091797,77.59999931396484,84.92503319091797,80.19999931396484C89.72503319091797,84.89995931396484,91.62503319091797,91.59995931396485,90.32503319091796,98.09995931396485Z" fill="#C6C6C6" fill-opacity="1"/><path d="M89.53123319091796,103.52285931396484Q90.63073319091797,101.16665931396484,91.29843319091796,98.32905931396485L91.30223319091797,98.31265931396484L91.30553319091797,98.29615931396484Q92.33803319091797,93.13375931396484,90.87113319091796,88.19055931396484Q89.37883319091796,83.16147931396485,85.62463319091796,79.48548931396485L85.61513319091796,79.47621931396485L85.60543319091798,79.46720931396484Q80.92373319091797,75.11992931396485,75.23703319091797,73.92274531396484Q71.13513319091797,73.03269931396484,67.06043319091796,73.83280531396484Q63.13603319091797,74.60340231396485,59.77318319091797,76.82853931396484Q56.42162319091797,79.04617931396484,54.14706319091797,82.36427931396484Q51.797995190917966,85.79105931396484,50.94586519091797,89.89675931396485Q50.09383319091797,94.00205931396485,50.90199419091797,98.06835931396485Q51.683090190917966,101.99845931396484,53.90277319091797,105.36315931396484Q56.12111319091797,108.72585931396485,59.44293319091797,111.01835931396485Q62.87683319091797,113.38815931396485,67.00803319091797,114.27615931396485Q70.45973319091797,115.04325931396485,74.03053319091796,114.52725931396483Q77.37253319091798,114.04425931396484,80.48183319091797,112.48955931396485Q86.51963319091797,109.38905931396485,89.51453319091797,103.55675931396485L89.52323319091798,103.53995931396484L89.53123319091796,103.52285931396484ZM89.34773319091798,97.88735931396485Q88.73043319091798,100.50415931396485,87.72683319091797,102.65995931396485Q85.02543319091797,107.90805931396484,79.56823319091797,110.71045931396485Q76.76693319091797,112.11095931396484,73.74443319091797,112.54775931396485Q70.53613319091797,113.01145931396485,67.44193319091796,112.32385931396485Q63.68563319091797,111.51635931396484,60.57894319091797,109.37225931396485Q57.57672319091797,107.30035931396485,55.57222319091797,104.26185931396485Q53.56833319091797,101.22425931396484,52.86362319091797,97.67855931396484Q52.13466019091797,94.01065931396485,52.90413319091797,90.30325931396484Q53.67466319091797,86.59065931396485,55.79668319091797,83.49509931396484Q57.85064319091797,80.49881931396484,60.87681319091797,78.49646931396484Q63.90973319091797,76.48967931396484,67.44583319091797,75.79532931396484Q71.11493319091797,75.07485831396484,74.81293319091797,75.87725931396484Q79.96333319091796,76.96156931396484,84.23483319091797,80.92378931396485Q87.61093319091796,84.23399931396484,88.95383319091798,88.75945931396484Q90.27733319091797,93.21965931396484,89.34773319091798,97.88735931396485Z" fill-rule="evenodd" fill="#A6A6A6" fill-opacity="1"/></g><g><path d="M77.31799850463867,91.2999984741211L73.81799850463867,91.2999984741211L73.81799850463867,87.7999984741211C73.81799850463867,86.3899984741211,72.70799850463867,85.0999984741211,71.11799850463868,85.0999984741211C69.70399850463868,85.0999984741211,68.41799850463867,86.2099984741211,68.41799850463867,87.7999984741211L68.41799850463867,91.2999984741211L64.91799850463867,91.2999984741211C63.50399850463867,91.2999984741211,62.21799850463867,92.4099984741211,62.21799850463867,93.9999984741211C62.21799850463867,94.7399984741211,62.48099850463867,95.42999847412109,62.98599850463867,95.92999847412109C63.490998504638675,96.4399984741211,64.17799850463867,96.69999847412109,64.91799850463867,96.69999847412109L68.41799850463867,96.69999847412109L68.41799850463867,100.19999847412109C68.41799850463867,101.6099984741211,69.52799850463867,102.89999847412109,71.11799850463868,102.89999847412109C72.53099850463867,102.89999847412109,73.81799850463867,101.78999847412109,73.81799850463867,100.19999847412109L73.81799850463867,96.69999847412109L77.31799850463867,96.69999847412109C78.73099850463868,96.69999847412109,80.01799850463867,95.58999847412109,80.01799850463867,93.9999984741211C80.01799850463867,92.4099984741211,78.73099850463868,91.2999984741211,77.31799850463867,91.2999984741211Z" fill="#FFFFFF" fill-opacity="1"/><path d="M79.88879850463867,96.66919847412109Q81.01799850463867,95.59009847412109,81.01799850463867,93.9999984741211Q81.01799850463867,92.40988847412109,79.88879850463867,91.33077847412109Q78.81009850463867,90.2999984741211,77.31799850463867,90.2999984741211L74.81799850463867,90.2999984741211L74.81799850463867,87.7999984741211Q74.81799850463867,86.3098484741211,73.78749850463868,85.2306434741211Q72.70779850463867,84.0999984741211,71.11799850463868,84.0999984741211Q69.62526850463867,84.0999984741211,68.54677850463867,85.1308623741211Q67.41799850463867,86.20980847412109,67.41799850463867,87.7999984741211L67.41799850463867,90.2999984741211L64.91799850463867,90.2999984741211Q63.42526850463867,90.2999984741211,62.34678150463867,91.3308584741211Q61.21799850463867,92.40980847412109,61.21799850463867,93.9999984741211Q61.21799850463867,95.58669847412109,62.28241840463867,96.64059847412109Q63.33134850463867,97.69999847412109,64.91799850463867,97.69999847412109L67.41799850463867,97.69999847412109L67.41799850463867,100.19999847412109Q67.41799850463867,101.69019847412109,68.44851850463867,102.76939847412109Q69.52815850463867,103.89999847412109,71.11799850463868,103.89999847412109Q72.61009850463867,103.89999847412109,73.68879850463867,102.86919847412109Q74.81799850463867,101.7900984741211,74.81799850463867,100.19999847412109L74.81799850463867,97.69999847412109L77.31799850463867,97.69999847412109Q78.81009850463867,97.69999847412109,79.88879850463867,96.66919847412109ZM78.50699850463867,92.7767184741211Q79.01799850463867,93.2650384741211,79.01799850463867,93.9999984741211Q79.01799850463867,94.7349584741211,78.50699850463867,95.2232984741211Q78.00809850463867,95.69999847412109,77.31799850463867,95.69999847412109L72.81799850463867,95.69999847412109L72.81799850463867,100.19999847412109Q72.81799850463867,100.9349984741211,72.30699850463867,101.4232984741211Q71.80812850463867,101.89999847412109,71.11799850463868,101.89999847412109Q70.38373850463867,101.89999847412109,69.89497850463867,101.3880984741211Q69.41799850463867,100.8885984741211,69.41799850463867,100.19999847412109L69.41799850463867,95.69999847412109L64.91799850463867,95.69999847412109Q64.16554850463868,95.69999847412109,63.689578504638675,95.21939847412109Q63.21799850463867,94.75246847412109,63.21799850463867,93.9999984741211Q63.21799850463867,93.2647984741211,63.72871850463867,92.7766384741211Q64.22736850463868,92.2999984741211,64.91799850463867,92.2999984741211L69.41799850463867,92.2999984741211L69.41799850463867,87.7999984741211Q69.41799850463867,87.06479847412109,69.92871850463867,86.5766384741211Q70.42736850463868,86.0999984741211,71.11799850463868,86.0999984741211Q71.85224850463867,86.0999984741211,72.34099850463868,86.61185847412109Q72.81799850463867,87.1113684741211,72.81799850463867,87.7999984741211L72.81799850463867,92.2999984741211L77.31799850463867,92.2999984741211Q78.00809850463867,92.2999984741211,78.50699850463867,92.7767184741211Z" fill-rule="evenodd" fill="#A6A6A6" fill-opacity="1"/></g><g><path d="M129.0000015258789,31.800000381469726C131.26500152587892,31.800000381469726,133.1000015258789,29.960000381469726,133.1000015258789,27.700000381469728C133.1000015258789,25.440000381469726,131.26500152587892,23.600000381469727,129.0000015258789,23.600000381469727C126.7360015258789,23.600000381469727,124.9000015258789,25.440000381469726,124.9000015258789,27.700000381469728C124.9000015258789,29.960000381469726,126.7360015258789,31.800000381469726,129.0000015258789,31.800000381469726Z" fill="#EEEEEE" fill-opacity="1"/></g><g><path d="M124.89999847412109,18.499999618530275C126.44699847412109,18.499999618530275,127.69999847412109,17.249999618530275,127.69999847412109,15.699999618530274C127.69999847412109,14.149999618530273,126.44699847412109,12.899999618530273,124.89999847412109,12.899999618530273C123.3539984741211,12.899999618530273,122.0999984741211,14.149999618530273,122.0999984741211,15.699999618530274C122.0999984741211,17.249999618530275,123.3539984741211,18.499999618530275,124.89999847412109,18.499999618530275Z" fill="#EEEEEE" fill-opacity="1"/></g><g><path d="M11.499999809265137,27.700000381469728C13.046999809265138,27.700000381469728,14.299999809265136,26.450000381469728,14.299999809265136,24.900000381469727C14.299999809265136,23.350000381469727,13.046999809265138,22.100000381469727,11.499999809265137,22.100000381469727C9.953999809265136,22.100000381469727,8.699999809265137,23.350000381469727,8.699999809265137,24.900000381469727C8.699999809265137,26.450000381469728,9.953999809265136,27.700000381469728,11.499999809265137,27.700000381469728Z" fill="#EEEEEE" fill-opacity="1"/></g><g><path d="M10.4,84.10000152587891Q10.4,84.22765152587891,10.3937,84.35515152587891Q10.3875,84.48265152587891,10.375,84.6096915258789Q10.3624,84.73673152587891,10.3437,84.8630015258789Q10.325,84.9892715258789,10.3001,85.11447152587891Q10.2752,85.2396715258789,10.2442,85.3635015258789Q10.2131,85.48732152587891,10.1761,85.6094815258789Q10.139,85.73163152587891,10.096,85.85183152587891Q10.053,85.9720215258789,10.0042,86.0899515258789Q9.95532,86.2078915258789,9.90074,86.3232915258789Q9.84616,86.4386815258789,9.78599,86.5512615258789Q9.72581,86.66384152587891,9.66019,86.7733315258789Q9.59456,86.88282152587891,9.52364,86.9889615258789Q9.45272,87.0951015258789,9.37668,87.1976315258789Q9.30064,87.30017152587891,9.21965,87.39884152587891Q9.13867,87.49752152587891,9.05294,87.5921115258789Q8.96722,87.6866915258789,8.87695,87.7769515258789Q8.78669,87.8672215258789,8.69211,87.9529515258789Q8.59752,88.03867152587891,8.49884,88.11965152587891Q8.40017,88.2006315258789,8.29763,88.2766815258789Q8.1951,88.3527215258789,8.08896,88.4236415258789Q7.98282,88.49456152587891,7.87333,88.5601915258789Q7.76384,88.6258115258789,7.65126,88.6859915258789Q7.53868,88.7461615258789,7.42329,88.8007415258789Q7.30789,88.8553215258789,7.18995,88.9042015258789Q7.07202,88.9530015258789,6.95183,88.99600152587891Q6.83163,89.0390015258789,6.70948,89.07610152587891Q6.58732,89.1131015258789,6.4635,89.14420152587891Q6.33967,89.1752015258789,6.21447,89.2001015258789Q6.08927,89.22500152587891,5.963,89.2437015258789Q5.83673,89.2624015258789,5.70969,89.2750015258789Q5.58265,89.28750152587891,5.45515,89.2937015258789Q5.32765,89.30000152587891,5.2,89.30000152587891Q5.07235,89.30000152587891,4.94485,89.2937015258789Q4.81735,89.28750152587891,4.69031,89.2750015258789Q4.56327,89.2624015258789,4.437,89.2437015258789Q4.31073,89.22500152587891,4.18553,89.2001015258789Q4.06033,89.1752015258789,3.9365,89.14420152587891Q3.81268,89.1131015258789,3.69052,89.07610152587891Q3.56836,89.0390015258789,3.44817,88.99600152587891Q3.32798,88.9530015258789,3.21005,88.9042015258789Q3.09211,88.8553215258789,2.97671,88.8007415258789Q2.86132,88.7461615258789,2.74874,88.6859915258789Q2.63616,88.6258115258789,2.52667,88.5601915258789Q2.41717,88.49456152587891,2.31103,88.4236415258789Q2.2049,88.3527215258789,2.10236,88.2766815258789Q1.99983,88.20064152587891,1.90115,88.11965152587891Q1.80248,88.03867152587891,1.70789,87.95294152587891Q1.61331,87.8672215258789,1.52304,87.7769515258789Q1.43278,87.6866915258789,1.34705,87.5921115258789Q1.26133,87.49752152587891,1.18035,87.39884152587891Q1.09936,87.30017152587891,1.02332,87.1976315258789Q0.947278,87.0951015258789,0.876358,86.9889615258789Q0.805438,86.88282152587891,0.739811,86.7733315258789Q0.674184,86.66384152587891,0.614009,86.5512615258789Q0.553834,86.4386815258789,0.499256,86.3232915258789Q0.444677,86.2078915258789,0.395826,86.0899515258789Q0.346976,85.9720215258789,0.303971,85.85183152587891Q0.260966,85.73163152587891,0.22391,85.6094815258789Q0.186855,85.48732152587891,0.155837,85.3635015258789Q0.12482,85.2396715258789,0.0999165,85.11447152587891Q0.0750127,84.9892715258789,0.0562821,84.8630015258789Q0.0375516,84.73673152587891,0.0250394,84.6096915258789Q0.0125273,84.48265152587891,0.00626363,84.35515152587891Q0,84.22765152587891,0,84.10000152587891Q0,83.9723515258789,0.00626363,83.84485152587891Q0.0125273,83.71735152587891,0.0250394,83.5903115258789Q0.0375516,83.46327152587891,0.0562821,83.3370015258789Q0.0750127,83.21073152587891,0.0999165,83.0855315258789Q0.12482,82.9603315258789,0.155837,82.8365015258789Q0.186855,82.7126815258789,0.22391,82.59052152587891Q0.260966,82.4683615258789,0.303971,82.34817152587891Q0.346976,82.2279815258789,0.395826,82.1100515258789Q0.444677,81.99211152587891,0.499256,81.8767115258789Q0.553834,81.76132152587891,0.614009,81.6487415258789Q0.674184,81.53616152587891,0.739811,81.4266715258789Q0.805438,81.3171715258789,0.876358,81.21103152587891Q0.947278,81.1049015258789,1.02332,81.00236152587891Q1.09936,80.89983152587891,1.18035,80.80115152587891Q1.26133,80.70248152587891,1.34705,80.60789152587891Q1.43278,80.5133115258789,1.52304,80.4230415258789Q1.61331,80.3327815258789,1.70789,80.2470515258789Q1.80248,80.16133152587891,1.90115,80.08035152587891Q1.99983,79.99936152587891,2.10236,79.9233215258789Q2.2049,79.8472795258789,2.31103,79.7763595258789Q2.41717,79.7054395258789,2.52667,79.63981252587891Q2.63616,79.5741855258789,2.74874,79.5140105258789Q2.86132,79.4538355258789,2.97671,79.39925752587891Q3.09211,79.3446785258789,3.21005,79.2958275258789Q3.32798,79.2469775258789,3.44817,79.20397252587891Q3.56836,79.1609675258789,3.69052,79.12391152587891Q3.81268,79.0868565258789,3.9365,79.05583852587891Q4.06033,79.0248215258789,4.18553,78.99991802587891Q4.31073,78.97501422587891,4.437,78.95628362587891Q4.56327,78.9375531258789,4.69031,78.9250409258789Q4.81735,78.91252882587891,4.94485,78.90626515587891Q5.07235,78.9000015258789,5.2,78.9000015258789Q5.32765,78.9000015258789,5.45515,78.90626515587891Q5.58265,78.91252882587891,5.70969,78.9250409258789Q5.83673,78.9375531258789,5.963,78.95628362587891Q6.08927,78.97501422587891,6.21447,78.99991802587891Q6.33967,79.0248215258789,6.4635,79.05583852587891Q6.58732,79.0868565258789,6.70948,79.12391152587891Q6.83163,79.1609675258789,6.95183,79.20397252587891Q7.07202,79.2469775258789,7.18995,79.2958275258789Q7.30789,79.3446785258789,7.42329,79.39925752587891Q7.53868,79.4538355258789,7.65126,79.5140105258789Q7.76384,79.5741855258789,7.87333,79.63981252587891Q7.98282,79.7054395258789,8.08896,79.7763595258789Q8.1951,79.8472795258789,8.29763,79.9233215258789Q8.40017,79.99936152587891,8.49884,80.08035152587891Q8.59752,80.16133152587891,8.69211,80.2470515258789Q8.78669,80.3327815258789,8.87695,80.4230415258789Q8.96722,80.5133115258789,9.05295,80.60789152587891Q9.13867,80.70248152587891,9.21965,80.80115152587891Q9.30063,80.89983152587891,9.37668,81.00236152587891Q9.45272,81.1049015258789,9.52364,81.21103152587891Q9.59456,81.3171715258789,9.66019,81.4266715258789Q9.72581,81.53616152587891,9.78599,81.6487415258789Q9.84616,81.76132152587891,9.90074,81.8767115258789Q9.95532,81.99211152587891,10.0042,82.1100515258789Q10.053,82.2279815258789,10.096,82.34817152587891Q10.139,82.4683615258789,10.1761,82.59052152587891Q10.2131,82.7126815258789,10.2442,82.8365015258789Q10.2752,82.9603315258789,10.3001,83.0855315258789Q10.325,83.21073152587891,10.3437,83.3370015258789Q10.3624,83.46327152587891,10.375,83.5903115258789Q10.3875,83.71735152587891,10.3937,83.84485152587891Q10.4,83.9723515258789,10.4,84.10000152587891Z" fill="#EEEEEE" fill-opacity="1"/></g></g></svg>