<svg xmlns="http://www.w3.org/2000/svg" xmlns:xlink="http://www.w3.org/1999/xlink" fill="none" version="1.1" width="133.0989990234375" height="126.938232421875" viewBox="0 0 133.0989990234375 126.938232421875"><g><g><path d="M130.5170000076294,66.93823194503784Q130.5170000076294,68.38663194503783,130.4450000076294,69.83323194503785Q130.37400000762938,71.27983194503784,130.2310000076294,72.72123194503784Q130.08800000762938,74.16263194503784,129.87400000762938,75.59533194503784Q129.66000000762938,77.02803194503784,129.3760000076294,78.44853194503784Q129.0910000076294,79.86913194503784,128.73700000762938,81.27403194503785Q128.3830000076294,82.67903194503783,127.9590000076294,84.06503194503784Q127.5360000076294,85.45103194503784,127.0450000076294,86.81473194503783Q126.5530000076294,88.17843194503784,125.9950000076294,89.51653194503784Q125.4370000076294,90.85463194503784,124.81400000762939,92.16393194503785Q124.1900000076294,93.47323194503784,123.5030000076294,94.75063194503784Q122.8160000076294,96.02793194503784,122.0660000076294,97.27023194503784Q121.3160000076294,98.51263194503784,120.5060000076294,99.71683194503784Q119.6960000076294,100.92113194503784,118.8280000076294,102.08453194503784Q117.9590000076294,103.24783194503785,117.03400000762939,104.36743194503784Q116.10900000762939,105.48703194503784,115.1290000076294,106.56023194503784Q114.1500000076294,107.63333194503784,113.1190000076294,108.65723194503784Q112.08800000762939,109.68123194503784,111.00760000762939,110.65423194503784Q109.9272000076294,111.62723194503783,108.8000000076294,112.54623194503785Q107.67280000762939,113.46423194503784,106.50150000762939,114.32723194503784Q105.33030000762939,115.19023194503784,104.11790000762939,115.99523194503784Q102.9054000076294,116.79923194503785,101.6547000076294,117.54423194503784Q100.40400000762939,118.28923194503784,99.11800000762939,118.97123194503784Q97.83200000762939,119.65423194503784,96.5138000076294,120.27323194503784Q95.1956000076294,120.89323194503784,93.8484000076294,121.44723194503784Q92.5012000076294,122.00123194503784,91.12820000762939,122.48923194503784Q89.7553000076294,122.97723194503784,88.35990000762939,123.39723194503784Q86.9645000076294,123.81823194503784,85.5500000076294,124.17023194503784Q84.13550000762939,124.52223194503784,82.7054000076294,124.80423194503784Q81.2752000076294,125.08723194503784,79.83280000762939,125.29923194503785Q78.3904000076294,125.51223194503784,76.9392000076294,125.65423194503784Q75.48810000762938,125.79623194503785,74.0316000076294,125.86723194503784Q72.57520000762939,125.93823194503784,71.1170000076294,125.93823194503784Q69.6588000076294,125.93823194503784,68.2024000076294,125.86723194503784Q66.74590000762939,125.79623194503785,65.29480000762939,125.65423194503784Q63.8436000076294,125.51223194503784,62.40120000762939,125.29923194503785Q60.95880000762939,125.08723194503784,59.52860000762939,124.80423194503784Q58.0985000076294,124.52223194503784,56.68400000762939,124.17023194503784Q55.2695000076294,123.81823194503784,53.874100007629394,123.39723194503784Q52.47870000762939,122.97723194503784,51.105700007629395,122.48923194503784Q49.73280000762939,122.00123194503784,48.38560000762939,121.44723194503784Q47.03840000762939,120.89323194503784,45.720200007629394,120.27323194503784Q44.4020000076294,119.65423194503784,43.116000007629395,118.97123194503784Q41.830000007629394,118.28923194503784,40.5793000076294,117.54423194503784Q39.32860000762939,116.79923194503785,38.1161000076294,115.99523194503784Q36.903700007629396,115.19023194503784,35.7325000076294,114.32723194503784Q34.561200007629395,113.46423194503784,33.43400000762939,112.54623194503785Q32.30680000762939,111.62723194503783,31.226400007629394,110.65423194503784Q30.146000007629393,109.68123194503784,29.114900007629394,108.65723194503784Q28.083800007629396,107.63333194503784,27.104500007629394,106.56023194503784Q26.125200007629395,105.48703194503784,25.200200007629395,104.36743194503784Q24.275100007629394,103.24783194503785,23.406500007629397,102.08453194503784Q22.537800007629393,100.92113194503784,21.727700007629394,99.71683194503784Q20.917580007629397,98.51263194503784,20.167920007629395,97.27023194503784Q19.418260007629396,96.02793194503784,18.730880007629395,94.75063194503784Q18.043490007629394,93.47323194503784,17.420030007629393,92.16393194503785Q16.796580007629395,90.85463194503784,16.238550007629396,89.51653194503784Q15.680530007629395,88.17843194503784,15.189280007629394,86.81473194503783Q14.698030007629395,85.45103194503784,14.274740007629394,84.06503194503784Q13.851450007629396,82.67903194503783,13.497140007629394,81.27403194503785Q13.142830007629394,79.86913194503784,12.858350007629394,78.44853194503784Q12.573876007629394,77.02803194503784,12.359915007629395,75.59533194503784Q12.145955007629395,74.16263194503784,12.003027007629395,72.72123194503784Q11.860100007629395,71.27983194503784,11.788549907629395,69.83323194503785Q11.717000007629395,68.38663194503783,11.717000007629395,66.93823194503784Q11.717000007629395,65.48983194503785,11.788549907629395,64.04323194503783Q11.860100007629395,62.59663194503784,12.003027007629395,61.15523194503784Q12.145955007629395,59.71383194503784,12.359915007629395,58.28113194503784Q12.573876007629394,56.848431945037845,12.858350007629394,55.42793194503784Q13.142830007629394,54.00733194503784,13.497140007629394,52.60243194503784Q13.851450007629396,51.19743194503784,14.274740007629394,49.81143194503784Q14.698030007629395,48.42543194503784,15.189280007629394,47.06173194503784Q15.680530007629395,45.69803194503784,16.238550007629396,44.35993194503784Q16.796580007629395,43.02183194503784,17.420030007629393,41.71243194503784Q18.043490007629394,40.40313194503784,18.730880007629395,39.125831945037845Q19.418260007629396,37.848431945037845,20.167920007629395,36.606131945037845Q20.917580007629397,35.363831945037845,21.727700007629394,34.159631945037845Q22.537800007629393,32.95533194503784,23.406500007629397,31.79193194503784Q24.275100007629394,30.628631945037842,25.200200007629395,29.50903194503784Q26.125200007629395,28.389431945037842,27.104500007629394,27.316231945037842Q28.083800007629396,26.243031945037842,29.114900007629394,25.21893194503784Q30.146000007629393,24.19473194503784,31.226400007629394,23.22213194503784Q32.30680000762939,22.24943194503784,33.43400000762939,21.330631945037844Q34.561200007629395,20.411731945037843,35.7325000076294,19.54903194503784Q36.903700007629396,18.68623194503784,38.1161000076294,17.88152194503784Q39.32860000762939,17.07685194503784,40.5793000076294,16.332241945037843Q41.830000007629394,15.587631945037842,43.116000007629395,14.904881945037841Q44.4020000076294,14.222121945037841,45.720200007629394,13.60286194503784Q47.03840000762939,12.983601945037842,48.38560000762939,12.42934194503784Q49.73280000762939,11.875071945037842,51.105700007629395,11.387131945037842Q52.47870000762939,10.899191945037842,53.874100007629394,10.478751945037843Q55.2695000076294,10.058311945037842,56.68400000762939,9.706391945037842Q58.0985000076294,9.354461945037842,59.52860000762939,9.071901945037842Q60.95880000762939,8.789337945037841,62.40120000762939,8.576817945037842Q63.8436000076294,8.364297945037842,65.29480000762939,8.222332945037842Q66.74590000762939,8.080367945037843,68.2024000076294,8.009300045037842Q69.6588000076294,7.938231945037842,71.1170000076294,7.938231945037842Q72.57520000762939,7.938231945037842,74.0316000076294,8.009300045037842Q75.48810000762938,8.080367945037843,76.9392000076294,8.222332945037842Q78.3904000076294,8.364297945037842,79.83280000762939,8.576817945037842Q81.2752000076294,8.789337945037841,82.7054000076294,9.071901945037842Q84.13550000762939,9.354461945037842,85.5500000076294,9.706391945037842Q86.9645000076294,10.058311945037842,88.35990000762939,10.478751945037843Q89.7553000076294,10.899191945037842,91.12820000762939,11.387131945037842Q92.5012000076294,11.875071945037842,93.8484000076294,12.42934194503784Q95.1956000076294,12.983601945037842,96.5138000076294,13.60286194503784Q97.83200000762939,14.222121945037841,99.11800000762939,14.904871945037842Q100.40400000762939,15.587631945037842,101.6547000076294,16.332241945037843Q102.9054000076294,17.07685194503784,104.11790000762939,17.88152194503784Q105.33030000762939,18.68623194503784,106.50150000762939,19.54903194503784Q107.67270000762939,20.411731945037843,108.8000000076294,21.330631945037844Q109.92710000762939,22.24943194503784,111.00760000762939,23.22213194503784Q112.08800000762939,24.19473194503784,113.1190000076294,25.21893194503784Q114.1500000076294,26.243031945037842,115.1290000076294,27.316231945037842Q116.10900000762939,28.389431945037842,117.03400000762939,29.50903194503784Q117.9590000076294,30.628631945037842,118.8280000076294,31.79193194503784Q119.6960000076294,32.95533194503784,120.5060000076294,34.159631945037845Q121.3160000076294,35.363831945037845,122.0660000076294,36.606131945037845Q122.8160000076294,37.848431945037845,123.5030000076294,39.125831945037845Q124.1900000076294,40.40313194503784,124.81400000762939,41.71243194503784Q125.4370000076294,43.02183194503784,125.9950000076294,44.35993194503784Q126.5530000076294,45.69803194503784,127.0450000076294,47.06173194503784Q127.5360000076294,48.42543194503784,127.9590000076294,49.81143194503784Q128.3830000076294,51.19743194503784,128.73700000762938,52.60243194503784Q129.0910000076294,54.00733194503784,129.3760000076294,55.42793194503784Q129.66000000762938,56.848431945037845,129.87400000762938,58.28113194503784Q130.08800000762938,59.71383194503784,130.2310000076294,61.15523194503784Q130.37400000762938,62.59663194503784,130.4450000076294,64.04323194503783Q130.5170000076294,65.48983194503785,130.5170000076294,66.93823194503784Z" fill="#EEEEEE" fill-opacity="1"/><path d="M126.7680000076294,90.30193194503784Q131.5170000076294,79.15093194503784,131.5170000076294,66.93823194503784Q131.5170000076294,54.725531945037844,126.7680000076294,43.57453194503784Q122.1820000076294,32.80623194503784,113.8220000076294,24.503631945037842Q105.4624000076294,16.20280194503784,94.6230000076294,11.650611945037841Q83.4021000076294,6.9382359450378415,71.1170000076294,6.9382359450378415Q58.83190000762939,6.938231945037842,47.61100000762939,11.650611945037841Q36.7715000076294,16.20284194503784,28.412400007629394,24.503631945037842Q20.051370007629394,32.80633194503784,15.465700007629394,43.57453194503784Q10.717000007629395,54.72563194503784,10.717000007629395,66.93823194503784Q10.717000007629395,79.15083194503784,15.465700007629394,90.30193194503784Q20.051340007629392,101.07003194503784,28.412400007629394,109.37323194503784Q36.7715000076294,117.67323194503784,47.61100000762939,122.22623194503784Q58.8318000076294,126.93823194503784,71.1170000076294,126.93823194503784Q83.4021000076294,126.93823194503784,94.6230000076294,122.22623194503784Q105.4625000076294,117.67323194503784,113.8220000076294,109.37323194503784Q122.18300000762939,101.07023194503785,126.7680000076294,90.30193194503784ZM124.9280000076294,44.35813194503784Q129.5170000076294,55.13363194503784,129.5170000076294,66.93823194503784Q129.5170000076294,78.74283194503784,124.9280000076294,89.51833194503784Q120.49600000762939,99.92673194503784,112.41200000762939,107.95323194503784Q104.3293000076294,115.98023194503784,93.8485000076294,120.38223194503784Q82.9992000076294,124.93823194503784,71.1170000076294,124.93823194503784Q59.234800007629396,124.93823194503784,48.385500007629396,120.38223194503784Q37.9046000076294,115.98023194503784,29.821600007629396,107.95323194503784Q21.738200007629395,99.92653194503784,17.305800007629394,89.51833194503784Q12.717000007629395,78.74263194503784,12.716996007629394,66.93823194503784Q12.716996007629394,55.133731945037844,17.305800007629394,44.35813194503784Q21.738200007629395,33.94983194503784,29.821600007629396,25.922831945037842Q37.904700007629394,17.896171945037842,48.385500007629396,13.494601945037843Q59.234800007629396,8.938231945037842,71.1170000076294,8.938231945037842Q82.9991000076294,8.938231945037842,93.8485000076294,13.494601945037843Q104.3293000076294,17.89612194503784,112.41200000762939,25.922831945037842Q120.49600000762939,33.94973194503784,124.9280000076294,44.35813194503784Z" fill-rule="evenodd" fill="#DDDDDD" fill-opacity="1"/></g><g><path d="M116.6169994354248,59.23823127746582L116.6169994354248,95.33823127746582C116.6169994354248,102.83823127746582,110.51699943542481,108.93823127746582,102.9169994354248,108.93823127746582L39.51699943542481,108.93823127746582C32.01699943542481,108.93823127746582,25.916999435424806,102.93823127746582,25.816999435424805,95.43823127746582C25.816999435424805,95.33823127746582,25.816999435424805,95.33823127746582,25.816999435424805,95.23823127746581L25.816999435424805,59.23823127746582C25.816999435424805,59.13823127746582,25.816999435424805,59.13823127746582,25.816999435424805,59.03823127746582C25.816999435424805,58.83823127746582,25.816999435424805,58.63823127746582,25.916999435424806,58.43823127746582C26.016999435424804,58.13823127746582,26.116999435424805,57.93823127746582,26.216999435424803,57.63823127746582L43.2169994354248,25.13823127746582C43.816999435424805,23.83823127746582,45.1169994354248,23.13823127746582,46.51699943542481,23.13823127746582L95.8169994354248,23.13823127746582C97.21699943542481,23.13823127746582,98.4169994354248,23.83823127746582,99.1169994354248,25.13823127746582L116.1169994354248,57.63823127746582C116.21699943542481,57.83823127746582,116.3169994354248,58.13823127746582,116.4169994354248,58.43823127746582C116.6169994354248,58.63823127746582,116.6169994354248,58.93823127746582,116.6169994354248,59.23823127746582Z" fill="#E8E8E8" fill-opacity="1"/><path d="M116.4655994354248,101.01813127746583Q117.6169994354248,98.30633127746582,117.6169994354248,95.33823127746582L117.6169994354248,59.23823127746582Q117.6169994354248,58.44243127746582,117.3134994354248,57.96763127746582Q117.1263994354248,57.42103127746582,117.0030994354248,57.17473127746582L99.9974994354248,24.66413127746582Q99.3460994354248,23.45452827746582,98.24399943542481,22.79323827746582Q97.15229943542481,22.13823127746582,95.8169994354248,22.13823127746582L46.51699943542481,22.13823127746582Q45.1682994354248,22.13823127746582,44.060799435424805,22.78831527746582Q42.8917994354248,23.47445827746582,42.32009943542481,24.69537127746582L25.293698435424805,57.24583127746582L25.268316435424804,57.32203127746582Q25.227618435424805,57.44413127746582,25.138522435424804,57.66683127746582Q25.043714435424803,57.90383127746582,24.986616435424803,58.06823127746582Q24.816999435424805,58.46043127746582,24.816999435424805,59.03823127746582L24.816999435424805,95.33823127746582L24.817089435424805,95.45153127746582Q24.856616435424804,98.41613127746582,26.028054435424806,101.11043127746582Q27.159839435424804,103.71353127746582,29.190309435424805,105.71323127746582Q31.219919435424806,107.71213127746582,33.841129435424804,108.80633127746582Q36.5523994354248,109.93823127746582,39.51699943542481,109.93823127746582L102.9169994354248,109.93823127746582Q105.9169994354248,109.93823127746582,108.65109943542481,108.78993127746583Q111.29019943542481,107.68153127746582,113.32229943542481,105.65963127746582Q115.3524994354248,103.63973127746581,116.4655994354248,101.01813127746583ZM115.6169994354248,59.23823127746582L115.6169994354248,95.33823127746582Q115.6169994354248,97.89933127746582,114.6246994354248,100.23643127746583Q113.6644994354248,102.49793127746582,111.91169943542481,104.24183127746582Q110.1560994354248,105.98853127746582,107.87659943542481,106.94593127746582Q105.51399943542481,107.93823127746582,102.9169994354248,107.93823127746582L39.51699943542481,107.93823127746582Q36.953099435424804,107.93823127746582,34.61161943542481,106.96073127746583Q32.347579435424805,106.01553127746583,30.593689435424807,104.28823127746583Q28.839419435424805,102.56053127746583,27.862199435424806,100.31293127746582Q26.851079435424804,97.98733127746583,26.816911435424803,95.42493127746582L26.816999435424805,95.33823127746582L26.816999435424805,59.03823127746582Q26.816999435424805,58.90603127746582,26.821399435424805,58.86553127746582L26.843209435424804,58.82183127746582L26.865679435424806,58.75443127746582Q26.906389435424806,58.63233127746582,26.995479435424805,58.40963127746582Q27.082679435424804,58.191631277465824,27.137969435424804,58.03503127746582L44.11459943542481,25.57978127746582L44.124999435424805,25.557291277465822Q44.4335994354248,24.88856127746582,45.073199435424804,24.51315127746582Q45.711899435424804,24.13823127746582,46.51699943542481,24.13823127746582L95.8169994354248,24.13823127746582Q97.4427994354248,24.13823127746582,98.2364994354248,25.61233127746582L115.2308994354248,58.101731277465824Q115.2907994354248,58.22193127746582,115.46829943542481,58.75443127746582L115.5429994354248,58.97843127746582L115.6139994354248,59.04953127746582Q115.6169994354248,59.11703127746582,115.6169994354248,59.23823127746582Z" fill-rule="evenodd" fill="#DDDDDD" fill-opacity="1"/></g><g><path d="M97.10964915771484,11.868322116699218L96.92874915771485,9.91596391669922L94.93724915771485,10.100500316699218L95.11814915771484,12.052852116699219L97.10964915771484,11.868322116699218ZM97.79654915771485,19.60376211669922Q97.68224915771484,18.06292211669922,97.46944915771485,15.73099211669922L95.47774915771484,15.91277211669922Q95.68904915771485,18.22772211669922,95.80204915771485,19.751712116699217L97.79654915771485,19.60376211669922ZM97.98454915771484,27.44833211669922Q98.06974915771485,25.58153211669922,98.01004915771485,23.527432116699217L96.01084915771484,23.58563211669922Q96.06844915771484,25.564932116699218,95.98664915771485,27.35713211669922L97.98454915771484,27.44833211669922ZM97.03594915771484,35.264932116699214Q97.41764915771485,33.188732116699214,97.64374915771484,31.38633211669922L95.65924915771484,31.13743211669922Q95.44034915771485,32.88323211669922,95.06894915771484,34.90333211669922L97.03594915771484,35.264932116699214ZM71.97867915771485,34.00523211669922Q71.75644915771484,34.16443211669922,71.54581915771485,34.340732116699215L72.82929915771484,35.874532116699214Q72.97062915771484,35.75633211669922,73.11892915771485,35.64873211669922Q74.31832915771484,34.90373211669922,75.84202915771485,34.816732116699214L75.72805915771484,32.820032116699224Q73.67360915771485,32.93733211669922,72.02866915771484,33.971732116699215L72.00316915771484,33.98773211669922L71.97867915771485,34.00523211669922ZM81.73264915771485,34.88703211669922Q80.96624915771484,34.17773211669922,79.99504915771485,33.69073211669922L79.09858915771484,35.47853211669922Q79.82604915771485,35.843332116699216,80.38974915771485,36.36933211669922L80.41104915771484,36.38923211669922L80.43354915771485,36.40783211669922Q81.12224915771485,36.97923211669922,81.66044915771485,37.69953211669922L83.26264915771485,36.50243211669922Q82.59084915771484,35.60333211669922,81.73264915771485,34.88703211669922ZM69.10716315771484,37.96453211669922Q68.38506915771484,40.064032116699224,68.68240615771484,42.25303211669922L70.66420915771485,41.98383211669922Q70.43078715771485,40.265432116699216,70.99842915771484,38.61493211669922L69.10716315771484,37.96453211669922ZM95.90054915771485,40.68713211669922L96.25714915771485,39.09783211669922L94.30574915771484,38.659932116699224L93.97144915771484,40.14943211669922Q93.91494915771484,40.31833211669922,93.81504915771484,40.61833211669922Q93.44384915771485,41.73303211669922,93.24834915771484,42.288532116699216L95.13484915771484,42.95273211669922Q95.33604915771484,42.381232116699216,95.71264915771485,41.25023211669922Q95.82704915771484,40.90653211669922,95.88424915771485,40.73573211669922L95.90054915771485,40.68713211669922ZM85.36494915771485,43.87383211669922Q85.44784915771484,42.059732116699216,85.04274915771484,40.36713211669922L83.09764915771484,40.832632116699216Q83.43704915771484,42.25053211669922,83.36704915771485,43.78263211669922Q83.35384915771485,44.07153211669922,83.32784915771484,44.36413211669922L85.32004915771485,44.54123211669922Q85.34984915771484,44.20563211669922,85.36494915771485,43.87383211669922ZM69.84438115771485,46.25463211669922Q70.73517915771484,48.166332116699216,72.18025915771484,49.71673211669922L73.64331915771484,48.35313211669922Q72.41421915771484,47.03443211669922,71.65721915771485,45.40993211669922L69.84438115771485,46.25463211669922ZM91.70144915771485,49.27423211669922Q92.72104915771484,48.18863211669922,93.54774915771485,46.66733211669922L91.79054915771485,45.712332116699216Q91.08024915771485,47.01923211669922,90.22804915771485,47.92163211669922L90.20854915771484,47.94213211669922L90.19034915771485,47.963832116699216Q89.93094915771485,48.271632116699216,89.63984915771485,48.56083211669922L91.04934915771484,49.97963211669922Q91.39304915771484,49.63823211669922,91.70144915771485,49.27423211669922ZM82.85964915771484,52.27353211669922Q83.85924915771484,50.42493211669922,84.47394915771484,48.55213211669922L82.57364915771484,47.92843211669922Q82.01474915771485,49.63113211669922,81.10034915771485,51.32223211669922L82.85964915771484,52.27353211669922ZM78.35283915771484,53.40693211669922Q78.89527915771484,53.54593211669922,79.46052915771484,53.63473211669922L79.77084915771485,51.65893211669922Q79.29956915771484,51.58493211669922,78.84915915771484,51.46953211669922Q77.59701915771484,51.158832116699216,76.43936915771485,50.529132116699216L75.48377915771485,52.28613211669922Q76.86660915771485,53.03823211669922,78.35283915771484,53.40693211669922ZM83.63864915771484,53.61723211669922Q85.72864915771484,53.288332116699216,87.61054915771484,52.38303211669922L86.74344915771485,50.58073211669922Q85.12694915771485,51.35843211669922,83.32774915771485,51.64153211669922L83.63864915771484,53.61723211669922ZM78.63075915771485,58.928532116699216Q79.94544915771485,57.21803211669922,80.89764915771484,55.69773211669922L79.20270915771485,54.63603211669922Q78.30131915771484,56.07523211669922,77.04502915771485,57.70973211669922L78.63075915771485,58.928532116699216ZM73.93847915771484,65.07373211669922Q75.06152915771484,63.517132116699216,76.24255915771485,61.98633211669922L74.65905915771485,60.76463211669922Q73.45834915771485,62.32093211669922,72.31655915771485,63.90353211669922L73.93847915771484,65.07373211669922ZM70.64418915771485,69.83723211669923L71.73606915771484,68.21743211669923L70.07768715771485,67.09953211669921L68.98580815771484,68.71923211669922L70.64418915771485,69.83723211669923Z" fill-rule="evenodd" fill="#C6C6C6" fill-opacity="1"/></g><g><path d="M103.58699530761719,4.698227588472366C103.06499530761718,6.5982275884723665,100.97799530761719,7.298227588472367,98.89099530761719,6.078227588472366C96.6299953076172,5.048227588472367,95.06499730761719,4.1782275884723665,95.41199720761719,2.4482275884723665C95.93399730761719,0.7182325884723664,98.02099530761718,0.5482325884723663,100.45599530761719,0.36823218847236633C103.4129953076172,0.028232588472366316,103.93499530761719,2.798227588472366,103.58699530761719,4.698227588472366Z" fill="#DDDDDD" fill-opacity="1"/></g><g><path d="M86.7160012109375,6.428232129936219C87.5860062109375,7.988232129936218,90.0210062109375,9.028232129936217,91.7600062109375,7.468232129936219C93.6730062109375,5.738232129936218,95.2390062109375,4.528232129936218,94.3690062109375,2.7982321299362183C93.4990062109375,1.2382321299362182,92.1080062109375,1.7582322299362183,89.1510062109375,2.098232129936218C86.7160012109375,2.618232129936218,85.6720012109375,4.698232129936218,86.7160012109375,6.428232129936219Z" fill="#DDDDDD" fill-opacity="1"/></g><g><path d="M94.36899768066407,0.0282322C95.58599768066406,-0.151768,96.80399768066407,0.548232,97.15199768066407,1.57823C97.32599768066406,1.92823,97.49899768066406,2.44823,97.49899768066406,2.79823C97.84699768066406,5.21823,96.97799768066406,7.29823,95.58599768066406,7.46823C94.02099768066407,7.81823,92.45599768066407,6.07823,92.28199768066406,3.82823C92.28199768066406,3.13823,92.28199768066406,2.79823,92.28199768066406,2.27823C92.45599768066407,1.06823,93.15099768066406,0.198232,94.36899768066407,0.0282322C94.54299768066406,0.0282322,94.36899768066407,0.0282322,94.36899768066407,0.0282322Z" fill="#8B8B8B" fill-opacity="1"/></g><g><path d="M116.6169994354248,59.238232421875L116.6169994354248,99.038232421875C116.6169994354248,104.538232421875,112.21699943542481,108.938232421875,106.6169994354248,108.938232421875L35.816999435424805,108.938232421875C30.316999435424805,108.938232421875,25.816999435424805,104.538232421875,25.816999435424805,99.038232421875L25.816999435424805,59.038232421875C25.816999435424805,58.838232421875,25.816999435424805,58.638232421875,25.916999435424806,58.438232421875L48.7169994354248,58.438232421875C52.1169994354248,58.438232421875,54.916999435424806,61.138232421875,54.916999435424806,64.638232421875C54.916999435424806,66.338232421875,55.6169994354248,67.938232421875,56.7169994354248,69.038232421875C57.916999435424806,70.238232421875,59.316999435424805,70.838232421875,61.1169994354248,70.838232421875L81.4169994354248,70.838232421875C84.8169994354248,70.838232421875,87.6169994354248,68.138232421875,87.6169994354248,64.638232421875C87.6169994354248,62.938232421875,88.3169994354248,61.338232421875,89.4169994354248,60.238232421875C90.6169994354248,59.038232421875,92.01699943542481,58.438232421875,93.71699943542481,58.438232421875L116.4169994354248,58.438232421875C116.6169994354248,58.638232421875,116.6169994354248,58.938232421875,116.6169994354248,59.238232421875Z" fill="#FFFFFF" fill-opacity="1"/><path d="M116.7634994354248,103.293932421875Q117.6169994354248,101.269432421875,117.6169994354248,99.038232421875L117.6169994354248,59.238232421875Q117.6169994354248,58.224010421875,117.12409943542481,57.731117421875L116.83119943542481,57.438232421875L93.71699943542481,57.438232421875Q90.8027994354248,57.438232421875,88.7098994354248,59.531122421875Q87.73069943542481,60.510292421875,87.18139943542481,61.828612421875Q86.6169994354248,63.183222421875,86.6169994354248,64.638232421875Q86.6169994354248,66.828512421875,85.0888994354248,68.339682421875Q83.57349943542481,69.838232421875,81.4169994354248,69.838232421875L61.1169994354248,69.838232421875Q58.9311994354248,69.838232421875,57.42409943542481,68.331122421875Q55.916999435424806,66.824012421875,55.916999435424806,64.638232421875Q55.916999435424806,61.612962421875,53.7950994354248,59.514682421875Q51.695399435424804,57.438232421875,48.7169994354248,57.438232421875L25.298965435424805,57.438232421875L25.022572435424806,57.991018421875Q24.816999435424805,58.402164621875,24.816999435424805,59.038232421875L24.816999435424805,99.038232421875Q24.816999435424805,101.267732421875,25.686791435424805,103.299032421875Q26.524924435424804,105.25643242187499,28.052319435424806,106.762732421875Q29.575139435424806,108.264532421875,31.549319435424806,109.087732421875Q33.5888394354248,109.938232421875,35.816999435424805,109.938232421875L106.6169994354248,109.938232421875Q108.8793994354248,109.938232421875,110.9255994354248,109.08833242187501Q112.9054994354248,108.265932421875,114.42159943542481,106.760332421875Q115.93609943542481,105.256332421875,116.7634994354248,103.293932421875ZM115.6169994354248,59.438232421875L115.6169994354248,99.038232421875Q115.6169994354248,102.754632421875,113.01239943542481,105.341132421875Q110.39719943542481,107.938232421875,106.6169994354248,107.938232421875L35.816999435424805,107.938232421875Q33.9891294354248,107.938232421875,32.319059435424805,107.241832421875Q30.703139435424806,106.568032421875,29.456679435424803,105.338732421875Q28.208879435424805,104.108132421875,27.525329435424805,102.511832421875Q26.816999435424805,100.85753242187499,26.816999435424805,99.038232421875L26.816999435424805,59.438232421875L48.7169994354248,59.438232421875Q50.873499435424804,59.438232421875,52.388899435424804,60.936782421875Q53.916999435424806,62.447942421875,53.916999435424806,64.638232421875Q53.916999435424806,66.093232421875,54.481399435424805,67.447842421875Q55.03069943542481,68.766132421875,56.009899435424806,69.745332421875Q58.10279943542481,71.838232421875,61.1169994354248,71.838232421875L81.4169994354248,71.838232421875Q84.3953994354248,71.838232421875,86.4950994354248,69.761732421875Q88.6169994354248,67.663492421875,88.6169994354248,64.638232421875Q88.6169994354248,62.452442421875,90.12409943542481,60.945342421875Q91.6311994354248,59.438232421875,93.71699943542481,59.438232421875L115.6169994354248,59.438232421875Z" fill-rule="evenodd" fill="#DDDDDD" fill-opacity="1"/></g><g><path d="M59.80800048828125,84.19823059082032C61.07500048828125,84.19823059082032,62.10200048828125,83.16823059082031,62.10200048828125,81.89823059082032C62.10200048828125,80.63823059082031,61.07500048828125,79.60823059082031,59.80800048828125,79.60823059082031C58.54100048828125,79.60823059082031,57.51300048828125,80.63823059082031,57.51300048828125,81.89823059082032C57.51300048828125,83.16823059082031,58.54100048828125,84.19823059082032,59.80800048828125,84.19823059082032Z" fill="#8B8B8B" fill-opacity="1"/></g><g><path d="M82.62700073242188,84.19823059082032C83.89400073242187,84.19823059082032,84.92100073242187,83.16823059082031,84.92100073242187,81.89823059082032C84.92100073242187,80.63823059082031,83.89400073242187,79.60823059082031,82.62700073242188,79.60823059082031C81.35900073242188,79.60823059082031,80.33200073242188,80.63823059082031,80.33200073242188,81.89823059082032C80.33200073242188,83.16823059082031,81.35900073242188,84.19823059082032,82.62700073242188,84.19823059082032Z" fill="#8B8B8B" fill-opacity="1"/></g><g><path d="M74.937998046875,99.26823577880859L67.744998046875,99.26823577880859C66.628998046875,99.26823577880859,65.697998046875,98.3382357788086,65.697998046875,97.21823577880859C65.697998046875,96.0982357788086,66.628998046875,95.1682357788086,67.744998046875,95.1682357788086L74.875998046875,95.1682357788086C75.991998046875,95.1682357788086,76.921998046875,96.0982357788086,76.921998046875,97.21823577880859C76.983998046875,98.3382357788086,76.053998046875,99.26823577880859,74.937998046875,99.26823577880859Z" fill="#8B8B8B" fill-opacity="1"/></g><g><path d="M128.9990020751953,38.73823280334473C131.26400207519532,38.73823280334473,133.0990020751953,36.898232803344726,133.0990020751953,34.63823280334473C133.0990020751953,32.37823280334473,131.26400207519532,30.538232803344727,128.9990020751953,30.538232803344727C126.73500207519531,30.538232803344727,124.89900207519531,32.37823280334473,124.89900207519531,34.63823280334473C124.89900207519531,36.898232803344726,126.73500207519531,38.73823280334473,128.9990020751953,38.73823280334473Z" fill="#EEEEEE" fill-opacity="1"/></g><g><path d="M124.8989990234375,25.438232040405275C126.4459990234375,25.438232040405275,127.6989990234375,24.188232040405275,127.6989990234375,22.638232040405274C127.6989990234375,21.088232040405273,126.4459990234375,19.838232040405273,124.8989990234375,19.838232040405273C123.3529990234375,19.838232040405273,122.0989990234375,21.088232040405273,122.0989990234375,22.638232040405274C122.0989990234375,24.188232040405275,123.3529990234375,25.438232040405275,124.8989990234375,25.438232040405275Z" fill="#EEEEEE" fill-opacity="1"/></g><g><path d="M11.499999809265137,34.63823280334473C13.045999809265137,34.63823280334473,14.299999809265136,33.38823280334473,14.299999809265136,31.838232803344727C14.299999809265136,30.288232803344727,13.045999809265137,29.038232803344727,11.499999809265137,29.038232803344727C9.952999809265137,29.038232803344727,8.699999809265137,30.288232803344727,8.699999809265137,31.838232803344727C8.699999809265137,33.38823280334473,9.952999809265137,34.63823280334473,11.499999809265137,34.63823280334473Z" fill="#EEEEEE" fill-opacity="1"/></g><g><path d="M10.4,91.03823394775391Q10.4,91.16588394775391,10.3937,91.29338394775391Q10.3875,91.42088394775391,10.375,91.5479239477539Q10.3624,91.67496394775391,10.3437,91.8012339477539Q10.325,91.9275039477539,10.3001,92.05270394775391Q10.2752,92.1779039477539,10.2442,92.3017339477539Q10.2131,92.42555394775391,10.1761,92.5477139477539Q10.139,92.66986394775391,10.096,92.79006394775391Q10.053,92.9102539477539,10.0042,93.0281839477539Q9.95532,93.1461239477539,9.90074,93.2615239477539Q9.84616,93.3769139477539,9.78599,93.4894939477539Q9.72581,93.60207394775391,9.66019,93.7115639477539Q9.59456,93.82105394775391,9.52364,93.9271939477539Q9.45272,94.0333339477539,9.37668,94.1358639477539Q9.30064,94.23840394775391,9.21965,94.33707394775391Q9.13867,94.43575394775391,9.05294,94.5303439477539Q8.96722,94.6249239477539,8.87695,94.7151839477539Q8.78669,94.8054539477539,8.69211,94.8911839477539Q8.59752,94.97690394775391,8.49884,95.05788394775391Q8.40017,95.1388639477539,8.29763,95.2149139477539Q8.1951,95.2909539477539,8.08896,95.3618739477539Q7.98282,95.43279394775391,7.87333,95.4984239477539Q7.76384,95.5640439477539,7.65126,95.6242239477539Q7.53868,95.6843939477539,7.42329,95.7389739477539Q7.30789,95.7935539477539,7.18995,95.8424339477539Q7.07202,95.8912339477539,6.95183,95.93423394775391Q6.83163,95.9772339477539,6.70948,96.01433394775391Q6.58732,96.0513339477539,6.4635,96.08243394775391Q6.33967,96.1134339477539,6.21447,96.1383339477539Q6.08927,96.16323394775391,5.963,96.1819339477539Q5.83673,96.2006339477539,5.70969,96.2132339477539Q5.58265,96.22573394775391,5.45515,96.2319339477539Q5.32765,96.23823394775391,5.2,96.23823394775391Q5.07235,96.23823394775391,4.94485,96.2319339477539Q4.81735,96.22573394775391,4.69031,96.2132339477539Q4.56327,96.2006339477539,4.437,96.1819339477539Q4.31073,96.16323394775391,4.18553,96.1383339477539Q4.06033,96.1134339477539,3.9365,96.08243394775391Q3.81268,96.0513339477539,3.69052,96.01433394775391Q3.56836,95.9772339477539,3.44817,95.93423394775391Q3.32798,95.8912339477539,3.21005,95.8424339477539Q3.09211,95.7935539477539,2.97671,95.7389739477539Q2.86132,95.6843939477539,2.74874,95.6242239477539Q2.63616,95.5640439477539,2.52667,95.4984239477539Q2.41717,95.43279394775391,2.31103,95.3618739477539Q2.2049,95.2909539477539,2.10236,95.2149139477539Q1.99983,95.13887394775391,1.90115,95.05788394775391Q1.80248,94.97690394775391,1.70789,94.89117394775391Q1.61331,94.8054539477539,1.52304,94.7151839477539Q1.43278,94.6249239477539,1.34705,94.5303439477539Q1.26133,94.43575394775391,1.18035,94.33707394775391Q1.09936,94.23840394775391,1.02332,94.1358639477539Q0.947278,94.0333339477539,0.876358,93.9271939477539Q0.805438,93.82105394775391,0.739811,93.7115639477539Q0.674184,93.60207394775391,0.614009,93.4894939477539Q0.553834,93.3769139477539,0.499256,93.2615239477539Q0.444677,93.1461239477539,0.395826,93.0281839477539Q0.346976,92.9102539477539,0.303971,92.79006394775391Q0.260966,92.66986394775391,0.22391,92.5477139477539Q0.186855,92.42555394775391,0.155837,92.3017339477539Q0.12482,92.1779039477539,0.0999165,92.05270394775391Q0.0750127,91.9275039477539,0.0562821,91.8012339477539Q0.0375516,91.67496394775391,0.0250394,91.5479239477539Q0.0125273,91.42088394775391,0.00626363,91.29338394775391Q0,91.16588394775391,0,91.03823394775391Q0,90.9105839477539,0.00626363,90.78308394775391Q0.0125273,90.65558394775391,0.0250394,90.5285439477539Q0.0375516,90.40150394775391,0.0562821,90.2752339477539Q0.0750127,90.14896394775391,0.0999165,90.0237639477539Q0.12482,89.8985639477539,0.155837,89.7747339477539Q0.186855,89.6509139477539,0.22391,89.52875394775391Q0.260966,89.4065939477539,0.303971,89.28640394775391Q0.346976,89.1662139477539,0.395826,89.0482839477539Q0.444677,88.93034394775391,0.499256,88.8149439477539Q0.553834,88.69955394775391,0.614009,88.5869739477539Q0.674184,88.47439394775391,0.739811,88.3649039477539Q0.805438,88.2554039477539,0.876358,88.14926394775391Q0.947278,88.0431339477539,1.02332,87.94059394775391Q1.09936,87.83806394775391,1.18035,87.73938394775391Q1.26133,87.64071394775391,1.34705,87.54612394775391Q1.43278,87.4515439477539,1.52304,87.3612739477539Q1.61331,87.2710139477539,1.70789,87.1852839477539Q1.80248,87.09956394775391,1.90115,87.01858394775391Q1.99983,86.93759394775391,2.10236,86.8615539477539Q2.2049,86.7855119477539,2.31103,86.7145919477539Q2.41717,86.6436719477539,2.52667,86.57804494775391Q2.63616,86.5124179477539,2.74874,86.4522429477539Q2.86132,86.3920679477539,2.97671,86.33748994775391Q3.09211,86.2829109477539,3.21005,86.2340599477539Q3.32798,86.1852099477539,3.44817,86.14220494775391Q3.56836,86.0991999477539,3.69052,86.06214394775391Q3.81268,86.0250889477539,3.9365,85.99407094775391Q4.06033,85.9630539477539,4.18553,85.93815044775391Q4.31073,85.91324664775391,4.437,85.89451604775391Q4.56327,85.8757855477539,4.69031,85.8632733477539Q4.81735,85.85076124775391,4.94485,85.84449757775391Q5.07235,85.8382339477539,5.2,85.8382339477539Q5.32765,85.8382339477539,5.45515,85.84449757775391Q5.58265,85.85076124775391,5.70969,85.8632733477539Q5.83673,85.8757855477539,5.963,85.89451604775391Q6.08927,85.91324664775391,6.21447,85.93815044775391Q6.33967,85.9630539477539,6.4635,85.99407094775391Q6.58732,86.0250889477539,6.70948,86.06214394775391Q6.83163,86.0991999477539,6.95183,86.14220494775391Q7.07202,86.1852099477539,7.18995,86.2340599477539Q7.30789,86.2829109477539,7.42329,86.33748994775391Q7.53868,86.3920679477539,7.65126,86.4522429477539Q7.76384,86.5124179477539,7.87333,86.57804494775391Q7.98282,86.6436719477539,8.08896,86.7145919477539Q8.1951,86.7855119477539,8.29763,86.8615539477539Q8.40017,86.93759394775391,8.49884,87.01858394775391Q8.59752,87.09956394775391,8.69211,87.1852839477539Q8.78669,87.2710139477539,8.87695,87.3612739477539Q8.96722,87.4515439477539,9.05295,87.54612394775391Q9.13867,87.64071394775391,9.21965,87.73938394775391Q9.30063,87.83806394775391,9.37668,87.94059394775391Q9.45272,88.0431339477539,9.52364,88.14926394775391Q9.59456,88.2554039477539,9.66019,88.3649039477539Q9.72581,88.47439394775391,9.78599,88.5869739477539Q9.84616,88.69955394775391,9.90074,88.8149439477539Q9.95532,88.93034394775391,10.0042,89.0482839477539Q10.053,89.1662139477539,10.096,89.28640394775391Q10.139,89.4065939477539,10.1761,89.52875394775391Q10.2131,89.6509139477539,10.2442,89.7747339477539Q10.2752,89.8985639477539,10.3001,90.0237639477539Q10.325,90.14896394775391,10.3437,90.2752339477539Q10.3624,90.40150394775391,10.375,90.5285439477539Q10.3875,90.65558394775391,10.3937,90.78308394775391Q10.4,90.9105839477539,10.4,91.03823394775391Z" fill="#EEEEEE" fill-opacity="1"/></g></g></svg>