<svg xmlns="http://www.w3.org/2000/svg" xmlns:xlink="http://www.w3.org/1999/xlink" fill="none" version="1.1" width="256" height="256" viewBox="0 0 256 256"><defs><clipPath id="master_svg0_14_57"><rect x="0" y="0" width="256" height="256" rx="0"/></clipPath></defs><g clip-path="url(#master_svg0_14_57)"><g><path d="M243.60009765625,186.20001171875C230.20009765625,193.20001171875,160.80009765625,221.60001171875,146.00009765625,229.40001171875C131.20009765625,237.20001171875,123.00009765625,237.00001171875,111.40009765625,231.40001171875C99.80009765625,225.80001171875,26.00009765625,196.20001171875,12.60009765625,189.80001171875C6.00009765625,186.60001171875,2.60009765625,184.00001171875,2.60009765625,181.40001171875L2.60009765625,156.00001171875Q98.60009765625,135.00000171875,114.20009765625,129.60000171875C129.80009765625,124.00001171875,135.00009765625,123.80000171875,148.20009765625,128.60000171875C161.40009765625,133.40001171875,240.40009765625,147.60001171875,253.40009765625,152.40001171875L253.40009765625,177.40001171875C253.40009765625,180.00001171875,250.40009765625,182.80001171875,243.60009765625,186.20001171875Z" fill="#242424" fill-opacity="1"/></g><g><path d="M243.600435546875,160.9999873046875C230.200435546875,167.9999873046875,160.800435546875,196.3999873046875,146.000435546875,204.1999873046875C131.200435546875,211.9999873046875,123.000435546875,211.7999873046875,111.400435546875,206.1999873046875C99.800035546875,200.5999873046875,26.000035546875,170.7999873046875,12.600035546875,164.3999873046875C-0.5999844531249998,157.9999873046875,-0.9999844531250002,153.5999873046875,12.000015546875,148.5999873046875C25.000035546875,143.3999873046875,98.400035546875,114.5999873046875,114.000435546875,109.1999773046875C129.60043554687502,103.5999873046875,134.800435546875,103.3999773046875,148.000435546875,108.1999773046875C161.200435546875,112.9999873046875,230.200435546875,140.3999873046875,243.200435546875,145.1999873046875C256.600435546875,149.9999873046875,257.000435546875,153.9999873046875,243.600435546875,160.9999873046875Z" fill="#383838" fill-opacity="1"/></g><g><path d="M243.60009765625,144.9999873046875C230.20009765625,151.9999873046875,160.80009765625,180.3999873046875,146.00009765625,188.1999873046875C131.20009765625,195.7999873046875,123.00009765625,195.7999873046875,111.40009765625,190.1999873046875C99.80009765625,184.5999873046875,26.00009765625,154.7999873046875,12.60009765625,148.3999873046875C6.00009765625,145.1999873046875,2.60009765625,142.5999873046875,2.60009765625,139.9999873046875L2.60009765625,114.5999873046875Q98.60009765625,93.5999873046875,114.20009765625,88.1999773046875C129.80009765625,82.5999873046875,135.00009765625,82.3999773046875,148.20009765625,87.1999773046875C161.40009765625,91.9999873046875,240.40009765625,106.1999873046875,253.40009765625,110.9999873046875L253.40009765625,135.9999873046875C253.40009765625,138.5999873046875,250.40009765625,141.3999873046875,243.60009765625,144.9999873046875Z" fill="#242424" fill-opacity="1"/></g><g><path d="M243.599705078125,119.60002392578124C230.199705078125,126.60002392578124,160.799705078125,155.00002392578125,145.999705078125,162.80002392578126C131.199705078125,170.40002392578126,122.999705078125,170.40002392578126,111.399705078125,164.80002392578126C99.800005078125,159.20002392578124,26.000005078125,129.40002392578126,12.600005078125,123.00002392578125C-0.800024921875,116.60002392578124,-1.0000249218750001,112.20002392578125,11.999975078125,107.20002392578125C25.000005078125,102.00002392578125,98.400005078125,73.20001392578125,113.999705078125,67.80001392578124C129.599705078125,62.20001392578125,134.799705078125,62.000013925781246,147.999705078125,66.80001392578124C161.199705078125,71.60001392578125,230.199705078125,99.00002392578125,243.199705078125,103.80002392578125C256.599705078125,108.60002392578124,256.999705078125,112.60002392578124,243.599705078125,119.60002392578124Z" fill="#383838" fill-opacity="1"/></g><g><path d="M243.59990234375,101.99999951171876C230.19990234375,108.99999951171876,160.79990234375,137.39999951171876,145.99990234375,145.19999951171874C131.19990234375,152.79999951171874,122.99990234375,152.79999951171874,111.39990234375,147.19999951171874C99.79990234375,141.79999951171874,25.99990234375,111.99999951171876,12.59990234375,105.59999951171875C5.99990234375,102.39999951171875,2.39990234375,99.79999951171875,2.39990234375,97.19999951171874L2.39990234375,71.79999951171875Q98.39990234375,50.79998951171875,113.99990234375,45.39998951171875C129.59990234375,39.79998951171875,134.79990234375,39.599989511718746,147.99990234375,44.39998951171875C161.19990234375,49.19998951171875,240.19990234375,63.39999951171875,253.19990234375,68.19999951171874L253.19990234375,93.19999951171874C253.39990234375,95.79999951171875,250.39990234375,98.39999951171875,243.59990234375,101.99999951171876Z" fill="#242424" fill-opacity="1"/></g><g><path d="M243.599705078125,76.6000361328125C230.199705078125,83.6000361328125,160.799705078125,112.0000361328125,145.999705078125,119.8000361328125C131.199705078125,127.4000361328125,122.999705078125,127.4000361328125,111.399705078125,121.8000361328125C99.800005078125,116.2000361328125,26.000005078125,86.6000361328125,12.600005078125,80.2000361328125C-0.800024921875,73.8000361328125,-1.0000249218750001,69.4000361328125,11.999975078125,64.4000361328125C25.000005078125,59.2000361328125,98.400005078125,30.4000261328125,113.999705078125,25.0000261328125C129.599705078125,19.4000261328125,134.799705078125,19.2000261328125,147.999705078125,24.0000261328125C161.199705078125,28.800026132812498,230.199705078125,56.2000361328125,243.199705078125,61.0000361328125C256.599705078125,65.8000361328125,256.999705078125,69.8000361328125,243.599705078125,76.6000361328125Z" fill="#383838" fill-opacity="1"/></g><g><path d="M132.9332,95.9542L177.5557,95.9542C178.1343,95.9661,178.6981,95.7321,179.14679999999998,95.2937C179.59550000000002,94.8552,179.9004,94.2406,180.007,93.5586L183.951,67.55887C184.027,67.10422,184.015,66.63432,183.912,66.18685C183.81,65.73943,183.622,65.32685,183.363,64.982241C183.10399999999998,64.637579,182.781,64.370439,182.421,64.20225C182.06,64.0340037,181.672,63.9693461,181.286,64.0134632L110.9382,64.0134806L86.34323,64.0134806C85.75958,64.0167956,85.1952,64.264386,84.74763,64.713462C84.30001,65.16248,83.9973,65.78478,83.89174,66.47289L80.0279606,92.5046C79.9738972,92.93469999999999,79.99843061,93.3737,80.0998619,93.7913C80.201294,94.2089,80.377202,94.5951,80.615418,94.92320000000001C80.853632,95.2512,81.14847,95.5133,81.47952,95.6913C81.81057,95.8694,82.16994,95.9591,82.53276,95.9542L106.2484,95.9542L96.8155,159.9953L123.5,159.9953L96.8155,160L92.6324,188.583C92.5828,189.007,92.6099,189.44,92.71170000000001,189.852C92.8135,190.263,92.9877,190.643,93.2225,190.96699999999998C93.4574,191.291,93.7474,191.551,94.0731,191.72899999999998C94.3988,191.90699999999998,94.7525,191.999,95.1105,192L116.721,192C117.2926,191.99200000000002,117.8447,191.75,118.2858,191.315C118.7269,190.87900000000002,119.0304,190.276,119.1459,189.60500000000002L123.5,159.9953L123.5156,159.9953L132.9332,95.9542Z" fill-rule="evenodd" fill="#FFFFFF" fill-opacity="1"/></g></g></svg>