<svg xmlns="http://www.w3.org/2000/svg" xmlns:xlink="http://www.w3.org/1999/xlink" fill="none" version="1.1" width="142.2760009765625" height="106.3199462890625" viewBox="0 0 142.2760009765625 106.3199462890625"><g><g><path d="M70.30000038146973,105.32000002861022C98.30000038146973,105.32000002861022,121.00000038146973,82.62000002861024,121.00000038146973,54.52000002861023C121.00000038146973,26.42000002861023,98.20000038146972,3.7200000286102295,70.30000038146973,3.7200000286102295C42.30000038146973,3.7200000286102295,19.600000381469727,26.42000002861023,19.600000381469727,54.52000002861023C19.600000381469727,82.62000002861024,42.30000038146973,105.32000002861022,70.30000038146973,105.32000002861022Z" fill="#EEEEEE" fill-opacity="1"/><path d="M117.93690038146973,74.70100002861022Q122.00000038146973,65.07300002861024,122.00000038146973,54.52000002861023Q122.00000038146973,43.97120002861023,117.92250038146973,34.338000028610224Q113.98870038146973,25.04440002861023,106.81960038146973,17.87540002861023Q99.65830038146973,10.71417002861023,90.38220038146973,6.785130028610229Q80.78470038146972,2.7200020286102293,70.30000038146973,2.7200040286102296Q59.78050038146973,2.7200000286102295,50.17590038146973,6.78502002861023Q40.89590038146973,10.712620028610228,33.74240038146973,17.875900028610232Q26.586650381469727,25.04140002861023,22.663060381469727,34.33900002861023Q18.600004381469727,43.96710002861023,18.600004381469727,54.52000002861023Q18.600000381469727,65.07280002861023,22.663050381469727,74.70100002861022Q26.58662038146973,83.99860002861023,33.74240038146973,91.16410002861024Q40.89590038146973,98.32740002861023,50.17590038146973,102.25500002861023Q59.78050038146973,106.32000002861022,70.30000038146973,106.32000002861022Q80.81950038146972,106.32000002861022,90.42410038146973,102.25500002861023Q99.70410038146973,98.32740002861023,106.85760038146972,91.16410002861024Q114.01330038146973,83.99870002861023,117.93690038146973,74.70100002861022ZM116.08070038146973,35.11760002861023Q120.00000038146973,44.377000028610226,120.00000038146973,54.52000002861023Q120.00000038146973,64.66820002861023,116.09430038146972,73.92340002861023Q112.32240038146972,82.86160002861023,105.44240038146972,89.75090002861023Q98.56480038146972,96.63780002861023,89.64460038146973,100.41310002861023Q80.41370038146972,104.32000002861022,70.30000038146973,104.32000002861022Q60.18630038146973,104.32000002861022,50.95540038146973,100.41310002861023Q42.035100381469725,96.63780002861023,35.15760038146973,89.75090002861023Q28.277550381469727,82.86140002861023,24.505700381469726,73.92340002861023Q20.600000381469727,64.66820002861023,20.600000381469727,54.52000002861023Q20.600000381469727,44.37180002861023,24.505700381469726,35.11660002861023Q28.277570381469726,26.17850002861023,35.15760038146973,19.28910002861023Q42.035100381469725,12.402220028610229,50.95540038146973,8.62685002861023Q60.18630038146973,4.7200000286102295,70.30000038146973,4.7200000286102295Q80.37860038146972,4.7200000286102295,89.60220038146973,8.626750028610228Q98.51960038146973,12.40385002861023,105.40540038146973,19.28960002861023Q112.29880038146973,26.18300002861023,116.08070038146973,35.11760002861023Z" fill-rule="evenodd" fill="#DDDDDD" fill-opacity="1"/></g><g><path d="M22.3,21.120000457763673C23.846,21.120000457763673,25.1,19.870000457763673,25.1,18.320000457763673C25.1,16.770000457763672,23.846,15.520000457763672,22.3,15.520000457763672C20.754,15.520000457763672,19.5,16.770000457763672,19.5,18.320000457763673C19.5,19.870000457763673,20.754,21.120000457763673,22.3,21.120000457763673Z" fill="#DDDDDD" fill-opacity="1"/></g><g><path d="M10.4,69.92000122070313Q10.4,70.04765122070313,10.3937,70.17515122070313Q10.3875,70.30265122070313,10.375,70.42969122070312Q10.3624,70.55673122070313,10.3437,70.68300122070312Q10.325,70.80927122070312,10.3001,70.93447122070313Q10.2752,71.05967122070312,10.2442,71.18350122070312Q10.2131,71.30732122070313,10.1761,71.42948122070312Q10.139,71.55163122070313,10.096,71.67183122070313Q10.053,71.79202122070312,10.0042,71.90995122070312Q9.95532,72.02789122070313,9.90074,72.14329122070312Q9.84616,72.25868122070312,9.78599,72.37126122070312Q9.72581,72.48384122070313,9.66019,72.59333122070312Q9.59456,72.70282122070313,9.52364,72.80896122070313Q9.45272,72.91510122070312,9.37668,73.01763122070312Q9.30064,73.12017122070313,9.21965,73.21884122070313Q9.13867,73.31752122070313,9.05294,73.41211122070312Q8.96722,73.50669122070312,8.87695,73.59695122070312Q8.78669,73.68722122070312,8.69211,73.77295122070312Q8.59752,73.85867122070313,8.49884,73.93965122070313Q8.40017,74.02063122070312,8.29763,74.09668122070312Q8.1951,74.17272122070312,8.08896,74.24364122070313Q7.98282,74.31456122070313,7.87333,74.38019122070313Q7.76384,74.44581122070312,7.65126,74.50599122070312Q7.53868,74.56616122070312,7.42329,74.62074122070312Q7.30789,74.67532122070313,7.18995,74.72420122070312Q7.07202,74.77300122070312,6.95183,74.81600122070313Q6.83163,74.85900122070312,6.70948,74.89610122070313Q6.58732,74.93310122070312,6.4635,74.96420122070313Q6.33967,74.99520122070312,6.21447,75.02010122070313Q6.08927,75.04500122070313,5.963,75.06370122070312Q5.83673,75.08240122070312,5.70969,75.09500122070312Q5.58265,75.10750122070313,5.45515,75.11370122070312Q5.32765,75.12000122070313,5.2,75.12000122070313Q5.07235,75.12000122070313,4.94485,75.11370122070312Q4.81735,75.10750122070313,4.69031,75.09500122070312Q4.56327,75.08240122070312,4.437,75.06370122070312Q4.31073,75.04500122070313,4.18553,75.02010122070313Q4.06033,74.99520122070312,3.9365,74.96420122070313Q3.81268,74.93310122070312,3.69052,74.89610122070313Q3.56836,74.85900122070312,3.44817,74.81600122070313Q3.32798,74.77300122070312,3.21005,74.72420122070312Q3.09211,74.67532122070313,2.97671,74.62074122070312Q2.86132,74.56616122070312,2.74874,74.50599122070312Q2.63616,74.44581122070312,2.52667,74.38019122070313Q2.41717,74.31456122070313,2.31103,74.24364122070313Q2.2049,74.17272122070312,2.10236,74.09668122070312Q1.99983,74.02064122070313,1.90115,73.93965122070313Q1.80248,73.85867122070313,1.70789,73.77294122070313Q1.61331,73.68722122070312,1.52304,73.59695122070312Q1.43278,73.50669122070312,1.34705,73.41211122070312Q1.26133,73.31752122070313,1.18035,73.21884122070313Q1.09936,73.12017122070313,1.02332,73.01763122070312Q0.947278,72.91510122070312,0.876358,72.80896122070313Q0.805438,72.70282122070313,0.739811,72.59333122070312Q0.674184,72.48384122070313,0.614009,72.37126122070312Q0.553834,72.25868122070312,0.499256,72.14329122070312Q0.444677,72.02789122070313,0.395826,71.90995122070312Q0.346976,71.79202122070312,0.303971,71.67183122070313Q0.260966,71.55163122070313,0.22391,71.42948122070312Q0.186855,71.30732122070313,0.155837,71.18350122070312Q0.12482,71.05967122070312,0.0999165,70.93447122070313Q0.0750127,70.80927122070312,0.0562821,70.68300122070312Q0.0375516,70.55673122070313,0.0250394,70.42969122070312Q0.0125273,70.30265122070313,0.00626363,70.17515122070313Q0,70.04765122070313,0,69.92000122070313Q0,69.79235122070313,0.00626363,69.66485122070313Q0.0125273,69.53735122070313,0.0250394,69.41031122070312Q0.0375516,69.28327122070313,0.0562821,69.15700122070312Q0.0750127,69.03073122070313,0.0999165,68.90553122070312Q0.12482,68.78033122070312,0.155837,68.65650122070312Q0.186855,68.53268122070313,0.22391,68.41052122070313Q0.260966,68.28836122070312,0.303971,68.16817122070313Q0.346976,68.04798122070312,0.395826,67.93005122070312Q0.444677,67.81211122070313,0.499256,67.69671122070312Q0.553834,67.58132122070313,0.614009,67.46874122070312Q0.674184,67.35616122070313,0.739811,67.24667122070312Q0.805438,67.13717122070312,0.876358,67.03103122070313Q0.947278,66.92490122070312,1.02332,66.82236122070313Q1.09936,66.71983122070313,1.18035,66.62115122070313Q1.26133,66.52248122070313,1.34705,66.42789122070313Q1.43278,66.33331122070312,1.52304,66.24304122070312Q1.61331,66.15278122070312,1.70789,66.06705122070312Q1.80248,65.98133122070313,1.90115,65.90035122070313Q1.99983,65.81936122070313,2.10236,65.74332122070312Q2.2049,65.66727922070312,2.31103,65.59635922070312Q2.41717,65.52543922070312,2.52667,65.45981222070313Q2.63616,65.39418522070312,2.74874,65.33401022070312Q2.86132,65.27383522070312,2.97671,65.21925722070313Q3.09211,65.16467822070312,3.21005,65.11582722070312Q3.32798,65.06697722070312,3.44817,65.02397222070313Q3.56836,64.98096722070312,3.69052,64.94391122070313Q3.81268,64.90685622070312,3.9365,64.87583822070313Q4.06033,64.84482122070312,4.18553,64.81991772070313Q4.31073,64.79501392070313,4.437,64.77628332070313Q4.56327,64.75755282070313,4.69031,64.74504062070312Q4.81735,64.73252852070313,4.94485,64.72626485070313Q5.07235,64.72000122070312,5.2,64.72000122070312Q5.32765,64.72000122070312,5.45515,64.72626485070313Q5.58265,64.73252852070313,5.70969,64.74504062070312Q5.83673,64.75755282070313,5.963,64.77628332070313Q6.08927,64.79501392070313,6.21447,64.81991772070313Q6.33967,64.84482122070312,6.4635,64.87583822070313Q6.58732,64.90685622070312,6.70948,64.94391122070313Q6.83163,64.98096722070312,6.95183,65.02397222070313Q7.07202,65.06697722070312,7.18995,65.11582722070312Q7.30789,65.16467822070312,7.42329,65.21925722070313Q7.53868,65.27383522070312,7.65126,65.33401022070312Q7.76384,65.39418522070312,7.87333,65.45981222070313Q7.98282,65.52543922070312,8.08896,65.59635922070312Q8.1951,65.66727922070312,8.29763,65.74332122070312Q8.40017,65.81936122070313,8.49884,65.90035122070313Q8.59752,65.98133122070313,8.69211,66.06705122070312Q8.78669,66.15278122070312,8.87695,66.24304122070312Q8.96722,66.33331122070312,9.05295,66.42789122070313Q9.13867,66.52248122070313,9.21965,66.62115122070313Q9.30063,66.71983122070313,9.37668,66.82236122070313Q9.45272,66.92490122070312,9.52364,67.03103122070313Q9.59456,67.13717122070312,9.66019,67.24667122070312Q9.72581,67.35616122070313,9.78599,67.46874122070312Q9.84616,67.58132122070313,9.90074,67.69671122070312Q9.95532,67.81211122070313,10.0042,67.93005122070312Q10.053,68.04798122070312,10.096,68.16817122070313Q10.139,68.28836122070312,10.1761,68.41052122070313Q10.2131,68.53268122070313,10.2442,68.65650122070312Q10.2752,68.78033122070312,10.3001,68.90553122070312Q10.325,69.03073122070313,10.3437,69.15700122070312Q10.3624,69.28327122070313,10.375,69.41031122070312Q10.3875,69.53735122070313,10.3937,69.66485122070313Q10.4,69.79235122070313,10.4,69.92000122070313Z" fill="#DDDDDD" fill-opacity="1"/></g><g><path d="M118.6110005493164,27.840000076293947L118.6110005493164,86.68000007629394C118.6110005493164,88.40000007629394,117.17300054931641,89.84000007629395,115.44600054931641,89.84000007629395L26.039000549316405,89.84000007629395C24.313000549316406,89.91000007629394,22.874000549316406,88.47000007629394,22.874000549316406,86.75000007629394L22.874000549316406,27.840000076293947C22.874000549316406,26.040000076293946,24.313000549316406,24.670000076293945,26.039000549316405,24.670000076293945L115.44600054931641,24.670000076293945C117.24400054931641,24.670000076293945,118.6110005493164,26.110000076293947,118.6110005493164,27.840000076293947Z" fill="#FFFFFF" fill-opacity="1"/><path d="M118.3830005493164,89.61230007629395Q119.6110005493164,88.38510007629395,119.6110005493164,86.68000007629394L119.6110005493164,27.840000076293947Q119.6110005493164,26.120910076293946,118.4159005493164,24.905202076293946Q117.20160054931641,23.670000076293945,115.44600054931641,23.670000076293945L26.039000549316405,23.670000076293945Q24.321960549316405,23.670000076293945,23.107110549316406,24.867962076293946Q21.874000549316406,26.083930076293946,21.874000549316406,27.840000076293947L21.874000549316406,86.75000007629394Q21.874000549316406,88.46500007629395,23.107896549316408,89.67910007629395Q24.350080549316406,90.90130007629395,26.057960549316405,90.84000007629395L115.44600054931641,90.84000007629395Q117.15450054931641,90.84000007629395,118.3830005493164,89.61230007629395ZM117.6110005493164,27.840000076293947L117.6110005493164,86.68000007629394Q117.6110005493164,87.55630007629395,116.96920054931641,88.19770007629396Q116.3265005493164,88.84000007629395,115.44600054931641,88.84000007629395L26.018730549316405,88.84000007629395L25.998480549316405,88.84080007629395Q25.142850549316407,88.87550007629395,24.510600549316408,88.25340007629394Q23.874000549316406,87.62710007629394,23.874000549316406,86.75000007629394L23.874000549316406,27.840000076293947Q23.874000549316406,26.920570076293945,24.511390549316406,26.292040076293944Q25.142200549316406,25.670000076293945,26.039000549316405,25.670000076293945L115.44600054931641,25.670000076293945Q116.3631005493164,25.670000076293945,116.9896005493164,26.307300076293945Q117.6110005493164,26.939350076293945,117.6110005493164,27.840000076293947Z" fill-rule="evenodd" fill="#DDDDDD" fill-opacity="1"/></g><g><path d="M118.6110005493164,27.840000076293947L118.6110005493164,32.37000007629395L22.874000549316406,32.37000007629395L22.874000549316406,27.840000076293947C22.874000549316406,26.040000076293946,24.313000549316406,24.670000076293945,26.039000549316405,24.670000076293945L115.44600054931641,24.670000076293945C117.24400054931641,24.670000076293945,118.6110005493164,26.110000076293947,118.6110005493164,27.840000076293947Z" fill="#EEEEEE" fill-opacity="1"/><path d="M21.874000549316406,33.37000007629395L119.6110005493164,33.37000007629395L119.6110005493164,27.840000076293947Q119.6110005493164,26.120910076293946,118.4159005493164,24.905202076293946Q117.20160054931641,23.670000076293945,115.44600054931641,23.670000076293945L26.039000549316405,23.670000076293945Q24.321960549316405,23.670000076293945,23.107110549316406,24.867962076293946Q21.874000549316406,26.083930076293946,21.874000549316406,27.840000076293947L21.874000549316406,33.37000007629395ZM117.6110005493164,31.370000076293945L117.6110005493164,27.840000076293947Q117.6110005493164,26.939350076293945,116.9896005493164,26.307300076293945Q116.3631005493164,25.670000076293945,115.44600054931641,25.670000076293945L26.039000549316405,25.670000076293945Q25.142200549316406,25.670000076293945,24.511390549316406,26.292040076293944Q23.874000549316406,26.920570076293945,23.874000549316406,27.840000076293947L23.874000549316406,31.370000076293945L117.6110005493164,31.370000076293945Z" fill-rule="evenodd" fill="#DDDDDD" fill-opacity="1"/></g><g><path d="M60.20499996948242,52.50999847412109Q60.20499996948242,52.640678474121096,60.192179969482424,52.77072847412109Q60.17936996948242,52.900768474121094,60.153859969482426,53.02893847412109Q60.12834996948242,53.157108474121095,60.09039996948242,53.2821584741211Q60.05243996948242,53.40720847412109,60.002399969482425,53.52793847412109Q59.95236996948242,53.648668474121095,59.89072996948242,53.76391847412109Q59.82909996948242,53.87915847412109,59.75645996948242,53.98781847412109Q59.68381996948242,54.096468474121096,59.600869969482424,54.197488474121094Q59.51791996948242,54.2984984741211,59.42545996948242,54.390898474121094Q59.33300996948242,54.483308474121095,59.231939969482426,54.5662084741211Q59.13086996948242,54.64910847412109,59.02214996948242,54.721708474121094Q58.91342996948242,54.794308474121095,58.79811996948242,54.855908474121094Q58.68280996948242,54.91750847412109,58.562009969482425,54.96751847412109Q58.44120996948242,55.01752847412109,58.31608996948242,55.055458474121096Q58.190969969482424,55.09338847412109,58.06272996948242,55.11888847412109Q57.93448996948242,55.1443784741211,57.80436996948242,55.15718847412109Q57.674249969482425,55.169998474121094,57.543499969482426,55.169998474121094Q57.41274996948242,55.169998474121094,57.28262996948242,55.15718847412109Q57.15250996948242,55.1443784741211,57.02426996948242,55.11888847412109Q56.89602996948242,55.09338847412109,56.770909969482425,55.055458474121096Q56.64578996948242,55.01752847412109,56.52498996948242,54.96751847412109Q56.404189969482424,54.91750847412109,56.28887996948242,54.855908474121094Q56.17356996948242,54.794308474121095,56.064849969482424,54.721708474121094Q55.95612996948242,54.64910847412109,55.85506196948242,54.5662084741211Q55.75398996948242,54.483308474121095,55.661534969482425,54.390898474121094Q55.569079969482424,54.2984984741211,55.48613296948242,54.197488474121094Q55.403184969482425,54.096468474121096,55.33054396948242,53.98781847412109Q55.257901969482425,53.87915847412109,55.19626696948242,53.76391847412109Q55.13463096948242,53.648668474121095,55.084594969482424,53.52793847412109Q55.03455796948242,53.40720847412109,54.996602969482424,53.2821584741211Q54.95864816948242,53.157108474121095,54.93313996948242,53.02893847412109Q54.90763166948242,52.900768474121094,54.89481576948242,52.77072847412109Q54.88199996948242,52.640678474121096,54.88199996948242,52.50999847412109Q54.88199996948242,52.37931847412109,54.89481576948242,52.249268474121095Q54.90763166948242,52.119228474121094,54.93313996948242,51.9910584741211Q54.95864816948242,51.86288847412109,54.996602969482424,51.73783847412109Q55.03455796948242,51.612788474121096,55.084594969482424,51.492058474121094Q55.13463096948242,51.37132847412109,55.19626696948242,51.2560784741211Q55.257901969482425,51.1408384741211,55.33054396948242,51.032178474121096Q55.403184969482425,50.92352847412109,55.48613296948242,50.82251247412109Q55.569079969482424,50.721497474121094,55.661534969482425,50.629094474121096Q55.75398996948242,50.53669147412109,55.85506196948242,50.45379047412109Q55.95612996948242,50.37088947412109,56.064849969482424,50.29828947412109Q56.17356996948242,50.22568847412109,56.28887996948242,50.1640874741211Q56.404189969482424,50.10248647412109,56.52498996948242,50.052478474121095Q56.64578996948242,50.0024704741211,56.770909969482425,49.964537474121094Q56.89602996948242,49.926603474121094,57.02426996948242,49.901109574121094Q57.15250996948242,49.875615774121094,57.28262996948242,49.86280707412109Q57.41274996948242,49.849998474121094,57.543499969482426,49.849998474121094Q57.674249969482425,49.849998474121094,57.80436996948242,49.86280707412109Q57.93448996948242,49.875615774121094,58.06272996948242,49.901109574121094Q58.190969969482424,49.926603474121094,58.31608996948242,49.964537474121094Q58.44120996948242,50.0024704741211,58.562009969482425,50.052478474121095Q58.68280996948242,50.10248647412109,58.79811996948242,50.1640874741211Q58.91342996948242,50.22568847412109,59.02214996948242,50.29828947412109Q59.13086996948242,50.37088947412109,59.231939969482426,50.45379047412109Q59.33300996948242,50.53669147412109,59.42545996948242,50.629094474121096Q59.51791996948242,50.721497474121094,59.600869969482424,50.82251247412109Q59.68381996948242,50.92352847412109,59.75645996948242,51.032178474121096Q59.82909996948242,51.1408384741211,59.89072996948242,51.2560784741211Q59.95236996948242,51.37132847412109,60.002399969482425,51.492058474121094Q60.05243996948242,51.612788474121096,60.09039996948242,51.73783847412109Q60.12834996948242,51.86288847412109,60.153859969482426,51.9910584741211Q60.17936996948242,52.119228474121094,60.192179969482424,52.249268474121095Q60.20499996948242,52.37931847412109,60.20499996948242,52.50999847412109Z" fill="#A6A6A6" fill-opacity="1"/></g><g><path d="M86.67499737548829,52.50999847412109Q86.67499737548829,52.640678474121096,86.66217737548828,52.77072847412109Q86.64936737548828,52.900768474121094,86.62385737548829,53.02893847412109Q86.59834737548829,53.157108474121095,86.56039737548828,53.2821584741211Q86.52243737548828,53.40720847412109,86.47239737548828,53.52793847412109Q86.42236737548828,53.648668474121095,86.36072737548828,53.76391847412109Q86.29909737548829,53.87915847412109,86.22645737548828,53.98781847412109Q86.15381737548829,54.096468474121096,86.07086737548828,54.197488474121094Q85.98791737548828,54.2984984741211,85.89545737548828,54.390898474121094Q85.80300737548828,54.483308474121095,85.70193737548828,54.5662084741211Q85.60086737548828,54.64910847412109,85.49214737548829,54.721708474121094Q85.38342737548828,54.794308474121095,85.26811737548829,54.855908474121094Q85.15280737548828,54.91750847412109,85.03200737548828,54.96751847412109Q84.91120737548829,55.01752847412109,84.78608737548828,55.055458474121096Q84.66096737548828,55.09338847412109,84.53272737548828,55.11888847412109Q84.40448737548829,55.1443784741211,84.27436737548828,55.15718847412109Q84.14424737548828,55.169998474121094,84.01349737548829,55.169998474121094Q83.88274737548828,55.169998474121094,83.75262737548829,55.15718847412109Q83.62250737548828,55.1443784741211,83.49426737548828,55.11888847412109Q83.36602737548829,55.09338847412109,83.24090737548828,55.055458474121096Q83.11578737548828,55.01752847412109,82.99498737548828,54.96751847412109Q82.87418737548828,54.91750847412109,82.75887737548828,54.855908474121094Q82.64356737548829,54.794308474121095,82.53484737548828,54.721708474121094Q82.42612737548828,54.64910847412109,82.32505937548828,54.5662084741211Q82.22398737548828,54.483308474121095,82.13153237548828,54.390898474121094Q82.03907737548828,54.2984984741211,81.95613037548829,54.197488474121094Q81.87318237548828,54.096468474121096,81.80054137548828,53.98781847412109Q81.72789937548828,53.87915847412109,81.66626437548828,53.76391847412109Q81.60462837548828,53.648668474121095,81.55459237548828,53.52793847412109Q81.50455537548828,53.40720847412109,81.46660037548828,53.2821584741211Q81.42864557548828,53.157108474121095,81.40313737548828,53.02893847412109Q81.37762907548829,52.900768474121094,81.36481317548828,52.77072847412109Q81.35199737548828,52.640678474121096,81.35199737548828,52.50999847412109Q81.35199737548828,52.37931847412109,81.36481317548828,52.249268474121095Q81.37762907548829,52.119228474121094,81.40313737548828,51.9910584741211Q81.42864557548828,51.86288847412109,81.46660037548828,51.73783847412109Q81.50455537548828,51.612788474121096,81.55459237548828,51.492058474121094Q81.60462837548828,51.37132847412109,81.66626437548828,51.2560784741211Q81.72789937548828,51.1408384741211,81.80054137548828,51.032178474121096Q81.87318237548828,50.92352847412109,81.95613037548829,50.82251247412109Q82.03907737548828,50.721497474121094,82.13153237548828,50.629094474121096Q82.22398737548828,50.53669147412109,82.32505937548828,50.45379047412109Q82.42612737548828,50.37088947412109,82.53484737548828,50.29828947412109Q82.64356737548829,50.22568847412109,82.75887737548828,50.1640874741211Q82.87418737548828,50.10248647412109,82.99498737548828,50.052478474121095Q83.11578737548828,50.0024704741211,83.24090737548828,49.964537474121094Q83.36602737548829,49.926603474121094,83.49426737548828,49.901109574121094Q83.62250737548828,49.875615774121094,83.75262737548829,49.86280707412109Q83.88274737548828,49.849998474121094,84.01349737548829,49.849998474121094Q84.14424737548828,49.849998474121094,84.27436737548828,49.86280707412109Q84.40448737548829,49.875615774121094,84.53272737548828,49.901109574121094Q84.66096737548828,49.926603474121094,84.78608737548828,49.964537474121094Q84.91120737548829,50.0024704741211,85.03200737548828,50.052478474121095Q85.15280737548828,50.10248647412109,85.26811737548829,50.1640874741211Q85.38342737548828,50.22568847412109,85.49214737548829,50.29828947412109Q85.60086737548828,50.37088947412109,85.70193737548828,50.45379047412109Q85.80300737548828,50.53669147412109,85.89545737548828,50.629094474121096Q85.98791737548828,50.721497474121094,86.07086737548828,50.82251247412109Q86.15381737548829,50.92352847412109,86.22645737548828,51.032178474121096Q86.29909737548829,51.1408384741211,86.36072737548828,51.2560784741211Q86.42236737548828,51.37132847412109,86.47239737548828,51.492058474121094Q86.52243737548828,51.612788474121096,86.56039737548828,51.73783847412109Q86.59834737548829,51.86288847412109,86.62385737548829,51.9910584741211Q86.64936737548828,52.119228474121094,86.66217737548828,52.249268474121095Q86.67499737548829,52.37931847412109,86.67499737548829,52.50999847412109Z" fill="#A6A6A6" fill-opacity="1"/></g><g><path d="M75.09399890136719,72.6500015258789L66.75099890136718,72.6500015258789C65.45599890136718,72.6500015258789,64.37699890136719,71.57000152587891,64.37699890136719,70.2800015258789C64.37699890136719,68.9800015258789,65.45599890136718,67.9000015258789,66.75099890136718,67.9000015258789L75.02199890136718,67.9000015258789C76.31699890136719,67.9000015258789,77.3959989013672,68.9800015258789,77.3959989013672,70.2800015258789C77.46799890136718,71.57000152587891,76.38899890136719,72.6500015258789,75.09399890136719,72.6500015258789Z" fill="#A6A6A6" fill-opacity="1"/></g><g><path d="M27.117999557495118,29.850000534057617C27.713999557495118,29.850000534057617,28.19699955749512,29.370000534057617,28.19699955749512,28.770000534057615C28.19699955749512,28.180000534057616,27.713999557495118,27.690000534057617,27.117999557495118,27.690000534057617C26.521999557495118,27.690000534057617,26.038999557495117,28.180000534057616,26.038999557495117,28.770000534057615C26.038999557495117,29.370000534057617,26.521999557495118,29.850000534057617,27.117999557495118,29.850000534057617Z" fill="#A6A6A6" fill-opacity="1"/></g><g><path d="M30.498000076293945,29.850000534057617C31.094000076293945,29.850000534057617,31.577000076293945,29.370000534057617,31.577000076293945,28.770000534057615C31.577000076293945,28.180000534057616,31.094000076293945,27.690000534057617,30.498000076293945,27.690000534057617C29.903000076293946,27.690000534057617,29.420000076293945,28.180000534057616,29.420000076293945,28.770000534057615C29.420000076293945,29.370000534057617,29.903000076293946,29.850000534057617,30.498000076293945,29.850000534057617Z" fill="#A6A6A6" fill-opacity="1"/></g><g><path d="M33.95100164794922,29.850000534057617C34.547001647949216,29.850000534057617,35.03000164794922,29.370000534057617,35.03000164794922,28.770000534057615C35.03000164794922,28.180000534057616,34.547001647949216,27.690000534057617,33.95100164794922,27.690000534057617C33.355001647949216,27.690000534057617,32.87200164794922,28.180000534057616,32.87200164794922,28.770000534057615C32.87200164794922,29.370000534057617,33.355001647949216,29.850000534057617,33.95100164794922,29.850000534057617Z" fill="#A6A6A6" fill-opacity="1"/></g><g><path d="M114.72699920654297,17.05C114.00799920654296,17.05,113.43199920654297,16.47,113.43199920654297,15.75L113.43199920654297,1.3C113.43199920654297,0.58,114.00799920654296,0,114.72699920654297,0C115.44599920654296,0,116.02199920654297,0.58,116.02199920654297,1.3L116.02199920654297,15.75C116.02199920654297,16.47,115.44599920654296,17.05,114.72699920654297,17.05Z" fill="#A6A6A6" fill-opacity="1"/></g><g><path d="M125.22899627685547,28.129999923706055C125.22899627685547,27.409999923706053,125.80399627685547,26.829999923706055,126.52299627685547,26.829999923706055L140.98099627685548,26.829999923706055C141.69999627685547,26.829999923706055,142.27599627685547,27.409999923706053,142.27599627685547,28.129999923706055C142.27599627685547,28.839999923706053,141.69999627685547,29.419999923706055,140.98099627685548,29.419999923706055L126.52299627685547,29.419999923706055C125.80399627685547,29.419999923706055,125.22899627685547,28.839999923706053,125.22899627685547,28.129999923706055Z" fill="#A6A6A6" fill-opacity="1"/></g><g><path d="M124.07799694824219,18.770000057220457C123.57399694824218,18.270000057220457,123.57399694824218,17.410000057220458,124.07799694824219,16.90000005722046L134.3629969482422,6.690000057220459C134.8669969482422,6.190000057220459,135.7299969482422,6.190000057220459,136.23399694824218,6.690000057220459C136.7369969482422,7.190000057220459,136.7369969482422,8.06000005722046,136.23399694824218,8.56000005722046L126.01999694824218,18.770000057220457C125.44399694824219,19.28000005722046,124.58099694824219,19.28000005722046,124.07799694824219,18.770000057220457Z" fill="#A6A6A6" fill-opacity="1"/></g></g></svg>