<svg xmlns="http://www.w3.org/2000/svg" xmlns:xlink="http://www.w3.org/1999/xlink" fill="none" version="1.1" width="126.5" height="106.699951171875" viewBox="0 0 126.5 106.699951171875"><g><g><path d="M122.10000076293946,54.899999904632566C122.10000076293946,69.09999990463257,116.30000076293945,81.89999990463257,107.00000076293945,91.09999990463257C97.90000076293946,100.19999990463256,85.30000076293945,105.69999990463256,71.40000076293946,105.69999990463256C57.60000076293945,105.69999990463256,45.00000076293945,100.09999990463257,35.800000762939455,91.09999990463257C26.500000762939454,81.89999990463257,20.700000762939453,69.09999990463257,20.700000762939453,54.899999904632566C20.700000762939453,26.799999904632568,43.400000762939456,4.099999904632568,71.40000076293946,4.099999904632568C99.40000076293946,4.099999904632568,122.10000076293946,26.89999990463257,122.10000076293946,54.899999904632566Z" fill="#181818" fill-opacity="1"/><path d="M118.95730076293945,75.26729990463257Q123.10000076293946,65.55489990463258,123.10000076293946,54.899999904632566Q123.10000076293946,44.381799904632565,119.03680076293945,34.760899904632566Q115.11170076293945,25.46699990463257,107.95810076293945,18.293899904632568Q100.80110076293946,11.117359904632568,91.52510076293946,7.179509904632568Q81.91550076293944,3.0999999046325684,71.40000076293946,3.1000039046325685Q60.880500762939455,3.1000039046325685,51.27590076293946,7.165019904632569Q41.995900762939456,11.092609904632567,34.842400762939455,18.25589990463257Q27.686640762939454,25.42139990463257,23.763050762939454,34.71899990463257Q19.700000762939453,44.34719990463257,19.700000762939453,54.899999904632566Q19.700000762939453,65.55479990463257,23.84268076293945,75.26729990463257Q27.834950762939453,84.62719990463256,35.100700762939454,91.81479990463257Q42.28000076293945,98.83809990463257,51.48850076293945,102.69729990463257Q61.03940076293945,106.69999990463256,71.40000076293946,106.69999990463256Q81.87790076293945,106.69999990463256,91.38490076293945,102.73549990463256Q100.63700076293945,98.87719990463256,107.70330076293945,91.81089990463256Q114.96500076293945,84.62729990463257,118.95730076293945,75.26729990463257ZM117.19440076293945,35.539099904632565Q121.10000076293946,44.78689990463257,121.10000076293946,54.899999904632566Q121.10000076293946,65.14619990463257,117.11770076293945,74.48269990463257Q113.27930076293946,83.48149990463257,106.29670076293945,90.38909990463257Q99.50230076293946,97.18339990463257,90.61510076293945,100.88949990463257Q81.47750076293946,104.69999990463256,71.40000076293946,104.69999990463256Q61.44160076293945,104.69999990463256,52.26150076293945,100.85269990463257Q43.405500762939454,97.14129990463258,36.499300762939455,90.38519990463257Q29.520570762939453,83.48139990463257,25.682320762939455,74.48269990463257Q21.700000762939453,65.14609990463256,21.700000762939453,54.899999904632566Q21.700000762939453,44.751899904632566,25.605700762939453,35.49659990463257Q29.377560762939453,26.55849990463257,36.257600762939454,19.669099904632567Q43.13510076293945,12.782239904632569,52.055400762939456,9.006849904632569Q61.286300762939455,5.099999904632568,71.40000076293946,5.099999904632568Q81.50860076293945,5.099999904632568,90.74360076293945,9.02048990463257Q99.66040076293946,12.805899904632568,106.54190076293945,19.706099904632566Q113.42080076293945,26.603699904632567,117.19440076293945,35.539099904632565Z" fill-rule="evenodd" fill="#5E5E5E" fill-opacity="1"/></g><g><path d="M117.69999847412109,21.599999618530273C119.9639984741211,21.599999618530273,121.7999984741211,19.769999618530274,121.7999984741211,17.499999618530275C121.7999984741211,15.239999618530273,119.9639984741211,13.399999618530273,117.69999847412109,13.399999618530273C115.43499847412109,13.399999618530273,113.5999984741211,15.239999618530273,113.5999984741211,17.499999618530275C113.5999984741211,19.769999618530274,115.43499847412109,21.599999618530273,117.69999847412109,21.599999618530273Z" fill="#5E5E5E" fill-opacity="1"/></g><g><path d="M123.7000015258789,5.6C125.24600152587891,5.6,126.5000015258789,4.35,126.5000015258789,2.8C126.5000015258789,1.25,125.24600152587891,0,123.7000015258789,0C122.1530015258789,0,120.9000015258789,1.25,120.9000015258789,2.8C120.9000015258789,4.35,122.1530015258789,5.6,123.7000015258789,5.6Z" fill="#5E5E5E" fill-opacity="1"/></g><g><path d="M22.3,21.499999618530275C23.846,21.499999618530275,25.1,20.249999618530275,25.1,18.699999618530274C25.1,17.149999618530273,23.846,15.899999618530273,22.3,15.899999618530273C20.753,15.899999618530273,19.5,17.149999618530273,19.5,18.699999618530274C19.5,20.249999618530275,20.753,21.499999618530275,22.3,21.499999618530275Z" fill="#5E5E5E" fill-opacity="1"/></g><g><path d="M10.4,70.2999984741211Q10.4,70.4276484741211,10.3937,70.5551484741211Q10.3875,70.6826484741211,10.375,70.80968847412109Q10.3624,70.9367284741211,10.3437,71.06299847412109Q10.325,71.18926847412109,10.3001,71.3144684741211Q10.2752,71.43966847412109,10.2442,71.56349847412109Q10.2131,71.6873184741211,10.1761,71.8094784741211Q10.139,71.9316284741211,10.096,72.0518284741211Q10.053,72.17201847412109,10.0042,72.28994847412109Q9.95532,72.4078884741211,9.90074,72.52328847412109Q9.84616,72.6386784741211,9.78599,72.75125847412109Q9.72581,72.8638384741211,9.66019,72.97332847412109Q9.59456,73.0828184741211,9.52364,73.1889584741211Q9.45272,73.29509847412109,9.37668,73.39762847412109Q9.30064,73.5001684741211,9.21965,73.5988384741211Q9.13867,73.6975184741211,9.05294,73.7921084741211Q8.96722,73.88668847412109,8.87695,73.97694847412109Q8.78669,74.06721847412109,8.69211,74.15294847412109Q8.59752,74.2386684741211,8.49884,74.3196484741211Q8.40017,74.40062847412109,8.29763,74.47667847412109Q8.1951,74.5527184741211,8.08896,74.6236384741211Q7.98282,74.6945584741211,7.87333,74.7601884741211Q7.76384,74.82580847412109,7.65126,74.88598847412109Q7.53868,74.94615847412109,7.42329,75.00073847412109Q7.30789,75.0553184741211,7.18995,75.10419847412109Q7.07202,75.15299847412109,6.95183,75.1959984741211Q6.83163,75.23899847412109,6.70948,75.2760984741211Q6.58732,75.31309847412109,6.4635,75.3441984741211Q6.33967,75.37519847412109,6.21447,75.4000984741211Q6.08927,75.4249984741211,5.963,75.44369847412109Q5.83673,75.46239847412109,5.70969,75.4749984741211Q5.58265,75.4874984741211,5.45515,75.49369847412109Q5.32765,75.4999984741211,5.2,75.4999984741211Q5.07235,75.4999984741211,4.94485,75.49369847412109Q4.81735,75.4874984741211,4.69031,75.4749984741211Q4.56327,75.46239847412109,4.437,75.44369847412109Q4.31073,75.4249984741211,4.18553,75.4000984741211Q4.06033,75.37519847412109,3.9365,75.3441984741211Q3.81268,75.31309847412109,3.69052,75.2760984741211Q3.56836,75.23899847412109,3.44817,75.1959984741211Q3.32798,75.15299847412109,3.21005,75.10419847412109Q3.09211,75.0553184741211,2.97671,75.00073847412109Q2.86132,74.94615847412109,2.74874,74.88598847412109Q2.63616,74.82580847412109,2.52667,74.7601884741211Q2.41717,74.6945584741211,2.31103,74.6236384741211Q2.2049,74.5527184741211,2.10236,74.47667847412109Q1.99983,74.4006384741211,1.90115,74.3196484741211Q1.80248,74.2386684741211,1.70789,74.1529384741211Q1.61331,74.06721847412109,1.52304,73.97694847412109Q1.43278,73.88668847412109,1.34705,73.7921084741211Q1.26133,73.6975184741211,1.18035,73.5988384741211Q1.09936,73.5001684741211,1.02332,73.39762847412109Q0.947278,73.29509847412109,0.876358,73.1889584741211Q0.805438,73.0828184741211,0.739811,72.97332847412109Q0.674184,72.8638384741211,0.614009,72.75125847412109Q0.553834,72.6386784741211,0.499256,72.52328847412109Q0.444677,72.4078884741211,0.395826,72.28994847412109Q0.346976,72.17201847412109,0.303971,72.0518284741211Q0.260966,71.9316284741211,0.22391,71.8094784741211Q0.186855,71.6873184741211,0.155837,71.56349847412109Q0.12482,71.43966847412109,0.0999165,71.3144684741211Q0.0750127,71.18926847412109,0.0562821,71.06299847412109Q0.0375516,70.9367284741211,0.0250394,70.80968847412109Q0.0125273,70.6826484741211,0.00626363,70.5551484741211Q0,70.4276484741211,0,70.2999984741211Q0,70.1723484741211,0.00626363,70.0448484741211Q0.0125273,69.9173484741211,0.0250394,69.79030847412109Q0.0375516,69.6632684741211,0.0562821,69.53699847412109Q0.0750127,69.4107284741211,0.0999165,69.2855284741211Q0.12482,69.16032847412109,0.155837,69.03649847412109Q0.186855,68.9126784741211,0.22391,68.7905184741211Q0.260966,68.66835847412109,0.303971,68.5481684741211Q0.346976,68.42797847412109,0.395826,68.31004847412109Q0.444677,68.1921084741211,0.499256,68.07670847412109Q0.553834,67.9613184741211,0.614009,67.84873847412109Q0.674184,67.7361584741211,0.739811,67.62666847412109Q0.805438,67.51716847412109,0.876358,67.4110284741211Q0.947278,67.30489847412109,1.02332,67.2023584741211Q1.09936,67.0998284741211,1.18035,67.0011484741211Q1.26133,66.9024784741211,1.34705,66.8078884741211Q1.43278,66.71330847412109,1.52304,66.62303847412109Q1.61331,66.53277847412109,1.70789,66.44704847412109Q1.80248,66.3613284741211,1.90115,66.2803484741211Q1.99983,66.1993584741211,2.10236,66.12331847412109Q2.2049,66.04727647412109,2.31103,65.97635647412109Q2.41717,65.90543647412109,2.52667,65.8398094741211Q2.63616,65.77418247412109,2.74874,65.71400747412109Q2.86132,65.65383247412109,2.97671,65.5992544741211Q3.09211,65.54467547412109,3.21005,65.4958244741211Q3.32798,65.44697447412109,3.44817,65.4039694741211Q3.56836,65.36096447412109,3.69052,65.3239084741211Q3.81268,65.28685347412109,3.9365,65.2558354741211Q4.06033,65.2248184741211,4.18553,65.1999149741211Q4.31073,65.1750111741211,4.437,65.1562805741211Q4.56327,65.1375500741211,4.69031,65.12503787412109Q4.81735,65.1125257741211,4.94485,65.1062621041211Q5.07235,65.0999984741211,5.2,65.0999984741211Q5.32765,65.0999984741211,5.45515,65.1062621041211Q5.58265,65.1125257741211,5.70969,65.12503787412109Q5.83673,65.1375500741211,5.963,65.1562805741211Q6.08927,65.1750111741211,6.21447,65.1999149741211Q6.33967,65.2248184741211,6.4635,65.2558354741211Q6.58732,65.28685347412109,6.70948,65.3239084741211Q6.83163,65.36096447412109,6.95183,65.4039694741211Q7.07202,65.44697447412109,7.18995,65.4958244741211Q7.30789,65.54467547412109,7.42329,65.5992544741211Q7.53868,65.65383247412109,7.65126,65.71400747412109Q7.76384,65.77418247412109,7.87333,65.8398094741211Q7.98282,65.90543647412109,8.08896,65.97635647412109Q8.1951,66.04727647412109,8.29763,66.12331847412109Q8.40017,66.1993584741211,8.49884,66.2803484741211Q8.59752,66.3613284741211,8.69211,66.44704847412109Q8.78669,66.53277847412109,8.87695,66.62303847412109Q8.96722,66.71330847412109,9.05295,66.8078884741211Q9.13867,66.9024784741211,9.21965,67.0011484741211Q9.30063,67.0998284741211,9.37668,67.2023584741211Q9.45272,67.30489847412109,9.52364,67.4110284741211Q9.59456,67.51716847412109,9.66019,67.62666847412109Q9.72581,67.7361584741211,9.78599,67.84873847412109Q9.84616,67.9613184741211,9.90074,68.07670847412109Q9.95532,68.1921084741211,10.0042,68.31004847412109Q10.053,68.42797847412109,10.096,68.5481684741211Q10.139,68.66835847412109,10.1761,68.7905184741211Q10.2131,68.9126784741211,10.2442,69.03649847412109Q10.2752,69.16032847412109,10.3001,69.2855284741211Q10.325,69.4107284741211,10.3437,69.53699847412109Q10.3624,69.6632684741211,10.375,69.79030847412109Q10.3875,69.9173484741211,10.3937,70.0448484741211Q10.4,70.1723484741211,10.4,70.2999984741211Z" fill="#5E5E5E" fill-opacity="1"/></g><g><path d="M112.24899552001953,31.289999618530274C110.88099552001952,29.379999618530274,108.82899552001953,29.549999618530272,108.10199552001953,31.889999618530275C106.47699552001953,37.07999961853027,101.38999552001953,38.98999961853028,98.26899552001953,39.459999618530276C96.47399552001953,26.149999618530273,85.01599552001953,15.899999618530273,71.16499552001953,15.899999618530273C57.35599552001953,15.899999618530273,45.94199552001953,26.109999618530274,44.10299552001953,39.32999961853027C40.93999552001953,38.73999961853028,36.32299552001953,36.77999961853027,34.78399552001953,31.849999618530273C34.056995520019534,29.509999618530273,32.004995520019534,29.379999618530274,30.636995520019532,31.249999618530275C27.857995520019532,35.07999961853027,29.011999520019533,39.969999618530274,30.721995520019533,43.969999618530274C33.24499552001953,50.04999961853027,38.117995520019534,54.389999618530275,43.84699552001953,57.319999618530275C43.71899552001953,64.50999961853027,43.20599552001953,70.36999961853027,41.19599552001953,77.93999961853027C40.51199552001953,80.53999961853027,39.91399552001953,82.65999961853028,39.35799552001953,84.06999961853028C38.97299552001953,85.04999961853028,38.71699552001953,86.01999961853028,39.31499552001953,86.99999961853027C40.34099552001953,88.65999961853028,42.35099552001953,89.16999961853027,44.18899552001953,89.46999961853027C45.89899552001953,89.76999961853028,47.35199552001953,89.88999961853027,48.549995520019536,89.93999961853028C51.45699552001953,90.01999961853028,52.73899552001953,89.59999961853028,52.73899552001953,89.59999961853028C52.73899552001953,89.59999961853028,52.95299552001953,89.93999961853028,53.50899552001953,90.39999961853027C55.08999552001953,91.80999961853027,59.49399552001953,94.52999961853027,69.41199552001953,94.14999961853027C81.76699552001953,93.67999961853027,86.51299552001953,92.48999961853028,88.69299552001954,90.61999961853027C88.86399552001953,90.44999961853027,89.03499552001952,90.31999961853028,89.16299552001954,90.14999961853027C90.53099552001953,90.14999961853027,91.77099552001954,90.18999961853028,92.88199552001953,90.18999961853028C96.77299552001953,90.22999961853027,99.55199552001953,90.31999961853028,101.77499552001953,89.50999961853027C103.52699552001953,88.86999961853027,104.63899552001953,86.82999961853028,103.52699552001953,84.65999961853028C100.19299552001954,78.10999961853028,98.48299552001953,70.87999961853026,98.48299552001953,63.529999618530276L98.48299552001953,57.569999618530275C104.42499552001954,54.639999618530275,109.55499552001953,50.25999961853027,112.16299552001954,43.969999618530274C113.87299552001953,39.969999618530274,115.02799552001953,35.07999961853027,112.24899552001953,31.289999618530274Z" fill="#000000" fill-opacity="1"/><path d="M113.05539552001953,30.698699618530274Q116.76159552001953,35.753199618530275,113.08459552001953,44.35819961853028Q113.08359552001953,44.36059961853027,113.08249552001953,44.36309961853027Q109.46459552001953,53.07799961853027,99.48299552001953,58.18669961853028L99.48299552001953,63.529999618530276Q99.48299552001953,74.50919961853027,104.41699552001953,84.20399961853028Q104.41759552001953,84.20519961853027,104.41819552001954,84.20639961853027Q105.42529552001953,86.17369961853028,104.64839552001953,88.04259961853028Q103.92189552001953,89.79039961853027,102.11809552001954,90.44929961853028L102.11739552001953,90.44959961853027Q100.57739552001954,91.01069961853027,98.29929552001953,91.15099961853028Q96.92479552001953,91.23559961853027,93.62059552001953,91.19819961853027Q93.13089552001954,91.19259961853027,92.88199552001953,91.19009961853027L92.87169552001953,91.18999961853028Q92.33619552001953,91.18979961853027,91.19909552001954,91.17139961853027Q90.22869552001953,91.15569961853028,89.58789552001953,91.15149961853027Q89.56359552001953,91.17419961853027,89.53859552001953,91.19709961853027Q89.44069552001953,91.28669961853028,89.39799552001952,91.32919961853027L89.34409552001952,91.37899961853027Q87.41179552001952,93.03649961853027,83.06089552001953,93.89119961853028Q78.38799552001953,94.80919961853027,69.45029552001952,95.14929961853028Q62.75909552001953,95.40559961853027,58.03059552001953,93.89909961853027Q54.77409552001953,92.86149961853027,52.85709552001953,91.15849961853027Q52.579895520019534,90.92819961853027,52.36679552001954,90.71249961853027Q52.14149552001953,90.75309961853027,51.87129552001953,90.79059961853028Q50.42169552001953,90.99189961853027,48.52249552001953,90.93959961853027L48.50829552001953,90.93909961853028Q46.238295520019534,90.84439961853028,44.02209552001953,90.45599961853027Q42.19129552001953,90.15669961853027,41.05019552001953,89.66269961853027Q39.32299552001953,88.91499961853027,38.46436552001953,87.52579961853027L38.46137552001953,87.52089961853028Q37.88509552001953,86.57649961853028,37.97079552001953,85.45859961853027Q38.02722552001953,84.72259961853027,38.42724552001953,83.70429961853027L38.42771552001953,83.70319961853028Q39.08299552001953,82.04139961853028,40.228895520019535,77.68559961853028L40.22949552001953,77.68339961853027Q41.63379552001953,72.39439961853027,42.23429552001953,67.36889961853026Q42.716495520019535,63.33299961853027,42.83489552001953,57.92009961853027Q33.33576552001953,52.87269961853028,29.80040852001953,44.35819961853028Q26.12736552001953,35.762399618530274,29.82761552001953,30.662699618530276L29.829908520019533,30.659599618530272Q30.46772552001953,29.787699618530276,31.28415552001953,29.34619961853027Q32.16198552001953,28.871399618530273,33.06782552001953,28.978099618530273Q34.00990552001953,29.089099618530273,34.72434552001953,29.794499618530274Q35.39937552001953,30.461099618530273,35.738565520019534,31.551999618530274L35.73897552001953,31.553299618530275Q36.67365552001953,34.545999618530274,39.39529552001953,36.38959961853027Q41.12879552001953,37.56379961853027,43.28189552001953,38.123499618530275Q44.08039552001953,33.63769961853028,46.28859552001953,29.610999618530272Q48.69799552001953,25.21743961853027,52.48699552001953,21.904669618530274Q56.29919552001953,18.57168961853027,61.01209552001953,16.767939618530274Q65.89269552001953,14.899999618530273,71.16499552001953,14.899999618530273Q76.45439552001953,14.899999618530273,81.34879552001954,16.775755618530273Q86.07799552001953,18.588159618530273,89.89729552001953,21.936829618530275Q93.69639552001954,25.267809618530272,96.10269552001954,29.685199618530273Q98.31889552001954,33.75349961853027,99.10069552001953,38.28879961853028Q101.33719552001953,37.79099961853027,103.21019552001952,36.600999618530274Q106.16649552001954,34.722599618530275,107.14699552001953,31.593299618530274L107.14769552001952,31.591199618530275Q107.48639552001953,30.502399618530273,108.15809552001953,29.832399618530275Q108.87179552001953,29.12059961853027,109.81189552001953,29.003899618530273Q110.72429552001954,28.890499618530274,111.60509552001953,29.370999618530274Q112.42079552001952,29.816099618530274,113.05539552001953,30.698699618530274ZM110.05839552001953,30.988599618530273Q110.74229552001952,30.903699618530275,111.43599552001953,31.872299618530274L111.44259552001954,31.88129961853027Q114.47519552001953,36.017299618530274,111.24349552001954,43.57689961853028L111.23929552001952,43.58699961853027Q107.81099552001953,51.85539961853027,98.04079552001953,56.67309961853027L97.48299552001953,57.569999618530275L97.48299552001953,63.529999618530276Q97.48299552001953,74.99029961853027,102.63579552001953,85.11359961853027L102.63709552001953,85.11599961853027Q103.22339552001954,86.26019961853028,102.80159552001953,87.27489961853027Q102.41189552001953,88.21239961853027,101.43269552001954,88.57039961853027L101.43189552001954,88.57069961853027Q100.16439552001953,89.03239961853028,98.17639552001953,89.15479961853028Q96.87469552001953,89.23489961853028,93.64329552001954,89.19829961853027Q93.14829552001953,89.19269961853027,92.89229552001953,89.19009961853027L92.88199552001953,89.18999961853028Q92.36339552001954,89.18999961853028,91.23139552001953,89.17169961853027Q89.89059552001953,89.14999961853027,89.16299552001954,89.14999961853027L88.36409552001953,89.54849961853027Q88.33449552001953,89.58789961853027,88.18789552001954,89.72209961853028Q88.08459552001953,89.81669961853028,88.01789552001952,89.88139961853027Q86.47959552001953,91.18139961853028,82.67539552001952,91.92869961853027Q78.15569552001953,92.81659961853028,69.37399552001953,93.15069961853027L69.37369552001954,93.15069961853027Q63.03249552001953,93.39369961853028,58.637695520019534,91.99339961853028Q55.775595520019536,91.08159961853028,54.17459552001953,89.65369961853027L54.14649552001953,89.62949961853028Q53.71399552001953,89.27169961853028,53.58529552001953,89.06729961853027L52.427695520019526,88.64969961853028Q52.19159552001953,88.72699961853027,51.596195520019535,88.80959961853027Q50.31349552001953,88.98769961853027,48.58479552001953,88.94059961853027Q46.44729552001953,88.85089961853028,44.36179552001953,88.48499961853027L44.35009552001953,88.48309961853028Q42.76009552001953,88.22349961853027,41.84479552001953,87.82729961853028Q40.69729552001953,87.33059961853027,40.16859552001953,86.47909961853027Q40.16709552001953,86.47669961853028,40.16569552001953,86.47419961853028Q39.928795520019534,86.08279961853027,39.96499552001953,85.61139961853027Q39.99839552001953,85.17459961853028,40.288795520019534,84.43569961853028Q40.98729552001953,82.66369961853027,42.16249552001953,78.19659961853027L42.16309552001953,78.19439961853027Q43.60309552001953,72.77049961853027,44.22019552001953,67.60609961853027Q44.74179552001953,63.24109961853027,44.84679552001953,57.337799618530276L44.30229552001953,56.42969961853027Q35.00104552001953,51.672699618530274,31.645635520019532,43.586699618530275L31.641505520019532,43.57689961853028Q28.41170852001953,36.02189961853027,31.445275520019532,31.838799618530274Q32.14494552001953,30.883299618530273,32.833925520019534,30.964399618530273Q33.48554552001953,31.041099618530275,33.82902552001953,32.14669961853028L33.829425520019534,32.14799961853028Q34.97234552001953,35.80919961853027,38.27367552001953,38.04539961853027Q40.74789552001953,39.72139961853027,43.91959552001953,40.31299961853027L45.09349552001953,39.46779961853027Q45.749195520019526,34.75389961853027,48.04219552001953,30.572699618530272Q50.28119552001953,26.489899618530274,53.80349552001953,23.410329618530273Q57.347095520019536,20.312089618530273,61.72689552001953,18.635809618530274Q66.26229552001953,16.899999618530273,71.16499552001953,16.899999618530273Q76.08429552001954,16.899997618530275,80.63309552001954,18.643299618530275Q85.02829552001953,20.327739618530273,88.57869552001952,23.440669618530272Q92.11029552001953,26.536999618530274,94.34639552001953,30.641999618530274Q96.63809552001953,34.849099618530275,97.27799552001953,39.59369961853027L98.41789552001953,40.44879961853027Q101.64949552001953,39.96219961853028,104.28279552001953,38.28899961853027Q107.85749552001953,36.01769961853027,109.05629552001953,32.18879961853027L109.05699552001953,32.18669961853027Q109.40389552001953,31.069899618530272,110.05839552001953,30.988599618530273Z" fill-rule="evenodd" fill="#5E5E5E" fill-opacity="1"/></g><g><path d="M92.92499816894531,90.11000091552734C91.7699981689453,90.11000091552734,90.53099816894532,90.06000091552734,89.20499816894531,90.06000091552734C89.07699816894531,90.23000091552734,88.90599816894532,90.40000091552734,88.73499816894531,90.53000091552734C87.49499816894532,85.05000091552735,86.42599816894531,79.43000091552734,86.16999816894531,72.54000091552734C87.92299816894531,78.45000091552734,90.14599816894531,85.43000091552734,92.92499816894531,90.11000091552734Z" fill="#5E5E5E" fill-opacity="1"/></g><g><path d="M53.507999786376956,90.36000061035156C52.95199978637695,89.89000061035156,52.73899978637695,89.55000061035156,52.73899978637695,89.55000061035156C52.73899978637695,89.55000061035156,51.45599978637695,90.02000061035156,48.54899978637695,89.89000061035156C50.98599978637695,85.43000061035156,53.16599978637695,77.05000061035156,52.90999978637695,71.86000061035156C53.29399978637695,81.01000061035157,53.422999786376955,86.75000061035156,53.507999786376956,90.36000061035156Z" fill="#5E5E5E" fill-opacity="1"/></g><g><path d="M64.70899899291992,43.20000091552734Q64.70899899291992,43.37980091552734,64.69129899291993,43.558740915527345Q64.67358899291992,43.73768091552734,64.63835899291992,43.91403091552734Q64.60311899291992,44.09038091552734,64.55068899291992,44.26244091552734Q64.49825899291992,44.434500915527344,64.42913899291992,44.600620915527344Q64.36001899291992,44.76674091552734,64.27487899291992,44.92531091552734Q64.18973899291993,45.083880915527345,64.08939899291993,45.233390915527345Q63.98904899291992,45.38289091552734,63.87446899291992,45.52188091552735Q63.75988899291992,45.66087091552734,63.63217899291992,45.788010915527344Q63.50445899291992,45.91515091552734,63.364848992919924,46.02922091552735Q63.225228992919924,46.14328091552734,63.075048992919925,46.24318091552735Q62.92487899291992,46.34307091552734,62.76558899291992,46.427830915527345Q62.606298992919925,46.51259091552734,62.439438992919925,46.58140091552735Q62.27256899291992,46.650210915527346,62.09972899291992,46.70240091552734Q61.92688899291992,46.75460091552734,61.74974899291992,46.789670915527346Q61.572608992919925,46.824750915527346,61.39285899291992,46.84238091552734Q61.213118992919924,46.860000915527344,61.03249899291992,46.860000915527344Q60.851888992919925,46.860000915527344,60.67213899291992,46.84238091552734Q60.49238899291992,46.824750915527346,60.31524899291992,46.789670915527346Q60.138108992919925,46.75460091552734,59.965268992919924,46.70240091552734Q59.79242899291992,46.650210915527346,59.62555899291992,46.58140091552735Q59.45869899291992,46.51259091552734,59.29940899291992,46.427830915527345Q59.14011899291992,46.34307091552734,58.98994899291992,46.24318091552735Q58.83976899291992,46.14328091552734,58.70014899291992,46.02922091552735Q58.56053899291992,45.91515091552734,58.43281899291992,45.788010915527344Q58.305106992919924,45.66087091552734,58.19052599291992,45.52188091552735Q58.07594499291992,45.38289091552734,57.97560099291992,45.233390915527345Q57.87525699291992,45.083880915527345,57.790114992919925,44.92531091552734Q57.704973992919925,44.76674091552734,57.63585599291992,44.600620915527344Q57.56673799291992,44.434500915527344,57.514307992919925,44.26244091552734Q57.46187799291992,44.09038091552734,57.426641892919925,43.91403091552734Q57.391405692919925,43.73768091552734,57.373702392919924,43.558740915527345Q57.35599899291992,43.37980091552734,57.35599899291992,43.20000091552734Q57.35599899291992,43.02020091552734,57.373702392919924,42.84126091552734Q57.391405692919925,42.662320915527346,57.426641892919925,42.485970915527346Q57.46187799291992,42.30962091552735,57.514307992919925,42.137560915527345Q57.56673799291992,41.96550091552734,57.63585599291992,41.799380915527344Q57.704973992919925,41.633260915527345,57.790114992919925,41.47469091552735Q57.87525699291992,41.31611091552735,57.97560099291992,41.16661091552734Q58.07594499291992,41.01711091552735,58.19052599291992,40.87812091552735Q58.305106992919924,40.73913091552734,58.43281899291992,40.61199091552734Q58.56053899291992,40.484848915527344,58.70014899291992,40.37078291552734Q58.83976899291992,40.256715915527344,58.98994899291992,40.156821915527345Q59.14011899291992,40.056927915527346,59.29940899291992,39.97216891552734Q59.45869899291992,39.88740991552734,59.62555899291992,39.818601915527346Q59.79242899291992,39.74979391552734,59.965268992919924,39.697598915527344Q60.138108992919925,39.645404915527344,60.31524899291992,39.610326815527344Q60.49238899291992,39.575248715527344,60.67213899291992,39.55762481552734Q60.851888992919925,39.540000915527344,61.03249899291992,39.540000915527344Q61.213118992919924,39.540000915527344,61.39285899291992,39.55762481552734Q61.572608992919925,39.575248715527344,61.74974899291992,39.610326815527344Q61.92688899291992,39.645404915527344,62.09972899291992,39.697598915527344Q62.27256899291992,39.74979391552734,62.439438992919925,39.818601915527346Q62.606298992919925,39.88740991552734,62.76558899291992,39.97216891552734Q62.92487899291992,40.056927915527346,63.075048992919925,40.156821915527345Q63.225228992919924,40.256715915527344,63.364848992919924,40.37078291552734Q63.50445899291992,40.484848915527344,63.63217899291992,40.61199091552734Q63.75988899291992,40.73913091552734,63.87446899291992,40.87812091552735Q63.98904899291992,41.01711091552735,64.08939899291993,41.16661091552734Q64.18973899291993,41.31611091552735,64.27487899291992,41.47469091552735Q64.36001899291992,41.633260915527345,64.42913899291992,41.799380915527344Q64.49825899291992,41.96550091552734,64.55068899291992,42.137560915527345Q64.60311899291992,42.30962091552735,64.63835899291992,42.485970915527346Q64.67358899291992,42.662320915527346,64.69129899291993,42.84126091552734Q64.70899899291992,43.02020091552734,64.70899899291992,43.20000091552734Z" fill="#8C8C8C" fill-opacity="1"/></g><g><path d="M79.41500244140624,48.770001068115235C82.50800244140625,48.770001068115235,85.01600244140624,46.28000106811523,85.01600244140624,43.200001068115235C85.01600244140624,40.120001068115236,82.50800244140625,37.630001068115234,79.41500244140624,37.630001068115234C76.32200244140626,37.630001068115234,73.81500244140625,40.120001068115236,73.81500244140625,43.200001068115235C73.81500244140625,46.28000106811523,76.32200244140626,48.770001068115235,79.41500244140624,48.770001068115235Z" fill="#8C8C8C" fill-opacity="1"/></g><g><path d="M80.86900115966797,53.91999816894531C80.86900115966797,55.31999816894531,75.99500115966796,56.46999816894531,70.01000115966796,56.46999816894531C63.982001159667966,56.46999816894531,59.10900115966797,55.31999816894531,59.10900115966797,53.91999816894531L80.86900115966797,53.91999816894531Z" fill="#8C8C8C" fill-opacity="1"/></g><g><path d="M72.53199877929687,66.1600016784668C69.75399877929688,66.1600016784668,67.52999877929688,63.9100016784668,67.52999877929688,61.1900016784668L67.52999877929688,55.2400016784668L77.57699877929687,55.2400016784668L77.57699877929687,61.1900016784668C77.57699877929687,63.9100016784668,75.31099877929688,66.1600016784668,72.53199877929687,66.1600016784668Z" fill="#8C8C8C" fill-opacity="1"/></g></g></svg>